<svg width="22" height="24" viewBox="0 0 22 24" fill="none" xmlns="http://www.w3.org/2000/svg">
<path d="M1.89039 6.85H20.0921C20.1607 6.85 20.2205 6.89651 20.2375 6.96296L21.1454 10.5257C21.1484 10.5378 21.15 10.5502 21.15 10.5627V22C21.15 22.0828 21.0828 22.15 21 22.15H1C0.917157 22.15 0.85 22.0828 0.85 22V10.5616C0.85 10.5493 0.851504 10.5371 0.854479 10.5252L1.74487 6.96362C1.76156 6.89684 1.82156 6.85 1.89039 6.85Z" fill="white" stroke="#667085" stroke-width="0.7"/>
<mask id="path-2-inside-1_13543_43836" fill="white">
<path d="M1.5 22H20.5V23.5C20.5 23.7761 20.2761 24 20 24H2C1.72386 24 1.5 23.7761 1.5 23.5V22Z"/>
</mask>
<path d="M1.5 22H20.5V23.5C20.5 23.7761 20.2761 24 20 24H2C1.72386 24 1.5 23.7761 1.5 23.5V22Z" fill="white" stroke="#667085" stroke-width="1.4" mask="url(#path-2-inside-1_13543_43836)"/>
<mask id="path-3-inside-2_13543_43836" fill="white">
<path d="M17 7H5V0.5C5 0.223858 5.22386 0 5.5 0H16.5C16.7761 0 17 0.223858 17 0.5V7Z"/>
</mask>
<path d="M17 7H5V0.5C5 0.223858 5.22386 0 5.5 0H16.5C16.7761 0 17 0.223858 17 0.5V7Z" fill="white" stroke="#667085" stroke-width="1.4" mask="url(#path-3-inside-2_13543_43836)"/>
<path d="M10.9005 7.90039C9.63469 7.90039 8.39732 8.27575 7.34484 8.97898C6.29236 9.68221 5.47207 10.6818 4.98765 11.8512C4.50324 13.0206 4.37652 14.3075 4.62349 15.549C4.8704 16.7904 5.47994 17.9308 6.37498 18.8259C7.27008 19.7209 8.41044 20.3305 9.65191 20.5774C10.8934 20.8244 12.1802 20.6976 13.3496 20.2132C14.5191 19.7288 15.5187 18.9085 16.2219 17.856C16.9251 16.8036 17.3005 15.5662 17.3005 14.3004C17.2986 12.6036 16.6237 10.9768 15.4239 9.777C14.2241 8.57719 12.5973 7.90231 10.9005 7.90039ZM14.0388 18.9361L13.6469 18.2573L12.9541 18.6573L13.3466 19.3373C12.7061 19.6497 12.0114 19.8359 11.3005 19.8859V19.1004H10.5005V19.8859C9.78957 19.8359 9.09492 19.6496 8.4544 19.3371L8.84692 18.6571L8.15412 18.2571L7.76218 18.9359C7.17306 18.5357 6.66503 18.0276 6.26477 17.4385L6.94356 17.0466L6.54356 16.3538L5.86356 16.7463C5.55124 16.1058 5.36493 15.4112 5.31495 14.7004H6.10048V13.9004H5.31495C5.365 13.1895 5.5513 12.4948 5.86375 11.8543L6.54375 12.2468L6.94375 11.554L6.26496 11.1621C6.66522 10.573 7.17325 10.0649 7.76237 9.66468L8.15431 10.3435L8.84711 9.94346L8.4546 9.26346C9.09511 8.95108 9.78964 8.76484 10.5005 8.71485V9.50039H11.3005V8.71485C12.0114 8.7649 12.7061 8.95121 13.3466 9.26365L12.9541 9.94365L13.6469 10.3437L14.0388 9.66487C14.6279 10.0651 15.136 10.5732 15.5362 11.1623L14.8574 11.5542L15.2574 12.247L15.9374 11.8545C16.2498 12.495 16.436 13.1895 16.486 13.9004H15.7005V14.7004H16.486C16.436 15.4113 16.2497 16.106 15.9372 16.7465L15.2572 16.354L14.8572 17.0468L15.536 17.4387C15.1358 18.0278 14.6278 18.5358 14.0388 18.9361Z" fill="#667085"/>
<path d="M10.5007 14.075L7.89795 15.6051L8.30339 16.2947L11.1034 14.6487C11.1635 14.6134 11.2133 14.563 11.2479 14.5024C11.2825 14.4419 11.3007 14.3734 11.3007 14.3037V10.3H10.5007V14.075Z" fill="#667085"/>
<path d="M4.9 9.10039C4.9 8.86308 4.8296 8.63102 4.69776 8.4337C4.56592 8.23639 4.37849 8.08254 4.15922 7.99172C3.93995 7.90091 3.69867 7.87716 3.46589 7.92343C3.23311 7.96977 3.0193 8.08407 2.85148 8.25188C2.68365 8.41969 2.56936 8.63351 2.52306 8.86628C2.47676 9.09905 2.50052 9.34033 2.59135 9.55959C2.68217 9.77886 2.83597 9.96631 3.03332 10.0982C3.23066 10.23 3.46266 10.3004 3.7 10.3004C4.01815 10.3 4.32317 10.1735 4.54813 9.94852C4.77309 9.72356 4.89962 9.41854 4.9 9.10039ZM3.7 9.50039C3.62089 9.50039 3.54355 9.4769 3.47777 9.433C3.41199 9.38903 3.36072 9.32657 3.33045 9.25348C3.30017 9.18039 3.29225 9.09995 3.30769 9.02238C3.32312 8.94475 3.36122 8.87351 3.41716 8.81758C3.4731 8.76164 3.54437 8.7235 3.62197 8.70807C3.69956 8.69265 3.77998 8.70058 3.85308 8.73086C3.92616 8.76113 3.98863 8.81239 4.03259 8.87818C4.07654 8.94398 4.1 9.02129 4.1 9.10039C4.09988 9.20644 4.0577 9.30814 3.98271 9.38308C3.90773 9.45809 3.80605 9.50026 3.7 9.50039Z" fill="#667085"/>
<path d="M7.2998 3.1001H8.8998V3.9001H7.2998V3.1001Z" fill="#667085"/>
<path d="M7.2998 4.7002H8.8998V5.5002H7.2998V4.7002Z" fill="#667085"/>
<path d="M10.1006 3.1001H14.5006V3.9001H10.1006V3.1001Z" fill="#667085"/>
<path d="M7.2998 1.5H8.8998V2.3H7.2998V1.5Z" fill="#667085"/>
<path d="M10.1006 1.5H14.5006V2.3H10.1006V1.5Z" fill="#667085"/>
<path d="M10.1006 4.7002H14.5006V5.5002H10.1006V4.7002Z" fill="#667085"/>
</svg>
