<svg width="58" height="44" viewBox="0 0 58 44" fill="none" xmlns="http://www.w3.org/2000/svg">
<rect x="0.5" y="0.5" width="57" height="43" rx="3.5" fill="white"/>
<path d="M42.2545 21.7227L43.225 23.2622C43.225 23.2622 41.8901 25.0401 39.4187 25.0401C36.4583 25.0401 34.4626 22.6842 34.4626 19.5433C34.4626 16.4614 36.5772 14.0908 39.4187 14.0908C41.758 14.0908 42.9606 15.5873 42.9606 15.5873L42.0782 17.2023C42.0166 17.2986 41.9158 17.3613 41.802 17.3613C41.7164 17.3613 41.6382 17.3258 41.5784 17.2673C41.1669 16.9468 40.3927 16.4614 39.5245 16.4614C37.7138 16.4614 36.8547 17.958 36.8547 19.4839C36.8547 21.0546 37.7799 22.6695 39.5245 22.6695C40.5018 22.6695 41.3372 22.0431 41.7547 21.6577C41.8144 21.5991 41.8927 21.5636 41.9782 21.5636C42.0921 21.5636 42.1928 21.6264 42.2545 21.7227Z" fill="#231F20"/>
<path d="M21.7833 22.7442L20.6881 22.7373C20.5005 22.7373 20.3483 22.5667 20.3483 22.3563H20.3499V20.4791H21.7969C22.4933 20.4791 22.8209 20.9842 22.8209 21.5964C22.8209 22.2085 22.4797 22.7442 21.7833 22.7442ZM20.3499 17.2591C20.3499 16.7805 20.696 16.3925 21.1229 16.3925H21.5377C22.1792 16.3925 22.4388 16.821 22.4388 17.3262C22.4388 17.8464 22.1792 18.3362 21.5786 18.3362H20.3499V17.2591ZM23.7356 19.3157V19.2853C24.4729 18.8107 24.8689 17.8771 24.8689 16.9587C24.8689 15.0762 23.5035 14.0966 21.5512 14.0966H20.2883C19.0028 14.0966 17.9607 15.2649 17.9607 16.7061V24.6592C17.9607 24.8695 18.1128 25.0401 18.3005 25.0401H21.5512C23.4899 25.0401 25.2648 24.1676 25.2648 21.7801C25.2648 20.8157 24.8551 19.6985 23.7356 19.3157Z" fill="#231F20"/>
<path d="M28.9103 20.5945L29.4709 18.4638C29.6487 17.7739 29.8675 16.5781 29.8675 16.5781H29.8948C29.8948 16.5781 30.1138 17.7739 30.2914 18.4638L30.8384 20.5945H28.9103ZM31.1392 14.0794H30.2949C29.2604 14.0794 28.3836 14.8359 28.0806 15.8824L25.3005 25.0401H27.5027C27.66 25.0401 27.7923 24.9203 27.831 24.7577L28.2791 23.0073C28.3225 22.8527 28.4512 22.7406 28.6034 22.7406H31.1473C31.2965 22.7406 31.4231 22.8484 31.4688 22.9982L31.9252 24.7577C31.9639 24.9203 32.0963 25.0401 32.2534 25.0401H34.462L31.1392 14.0794Z" fill="#231F20"/>
<path d="M47.2646 20.5945L47.8252 18.4638C48.003 17.7739 48.2217 16.5781 48.2217 16.5781H48.2491C48.2491 16.5781 48.468 17.7739 48.6456 18.4638L49.1926 20.5945H47.2646ZM49.4934 14.0794H48.6492C47.6147 14.0794 46.7379 14.8359 46.4348 15.8824L43.6548 25.0401H45.8569C46.0142 25.0401 46.1465 24.9203 46.1853 24.7577L46.6334 23.0073C46.6767 22.8527 46.8055 22.7406 46.9577 22.7406H49.5015C49.6506 22.7406 49.7774 22.8484 49.8231 22.9982L50.2794 24.7577C50.3181 24.9203 50.4505 25.0401 50.6077 25.0401H52.8162L49.4934 14.0794Z" fill="#231F20"/>
<path d="M7.57062 29.4336C7.30382 29.4336 7.08545 29.1889 7.08545 28.8897V14.64C7.08545 14.3409 7.30382 14.0962 7.57062 14.0962H15.0556C15.3224 14.0962 15.5407 14.3409 15.5407 14.64V28.8897C15.5407 29.1889 15.3224 29.4336 15.0556 29.4336H7.57062Z" fill="#009CA7"/>
<path d="M13.459 25.7171H13.1597V25.3815H13.1667H13.2739H13.459V25.7171ZM12.9884 25.7171H12.3968V25.0538H12.9884V25.7171ZM12.3968 23.671H13.4589V24.8619H13.1667H13.1596H12.3968V23.671ZM13.3379 25.0538H13.459V25.1896H13.3379V25.0538ZM13.6301 25.1896V24.8619V23.671H15.5408V23.4792H13.6301H13.459H12.3968H12.2256H7.08559H7.08545V23.671H7.08559H12.2256V24.8619V25.0538V25.9089V29.4336H12.3968V25.9089H12.9885H13.1596H13.459H13.6301H15.5408V25.7171H13.6301V25.3815V25.1896Z" fill="#7BC3CC"/>
<path d="M13.0742 25.7169V25.9087C13.3808 25.9087 13.6302 25.6291 13.6302 25.2854H13.6302C13.6302 25.0518 13.4607 24.8617 13.2523 24.8617H13.2523C13.1069 24.8617 12.9886 24.9943 12.9886 25.1573C12.9886 25.2808 13.0783 25.3813 13.1884 25.3813V25.1894C13.1726 25.1894 13.1597 25.175 13.1597 25.1573C13.1597 25.1001 13.2013 25.0536 13.2523 25.0535C13.3662 25.0536 13.459 25.1576 13.459 25.2854H13.4591C13.4591 25.5233 13.2865 25.7169 13.0742 25.7169ZM13.5445 23.479C12.8173 23.479 12.2257 24.1423 12.2257 24.9576C12.2257 25.4821 12.6063 25.9087 13.0741 25.9087V25.7169C12.7007 25.7169 12.3969 25.3763 12.3969 24.9576C12.3969 24.2481 12.9117 23.6708 13.5445 23.6708C14.5981 23.6708 15.4552 24.6317 15.4552 25.8128C15.4552 27.7563 14.0449 29.3375 12.3114 29.3375V29.5293C14.1393 29.5293 15.6264 27.8621 15.6264 25.8128C15.6264 24.5259 14.6925 23.479 13.5445 23.479ZM12.3113 29.3375V29.5293C9.38267 29.5293 7 26.8581 7 23.5749H7.00007C7.00007 18.2953 10.8315 14 15.5409 14V14.1919C10.9258 14.1919 7.17119 18.4011 7.17119 23.5749H7.17112C7.17112 26.7524 9.47703 29.3375 12.3113 29.3375Z" fill="white"/>
<path d="M18.6372 27.9946C18.4444 27.9946 18.2544 28.1011 18.2571 28.3293V28.3354V28.5941H19.0172V28.3354V28.3293C19.0172 28.1011 18.8272 27.9946 18.6372 27.9946ZM18.2571 28.9623C18.2544 29.1967 18.4444 29.3032 18.6372 29.3032C18.7864 29.3032 18.9384 29.2363 18.9955 29.0932L19.1312 29.1694C19.047 29.3732 18.8407 29.4736 18.6372 29.4736C18.3711 29.4736 18.1023 29.3063 18.1023 28.9623V28.3354C18.1023 27.9915 18.3711 27.8242 18.6372 27.8242C18.9005 27.8242 19.1692 27.9915 19.1692 28.3354V28.5941V28.7433H18.2571V28.9623Z" fill="#231F20"/>
<path d="M21.7034 27.9819C21.8771 27.915 22.0617 27.8572 22.2435 27.8572C22.5042 27.8633 22.7648 28.0276 22.7648 28.3654V29.4336H22.6127V28.3654C22.6127 28.1341 22.4227 28.0276 22.2435 28.0276C22.0915 28.0276 21.9395 28.0793 21.8554 28.1189V29.4336H21.7034V27.9819Z" fill="#231F20"/>
<path d="M26.2204 28.0854C26.1362 28.0459 25.9842 27.9942 25.8322 27.9942C25.6476 27.9942 25.463 28.1037 25.4657 28.3289V28.332V28.9467V28.9528C25.463 29.175 25.6503 29.2816 25.8376 29.2876C25.9652 29.2845 26.1009 29.2541 26.2204 29.1993V28.0854ZM26.2204 29.5067V29.3606C26.1009 29.4275 25.9733 29.4549 25.8431 29.4549C25.577 29.4581 25.3137 29.2784 25.3137 28.9467V28.332C25.3137 27.9972 25.5716 27.8298 25.8322 27.8268C25.9598 27.8268 26.0955 27.8572 26.2204 27.8967C26.2774 27.915 26.329 27.9333 26.3697 27.9486V29.5037C26.3697 30.0789 25.6395 30.1214 25.3788 29.7989L25.4821 29.6923C25.6503 29.9358 26.2204 29.9024 26.2204 29.5067Z" fill="#231F20"/>
<path d="M28.9602 29.4336H29.1122V27.8572H28.9602V29.4336ZM29.0308 27.3337C29.0986 27.3337 29.153 27.3945 29.153 27.4707C29.153 27.5468 29.0986 27.6076 29.0308 27.6076C28.9629 27.6076 28.9087 27.5468 28.9087 27.4707C28.9087 27.3945 28.9629 27.3337 29.0308 27.3337Z" fill="#231F20"/>
<path d="M31.7302 27.9819C31.9039 27.915 32.0886 27.8572 32.2704 27.8572C32.5311 27.8633 32.7916 28.0276 32.7916 28.3654V29.4336H32.6396V28.3654C32.6396 28.1341 32.4495 28.0276 32.2704 28.0276C32.1184 28.0276 31.9664 28.0793 31.8822 28.1189V29.4336H31.7302V27.9819Z" fill="#231F20"/>
<path d="M35.8728 27.9946C35.68 27.9946 35.49 28.1011 35.4927 28.3293V28.3354V28.5941H36.2528V28.3354V28.3293C36.2528 28.1011 36.0628 27.9946 35.8728 27.9946ZM35.4927 28.9623C35.49 29.1967 35.68 29.3032 35.8728 29.3032C36.022 29.3032 36.174 29.2363 36.2311 29.0932L36.3668 29.1694C36.2826 29.3732 36.0763 29.4736 35.8728 29.4736C35.6066 29.4736 35.3379 29.3063 35.3379 28.9623V28.3354C35.3379 27.9915 35.6066 27.8242 35.8728 27.8242C36.1361 27.8242 36.4048 27.9915 36.4048 28.3354V28.5941V28.7433H35.4927V28.9623Z" fill="#231F20"/>
<path d="M39.4243 27.9946C39.2314 27.9946 39.0415 28.1011 39.0442 28.3293V28.3354V28.5941H39.8043V28.3354V28.3293C39.8043 28.1011 39.6143 27.9946 39.4243 27.9946ZM39.0442 28.9623C39.0415 29.1967 39.2314 29.3032 39.4243 29.3032C39.5735 29.3032 39.7255 29.2363 39.7826 29.0932L39.9183 29.1694C39.8341 29.3732 39.6278 29.4736 39.4243 29.4736C39.1582 29.4736 38.8894 29.3063 38.8894 28.9623V28.3354C38.8894 27.9915 39.1582 27.8242 39.4243 27.8242C39.6876 27.8242 39.9563 27.9915 39.9563 28.3354V28.5941V28.7433H39.0442V28.9623Z" fill="#231F20"/>
<path d="M43.0759 27.851V28.0215C43.0079 28.0063 42.9483 28.0092 42.8804 28.0246C42.7393 28.0611 42.6198 28.1675 42.6198 28.3532V29.4336H42.4678V28.3532C42.4678 28.0793 42.6443 27.9059 42.8614 27.8572C42.9347 27.8388 42.9998 27.842 43.0759 27.851Z" fill="#231F20"/>
<path d="M45.5635 29.4336H45.7155V27.8572H45.5635V29.4336ZM45.6341 27.3337C45.7019 27.3337 45.7562 27.3945 45.7562 27.4707C45.7562 27.5468 45.7019 27.6076 45.6341 27.6076C45.5662 27.6076 45.512 27.5468 45.512 27.4707C45.512 27.3945 45.5662 27.3337 45.6341 27.3337Z" fill="#231F20"/>
<path d="M48.3325 27.9819C48.5062 27.915 48.6909 27.8572 48.8727 27.8572C49.1333 27.8633 49.3939 28.0276 49.3939 28.3654V29.4336H49.2419V28.3654C49.2419 28.1341 49.0518 28.0276 48.8727 28.0276C48.7207 28.0276 48.5687 28.0793 48.4845 28.1189V29.4336H48.3325V27.9819Z" fill="#231F20"/>
<path d="M52.8507 28.0854C52.7666 28.0459 52.6146 27.9942 52.4626 27.9942C52.278 27.9942 52.0934 28.1037 52.0961 28.3289V28.332V28.9467V28.9528C52.0934 29.175 52.2807 29.2816 52.468 29.2876C52.5956 29.2845 52.7313 29.2541 52.8507 29.1993V28.0854ZM52.8507 29.5067V29.3606C52.7313 29.4275 52.6037 29.4549 52.4734 29.4549C52.2074 29.4581 51.9441 29.2784 51.9441 28.9467V28.332C51.9441 27.9972 52.202 27.8298 52.4626 27.8268C52.5901 27.8268 52.7259 27.8572 52.8507 27.8967C52.9078 27.915 52.9594 27.9333 53.0001 27.9486V29.5037C53.0001 30.0789 52.2699 30.1214 52.0092 29.7989L52.1124 29.6923C52.2807 29.9358 52.8507 29.9024 52.8507 29.5067Z" fill="#231F20"/>
<rect x="0.5" y="0.5" width="57" height="43" rx="3.5" stroke="#EAECF0"/>
</svg>
