<svg width="48" height="36" viewBox="0 0 48 36" fill="none" xmlns="http://www.w3.org/2000/svg">
<path d="M36.2545 17.7227L37.225 19.2622C37.225 19.2622 35.8901 21.0401 33.4187 21.0401C30.4583 21.0401 28.4626 18.6842 28.4626 15.5433C28.4626 12.4614 30.5772 10.0908 33.4187 10.0908C35.758 10.0908 36.9606 11.5873 36.9606 11.5873L36.0782 13.2023C36.0166 13.2986 35.9158 13.3613 35.802 13.3613C35.7164 13.3613 35.6382 13.3258 35.5784 13.2673C35.1669 12.9468 34.3927 12.4614 33.5245 12.4614C31.7138 12.4614 30.8547 13.958 30.8547 15.4839C30.8547 17.0546 31.7799 18.6695 33.5245 18.6695C34.5018 18.6695 35.3372 18.0431 35.7547 17.6577C35.8144 17.5991 35.8927 17.5636 35.9782 17.5636C36.0921 17.5636 36.1928 17.6264 36.2545 17.7227Z" fill="#231F20"/>
<path d="M15.7833 18.7442L14.6881 18.7373C14.5005 18.7373 14.3483 18.5667 14.3483 18.3563H14.3499V16.4791H15.7969C16.4933 16.4791 16.8209 16.9842 16.8209 17.5964C16.8209 18.2085 16.4797 18.7442 15.7833 18.7442ZM14.3499 13.2591C14.3499 12.7805 14.696 12.3925 15.1229 12.3925H15.5377C16.1792 12.3925 16.4388 12.821 16.4388 13.3262C16.4388 13.8464 16.1792 14.3362 15.5786 14.3362H14.3499V13.2591ZM17.7356 15.3157V15.2853C18.4729 14.8107 18.8689 13.8771 18.8689 12.9587C18.8689 11.0762 17.5035 10.0966 15.5512 10.0966H14.2883C13.0028 10.0966 11.9607 11.2649 11.9607 12.7061V20.6592C11.9607 20.8695 12.1128 21.0401 12.3005 21.0401H15.5512C17.4899 21.0401 19.2648 20.1676 19.2648 17.7801C19.2648 16.8157 18.8551 15.6985 17.7356 15.3157Z" fill="#231F20"/>
<path d="M22.9103 16.5945L23.4709 14.4638C23.6487 13.7739 23.8675 12.5781 23.8675 12.5781H23.8948C23.8948 12.5781 24.1138 13.7739 24.2914 14.4638L24.8384 16.5945H22.9103ZM25.1392 10.0794H24.2949C23.2604 10.0794 22.3836 10.8359 22.0806 11.8824L19.3005 21.0401H21.5027C21.66 21.0401 21.7923 20.9203 21.831 20.7577L22.2791 19.0073C22.3225 18.8527 22.4512 18.7406 22.6034 18.7406H25.1473C25.2965 18.7406 25.4231 18.8484 25.4689 18.9982L25.9252 20.7577C25.9639 20.9203 26.0963 21.0401 26.2534 21.0401H28.462L25.1392 10.0794Z" fill="#231F20"/>
<path d="M41.2646 16.5945L41.8252 14.4638C42.003 13.7739 42.2217 12.5781 42.2217 12.5781H42.2491C42.2491 12.5781 42.468 13.7739 42.6456 14.4638L43.1926 16.5945H41.2646ZM43.4934 10.0794H42.6492C41.6147 10.0794 40.7379 10.8359 40.4348 11.8824L37.6548 21.0401H39.8569C40.0142 21.0401 40.1465 20.9203 40.1853 20.7577L40.6334 19.0073C40.6767 18.8527 40.8055 18.7406 40.9577 18.7406H43.5015C43.6506 18.7406 43.7774 18.8484 43.8231 18.9982L44.2794 20.7577C44.3181 20.9203 44.4505 21.0401 44.6077 21.0401H46.8162L43.4934 10.0794Z" fill="#231F20"/>
<path d="M1.57062 25.4336C1.30382 25.4336 1.08545 25.1889 1.08545 24.8897V10.64C1.08545 10.3409 1.30382 10.0962 1.57062 10.0962H9.05558C9.32238 10.0962 9.54068 10.3409 9.54068 10.64V24.8897C9.54068 25.1889 9.32238 25.4336 9.05558 25.4336H1.57062Z" fill="#009CA7"/>
<path d="M7.45901 21.7171H7.15969V21.3815H7.16667H7.27393H7.45901V21.7171ZM6.98842 21.7171H6.39675V21.0538H6.98842V21.7171ZM6.39675 19.671H7.45894V20.8619H7.16667H7.15962H6.39675V19.671ZM7.33786 21.0538H7.45901V21.1896H7.33786V21.0538ZM7.63014 21.1896V20.8619V19.671H9.54075V19.4792H7.63007H7.45901H6.39675H6.22563H1.08559H1.08545V19.671H1.08559H6.22563V20.8619V21.0538V21.9089V25.4336H6.39675V21.9089H6.98849H7.15962H7.45901H7.63014H9.54075V21.7171H7.63014V21.3815V21.1896Z" fill="#7BC3CC"/>
<path d="M7.07417 21.7169V21.9087C7.38075 21.9087 7.63025 21.6291 7.63025 21.2854H7.63018C7.63018 21.0518 7.46066 20.8617 7.25234 20.8617H7.25227C7.1069 20.8617 6.98861 20.9943 6.98861 21.1573C6.98861 21.2808 7.07828 21.3813 7.18841 21.3813V21.1894C7.17264 21.1894 7.15973 21.175 7.15973 21.1573C7.15973 21.1001 7.20125 21.0536 7.25234 21.0535C7.36623 21.0536 7.45898 21.1576 7.45898 21.2854H7.45905C7.45905 21.5233 7.28647 21.7169 7.07417 21.7169ZM7.54455 19.479C6.81734 19.479 6.22574 20.1423 6.22574 20.9576C6.22574 21.4821 6.6063 21.9087 7.0741 21.9087V21.7169C6.70066 21.7169 6.39686 21.3763 6.39686 20.9576C6.39686 20.2481 6.9117 19.6708 7.54455 19.6708C8.59808 19.6708 9.45523 20.6317 9.45523 21.8128C9.45523 23.7563 8.04486 25.3375 6.31137 25.3375V25.5293C8.13929 25.5293 9.62643 23.8621 9.62643 21.8128C9.62643 20.5259 8.69251 19.479 7.54455 19.479ZM6.3113 25.3375V25.5293C3.38267 25.5293 1 22.8581 1 19.5749H1.00007C1.00007 14.2953 4.83149 9.99999 9.54086 9.99999V10.1919C4.92578 10.1919 1.17119 14.4011 1.17119 19.5749H1.17112C1.17112 22.7524 3.47703 25.3375 6.3113 25.3375Z" fill="white"/>
<path d="M12.6372 23.9946C12.4444 23.9946 12.2544 24.1011 12.2571 24.3293V24.3354V24.5941H13.0172V24.3354V24.3293C13.0172 24.1011 12.8272 23.9946 12.6372 23.9946ZM12.2571 24.9623C12.2544 25.1967 12.4444 25.3032 12.6372 25.3032C12.7864 25.3032 12.9384 25.2363 12.9955 25.0932L13.1312 25.1694C13.047 25.3732 12.8407 25.4736 12.6372 25.4736C12.3711 25.4736 12.1023 25.3063 12.1023 24.9623V24.3354C12.1023 23.9915 12.3711 23.8242 12.6372 23.8242C12.9005 23.8242 13.1692 23.9915 13.1692 24.3354V24.5941V24.7433H12.2571V24.9623Z" fill="#231F20"/>
<path d="M15.7034 23.9819C15.8771 23.915 16.0617 23.8572 16.2435 23.8572C16.5042 23.8633 16.7648 24.0276 16.7648 24.3654V25.4336H16.6127V24.3654C16.6127 24.1341 16.4227 24.0276 16.2435 24.0276C16.0915 24.0276 15.9395 24.0793 15.8554 24.1189V25.4336H15.7034V23.9819Z" fill="#231F20"/>
<path d="M20.2204 24.0854C20.1362 24.0459 19.9842 23.9942 19.8322 23.9942C19.6476 23.9942 19.463 24.1037 19.4657 24.3289V24.332V24.9467V24.9528C19.463 25.175 19.6503 25.2816 19.8376 25.2876C19.9652 25.2845 20.1009 25.2541 20.2204 25.1993V24.0854ZM20.2204 25.5067V25.3606C20.1009 25.4275 19.9733 25.4549 19.8431 25.4549C19.577 25.4581 19.3137 25.2784 19.3137 24.9467V24.332C19.3137 23.9972 19.5716 23.8298 19.8322 23.8268C19.9598 23.8268 20.0955 23.8572 20.2204 23.8967C20.2774 23.915 20.329 23.9333 20.3697 23.9486V25.5037C20.3697 26.0789 19.6395 26.1214 19.3788 25.7989L19.4821 25.6923C19.6503 25.9358 20.2204 25.9024 20.2204 25.5067Z" fill="#231F20"/>
<path d="M22.9602 25.4336H23.1122V23.8572H22.9602V25.4336ZM23.0308 23.3337C23.0986 23.3337 23.153 23.3945 23.153 23.4707C23.153 23.5468 23.0986 23.6076 23.0308 23.6076C22.9629 23.6076 22.9087 23.5468 22.9087 23.4707C22.9087 23.3945 22.9629 23.3337 23.0308 23.3337Z" fill="#231F20"/>
<path d="M25.7302 23.9819C25.9039 23.915 26.0886 23.8572 26.2704 23.8572C26.5311 23.8633 26.7916 24.0276 26.7916 24.3654V25.4336H26.6396V24.3654C26.6396 24.1341 26.4495 24.0276 26.2704 24.0276C26.1184 24.0276 25.9664 24.0793 25.8822 24.1189V25.4336H25.7302V23.9819Z" fill="#231F20"/>
<path d="M29.8728 23.9946C29.68 23.9946 29.49 24.1011 29.4927 24.3293V24.3354V24.5941H30.2528V24.3354V24.3293C30.2528 24.1011 30.0628 23.9946 29.8728 23.9946ZM29.4927 24.9623C29.49 25.1967 29.68 25.3032 29.8728 25.3032C30.022 25.3032 30.174 25.2363 30.2311 25.0932L30.3668 25.1694C30.2826 25.3732 30.0763 25.4736 29.8728 25.4736C29.6066 25.4736 29.3379 25.3063 29.3379 24.9623V24.3354C29.3379 23.9915 29.6066 23.8242 29.8728 23.8242C30.1361 23.8242 30.4048 23.9915 30.4048 24.3354V24.5941V24.7433H29.4927V24.9623Z" fill="#231F20"/>
<path d="M33.4243 23.9946C33.2314 23.9946 33.0415 24.1011 33.0442 24.3293V24.3354V24.5941H33.8043V24.3354V24.3293C33.8043 24.1011 33.6143 23.9946 33.4243 23.9946ZM33.0442 24.9623C33.0415 25.1967 33.2314 25.3032 33.4243 25.3032C33.5735 25.3032 33.7255 25.2363 33.7826 25.0932L33.9183 25.1694C33.8341 25.3732 33.6278 25.4736 33.4243 25.4736C33.1582 25.4736 32.8894 25.3063 32.8894 24.9623V24.3354C32.8894 23.9915 33.1582 23.8242 33.4243 23.8242C33.6876 23.8242 33.9563 23.9915 33.9563 24.3354V24.5941V24.7433H33.0442V24.9623Z" fill="#231F20"/>
<path d="M37.0759 23.851V24.0215C37.0079 24.0063 36.9483 24.0092 36.8804 24.0246C36.7393 24.0611 36.6198 24.1675 36.6198 24.3532V25.4336H36.4678V24.3532C36.4678 24.0793 36.6443 23.9059 36.8614 23.8572C36.9347 23.8388 36.9998 23.842 37.0759 23.851Z" fill="#231F20"/>
<path d="M39.5635 25.4336H39.7155V23.8572H39.5635V25.4336ZM39.6341 23.3337C39.7019 23.3337 39.7562 23.3945 39.7562 23.4707C39.7562 23.5468 39.7019 23.6076 39.6341 23.6076C39.5662 23.6076 39.512 23.5468 39.512 23.4707C39.512 23.3945 39.5662 23.3337 39.6341 23.3337Z" fill="#231F20"/>
<path d="M42.3325 23.9819C42.5062 23.915 42.6909 23.8572 42.8727 23.8572C43.1333 23.8633 43.3939 24.0276 43.3939 24.3654V25.4336H43.2419V24.3654C43.2419 24.1341 43.0518 24.0276 42.8727 24.0276C42.7207 24.0276 42.5687 24.0793 42.4845 24.1189V25.4336H42.3325V23.9819Z" fill="#231F20"/>
<path d="M46.8507 24.0854C46.7666 24.0459 46.6146 23.9942 46.4626 23.9942C46.278 23.9942 46.0934 24.1037 46.0961 24.3289V24.332V24.9467V24.9528C46.0934 25.175 46.2807 25.2816 46.468 25.2876C46.5956 25.2845 46.7313 25.2541 46.8507 25.1993V24.0854ZM46.8507 25.5067V25.3606C46.7313 25.4275 46.6037 25.4549 46.4734 25.4549C46.2074 25.4581 45.9441 25.2784 45.9441 24.9467V24.332C45.9441 23.9972 46.202 23.8298 46.4626 23.8268C46.5901 23.8268 46.7259 23.8572 46.8507 23.8967C46.9078 23.915 46.9594 23.9333 47.0001 23.9486V25.5037C47.0001 26.0789 46.2699 26.1214 46.0092 25.7989L46.1124 25.6923C46.2807 25.9358 46.8507 25.9024 46.8507 25.5067Z" fill="#231F20"/>
</svg>
