<svg width="25" height="12" viewBox="0 0 25 12" fill="none" xmlns="http://www.w3.org/2000/svg">
<path opacity="0.35" d="M1.17188 2.66666C1.17188 1.47005 2.14192 0.5 3.33854 0.5H20.0052C21.2018 0.5 22.1719 1.47005 22.1719 2.66667V8.66667C22.1719 9.86329 21.2018 10.8333 20.0052 10.8333H3.33854C2.14192 10.8333 1.17188 9.86328 1.17188 8.66667V2.66666Z" fill="white" stroke="white"/>
<path opacity="0.4" d="M23.6719 3.66663V7.66663C24.4766 7.32785 24.9999 6.53976 24.9999 5.66663C24.9999 4.79349 24.4766 4.0054 23.6719 3.66663Z" fill="white"/>
<path d="M2.67188 3.33333C2.67188 2.59695 3.26883 2 4.00521 2H19.3385C20.0749 2 20.6719 2.59695 20.6719 3.33333V8C20.6719 8.73638 20.0749 9.33333 19.3385 9.33333H4.00521C3.26883 9.33333 2.67188 8.73638 2.67188 8V3.33333Z" fill="white"/>
</svg>
