<svg width="24" height="24" viewBox="0 0 24 24" fill="none" xmlns="http://www.w3.org/2000/svg">
    <path
        d="M23.0924 10.3883H23.4993V23.47H7.64877H6.1613H0.542394L1.98326 5.45915H2.6405H3.14124V4.95841C3.14124 3.16417 4.60178 1.70363 6.39602 1.70363C6.78441 1.70363 7.16926 1.77348 7.53101 1.90815L7.85153 2.02748L8.07928 1.77232C8.78088 0.98627 9.78443 0.530032 10.8557 0.530032C11.6301 0.530032 12.37 0.766281 12.9918 1.20364L13.2909 1.414L13.5823 1.19313C14.1449 0.766731 14.8374 0.530032 15.5501 0.530032C16.3369 0.530032 17.0832 0.810511 17.6682 1.31316L17.9339 1.54136L18.2394 1.37016C18.6702 1.1287 19.1587 0.999472 19.6577 0.999472C21.2578 0.999472 22.5604 2.30204 22.5604 3.90217C22.5604 5.5023 21.2578 6.80487 19.6577 6.80487C19.0967 6.80487 18.5586 6.6455 18.0964 6.34931L17.8016 6.16043L17.523 6.37243C16.9593 6.80136 16.2645 7.03959 15.5501 7.03959C15.0519 7.03959 14.5718 6.9287 14.1343 6.71626L13.8052 6.55647L13.5529 6.8214C12.8549 7.55443 11.8823 7.97847 10.8557 7.97847C10.1966 7.97847 9.54611 7.80051 8.97885 7.46996L8.68394 7.29811L8.41619 7.50979C7.84475 7.96158 7.13211 8.21319 6.39602 8.21319C6.28607 8.21319 6.177 8.20773 6.06894 8.19697L5.45611 8.13597L5.52143 8.74836L6.14424 14.587L6.27068 15.7723L7.02863 14.8522L10.7059 10.3883H11.2331L10.6037 11.1523L6.46485 16.1764L6.33111 16.3388L6.35342 16.5479L6.54997 18.3905L6.59772 18.8382H7.04788H9.41613V19.245H7.1981H6.64112L6.70019 19.7989L7.00063 22.6155L7.04838 23.0631H7.49854H22.5917H23.0924V22.5624V19.7458V19.245H22.5917H20.2758V18.8382H22.5917H23.0924V18.3374V11.4689V10.3883ZM11.4909 10.3883H11.8977V14.6663V15.9589H11.4909V11.4707V10.3883ZM12.5037 15.9589H11.9744L12.7834 14.9865L16.6087 10.3883H17.138L16.5075 11.1462L12.5037 15.9589ZM17.3931 10.3883H17.8V14.4468V15.8377L18.6866 14.7659L22.3077 10.3883H22.8357L22.2058 11.1497L18.2277 15.9589H17.3931V11.4664V10.3883ZM4.85257 6.31362L4.80483 5.86599H4.35466H2.82114H2.35887L2.322 6.3268L2.20934 7.73512L2.16608 8.27578H2.70848H4.50488H5.06187L5.00279 7.72194L4.85257 6.31362ZM7.81635 2.49035L7.81633 2.49034C7.38522 2.24168 6.89425 2.11048 6.39602 2.11048C4.82521 2.11048 3.54809 3.38763 3.54809 4.95851V5.45924H4.04882H5.17058L5.3667 7.29797L5.4045 7.65233L5.75169 7.7327C5.96112 7.78118 6.17658 7.80644 6.39602 7.80644C7.19961 7.80644 7.96898 7.46463 8.50835 6.86848L8.14709 6.54164L8.50835 6.86848L8.63676 6.72655L8.78619 6.84601C9.37897 7.32003 10.0968 7.57167 10.8557 7.57167C11.9461 7.57167 12.9671 7.03451 13.5873 6.13599L13.1752 5.85152L13.5873 6.13598L13.7059 5.96419L13.8746 6.08719L13.8746 6.0872C14.3637 6.44375 14.9444 6.63275 15.5501 6.63275C16.3528 6.63275 17.0989 6.30545 17.6436 5.71498L17.2756 5.37546L17.6436 5.71497L17.784 5.56276L17.9337 5.70587L17.9337 5.70589C18.3999 6.15161 19.0131 6.39803 19.6577 6.39803C21.0344 6.39803 22.1535 5.27885 22.1535 3.90217C22.1535 2.52549 21.0344 1.40632 19.6577 1.40632C19.0652 1.40632 18.4908 1.61802 18.0397 2.00258C18.0397 2.00259 18.0397 2.0026 18.0397 2.00261L17.8822 2.13693L17.7507 1.97703L17.3639 2.29509L17.7506 1.97702C17.2075 1.31661 16.4046 0.936833 15.5501 0.936833C14.754 0.936833 13.9897 1.27328 13.4512 1.86025L13.8202 2.19876L13.4512 1.86026L13.3101 2.01407L13.16 1.86905L13.16 1.86904C12.5385 1.26858 11.7191 0.93688 10.8557 0.93688C9.73958 0.93688 8.70435 1.49455 8.08764 2.4264L8.08762 2.42644L7.98207 2.58595L7.81635 2.49035ZM1.02635 22.5225L0.983096 23.0631H1.52549H6.0822H6.63919L6.58011 22.5093L5.15301 9.13026L5.10527 8.68263H4.6551H2.59581H2.13354L2.09667 9.14344L1.02635 22.5225Z"
        stroke="currentColor" stroke-width="1.00147" />
    <path d="M11.8259 18.8381H13.6411V19.245H11.8259V18.8381Z" stroke="currentColor"
        stroke-width="1.00147" />
    <path d="M15.5503 18.3374H18.3669V19.7457H15.5503V18.3374Z" fill="#6941C6" />
</svg>