<svg width="152" height="34" viewBox="0 0 152 34" fill="none" xmlns="http://www.w3.org/2000/svg">
<g filter="url(#filter0_d_13438_177149)">
<rect x="2" y="1" width="148" height="30" rx="6" fill="white"/>
<path d="M24.25 19.75H23.5C23.1022 19.75 22.7206 19.592 22.4393 19.3107C22.158 19.0294 22 18.6478 22 18.25V10.75C22 10.3522 22.158 9.97064 22.4393 9.68934C22.7206 9.40804 23.1022 9.25 23.5 9.25H35.5C35.8978 9.25 36.2794 9.40804 36.5607 9.68934C36.842 9.97064 37 10.3522 37 10.75V18.25C37 18.6478 36.842 19.0294 36.5607 19.3107C36.2794 19.592 35.8978 19.75 35.5 19.75H34.75M29.5 18.25L33.25 22.75H25.75L29.5 18.25Z" stroke="#101828" stroke-width="1.35" stroke-linecap="round" stroke-linejoin="round"/>
<path d="M55.0398 15.6364C55.0398 16.5682 54.8693 17.3693 54.5284 18.0398C54.1875 18.7074 53.7202 19.2216 53.1264 19.5824C52.5355 19.9403 51.8636 20.1193 51.1108 20.1193C50.3551 20.1193 49.6804 19.9403 49.0866 19.5824C48.4957 19.2216 48.0298 18.706 47.6889 18.0355C47.348 17.3651 47.1776 16.5653 47.1776 15.6364C47.1776 14.7045 47.348 13.9048 47.6889 13.2372C48.0298 12.5668 48.4957 12.0526 49.0866 11.6946C49.6804 11.3338 50.3551 11.1534 51.1108 11.1534C51.8636 11.1534 52.5355 11.3338 53.1264 11.6946C53.7202 12.0526 54.1875 12.5668 54.5284 13.2372C54.8693 13.9048 55.0398 14.7045 55.0398 15.6364ZM53.7358 15.6364C53.7358 14.9261 53.6207 14.3281 53.3906 13.8423C53.1634 13.3537 52.8509 12.9844 52.4531 12.7344C52.0582 12.4815 51.6108 12.3551 51.1108 12.3551C50.608 12.3551 50.1591 12.4815 49.7642 12.7344C49.3693 12.9844 49.0568 13.3537 48.8267 13.8423C48.5994 14.3281 48.4858 14.9261 48.4858 15.6364C48.4858 16.3466 48.5994 16.946 48.8267 17.4347C49.0568 17.9205 49.3693 18.2898 49.7642 18.5426C50.1591 18.7926 50.608 18.9176 51.1108 18.9176C51.6108 18.9176 52.0582 18.7926 52.4531 18.5426C52.8509 18.2898 53.1634 17.9205 53.3906 17.4347C53.6207 16.946 53.7358 16.3466 53.7358 15.6364ZM56.5792 22.4545V13.4545H57.8235V14.5156H57.93C58.0039 14.3793 58.1104 14.2216 58.2496 14.0426C58.3888 13.8636 58.582 13.7074 58.8292 13.5739C59.0763 13.4375 59.4031 13.3693 59.8093 13.3693C60.3377 13.3693 60.8093 13.5028 61.2241 13.7699C61.6388 14.0369 61.9641 14.4219 62.1999 14.9247C62.4386 15.4276 62.5579 16.0327 62.5579 16.7401C62.5579 17.4474 62.44 18.054 62.2042 18.5597C61.9684 19.0625 61.6445 19.4503 61.2326 19.723C60.8207 19.9929 60.3505 20.1278 59.8221 20.1278C59.4244 20.1278 59.0991 20.0611 58.8462 19.9276C58.5962 19.794 58.4002 19.6378 58.2582 19.4588C58.1161 19.2798 58.0067 19.1207 57.93 18.9815H57.8533V22.4545H56.5792ZM57.8278 16.7273C57.8278 17.1875 57.8945 17.5909 58.0281 17.9375C58.1616 18.2841 58.3548 18.5554 58.6076 18.7514C58.8604 18.9446 59.1701 19.0412 59.5366 19.0412C59.9173 19.0412 60.2354 18.9403 60.4911 18.7386C60.7468 18.5341 60.94 18.2571 61.0707 17.9077C61.2042 17.5582 61.271 17.1648 61.271 16.7273C61.271 16.2955 61.2056 15.9077 61.0749 15.5639C60.9471 15.2202 60.7539 14.9489 60.4954 14.75C60.2397 14.5511 59.9201 14.4517 59.5366 14.4517C59.1673 14.4517 58.8548 14.5469 58.5991 14.7372C58.3462 14.9276 58.1545 15.1932 58.0238 15.5341C57.8931 15.875 57.8278 16.2727 57.8278 16.7273ZM66.8065 20.1321C66.1616 20.1321 65.6062 19.9943 65.1403 19.7188C64.6772 19.4403 64.3192 19.0497 64.0664 18.5469C63.8164 18.0412 63.6914 17.4489 63.6914 16.7699C63.6914 16.0994 63.8164 15.5085 64.0664 14.9972C64.3192 14.4858 64.6715 14.0866 65.1232 13.7997C65.5778 13.5128 66.109 13.3693 66.717 13.3693C67.0863 13.3693 67.4442 13.4304 67.7908 13.5526C68.1374 13.6747 68.4485 13.8665 68.7241 14.1278C68.9996 14.3892 69.217 14.7287 69.3761 15.1463C69.5352 15.5611 69.6147 16.0653 69.6147 16.6591V17.1108H64.4116V16.1562H68.3661C68.3661 15.821 68.2979 15.5241 68.1616 15.2656C68.0252 15.0043 67.8335 14.7983 67.5863 14.6477C67.342 14.4972 67.055 14.4219 66.7255 14.4219C66.3675 14.4219 66.055 14.5099 65.788 14.6861C65.5238 14.8594 65.3192 15.0866 65.1744 15.3679C65.0323 15.6463 64.9613 15.9489 64.9613 16.2756V17.0213C64.9613 17.4588 65.038 17.831 65.1914 18.1378C65.3477 18.4446 65.565 18.679 65.8434 18.8409C66.1218 19 66.4471 19.0795 66.8192 19.0795C67.0607 19.0795 67.2809 19.0455 67.4798 18.9773C67.6786 18.9062 67.8505 18.8011 67.9954 18.6619C68.1403 18.5227 68.2511 18.3509 68.3278 18.1463L69.5337 18.3636C69.4371 18.7187 69.2638 19.0298 69.0138 19.2969C68.7667 19.5611 68.4556 19.767 68.0806 19.9148C67.7085 20.0597 67.2837 20.1321 66.8065 20.1321ZM71.0284 20V13.4545H72.2599V14.4943H72.3281C72.4474 14.142 72.6577 13.8651 72.9588 13.6634C73.2628 13.4588 73.6065 13.3565 73.9901 13.3565C74.0696 13.3565 74.1634 13.3594 74.2713 13.3651C74.3821 13.3707 74.4688 13.3778 74.5312 13.3864V14.6051C74.4801 14.5909 74.3892 14.5753 74.2585 14.5582C74.1278 14.5384 73.9972 14.5284 73.8665 14.5284C73.5653 14.5284 73.2969 14.5923 73.0611 14.7202C72.8281 14.8452 72.6435 15.0199 72.5071 15.2443C72.3707 15.4659 72.3026 15.7187 72.3026 16.0028V20H71.0284ZM77.4801 20.1449C77.0653 20.1449 76.6903 20.0682 76.3551 19.9148C76.0199 19.7585 75.7543 19.5327 75.5582 19.2372C75.3651 18.9418 75.2685 18.5795 75.2685 18.1506C75.2685 17.7812 75.3395 17.4773 75.4815 17.2386C75.6236 17 75.8153 16.8111 76.0568 16.6719C76.2983 16.5327 76.5682 16.4276 76.8665 16.3565C77.1648 16.2855 77.4688 16.2315 77.7784 16.1946C78.1705 16.1491 78.4886 16.1122 78.733 16.0838C78.9773 16.0526 79.1548 16.0028 79.2656 15.9347C79.3764 15.8665 79.4318 15.7557 79.4318 15.6023V15.5724C79.4318 15.2003 79.3267 14.9119 79.1165 14.7074C78.9091 14.5028 78.5994 14.4006 78.1875 14.4006C77.7585 14.4006 77.4205 14.4957 77.1733 14.6861C76.929 14.8736 76.7599 15.0824 76.6662 15.3125L75.4688 15.0398C75.6108 14.642 75.8182 14.321 76.0909 14.0767C76.3665 13.8295 76.6832 13.6506 77.0412 13.5398C77.3991 13.4261 77.7756 13.3693 78.1705 13.3693C78.4318 13.3693 78.7088 13.4006 79.0014 13.4631C79.2969 13.5227 79.5724 13.6335 79.8281 13.7955C80.0866 13.9574 80.2983 14.1889 80.4631 14.4901C80.6278 14.7884 80.7102 15.1761 80.7102 15.6534V20H79.4659V19.1051H79.4148C79.3324 19.2699 79.2088 19.4318 79.044 19.5909C78.8793 19.75 78.6676 19.8821 78.4091 19.9872C78.1506 20.0923 77.8409 20.1449 77.4801 20.1449ZM77.7571 19.1222C78.1094 19.1222 78.4105 19.0526 78.6605 18.9134C78.9134 18.7741 79.1051 18.5923 79.2358 18.3679C79.3693 18.1406 79.4361 17.8977 79.4361 17.6392V16.7955C79.3906 16.8409 79.3026 16.8835 79.1719 16.9233C79.044 16.9602 78.8977 16.9929 78.733 17.0213C78.5682 17.0469 78.4077 17.071 78.2514 17.0938C78.0952 17.1136 77.9645 17.1307 77.8594 17.1449C77.6122 17.1761 77.3864 17.2287 77.1818 17.3026C76.9801 17.3764 76.8182 17.483 76.696 17.6222C76.5767 17.7585 76.517 17.9403 76.517 18.1676C76.517 18.483 76.6335 18.7216 76.8665 18.8835C77.0994 19.0426 77.3963 19.1222 77.7571 19.1222ZM87.3121 15.0526L86.1573 15.2571C86.109 15.1094 86.0323 14.9687 85.9272 14.8352C85.8249 14.7017 85.6857 14.5923 85.5096 14.5071C85.3335 14.4219 85.1133 14.3793 84.8491 14.3793C84.4883 14.3793 84.1871 14.4602 83.9457 14.6222C83.7042 14.7812 83.5835 14.9872 83.5835 15.2401C83.5835 15.4588 83.6644 15.6349 83.8263 15.7685C83.9883 15.902 84.2496 16.0114 84.6104 16.0966L85.6502 16.3352C86.2525 16.4744 86.7013 16.6889 86.9968 16.9787C87.2923 17.2685 87.44 17.6449 87.44 18.108C87.44 18.5 87.3263 18.8494 87.0991 19.1562C86.8746 19.4602 86.5607 19.6989 86.1573 19.8722C85.7567 20.0455 85.2923 20.1321 84.7638 20.1321C84.0309 20.1321 83.4329 19.9759 82.9698 19.6634C82.5067 19.348 82.2227 18.9006 82.1175 18.321L83.3491 18.1335C83.4258 18.4545 83.5835 18.6974 83.8221 18.8622C84.0607 19.0241 84.3718 19.1051 84.7553 19.1051C85.1729 19.1051 85.5067 19.0185 85.7567 18.8452C86.0067 18.669 86.1317 18.4545 86.1317 18.2017C86.1317 17.9972 86.055 17.8253 85.9016 17.6861C85.7511 17.5469 85.5195 17.4418 85.207 17.3707L84.0991 17.1278C83.4883 16.9886 83.0366 16.767 82.744 16.4631C82.4542 16.1591 82.3093 15.7741 82.3093 15.3082C82.3093 14.9219 82.4173 14.5838 82.6332 14.294C82.8491 14.0043 83.1474 13.7784 83.5281 13.6165C83.9087 13.4517 84.3448 13.3693 84.8363 13.3693C85.5437 13.3693 86.1005 13.5227 86.5067 13.8295C86.913 14.1335 87.1815 14.5412 87.3121 15.0526ZM89.6463 22.4545C89.456 22.4545 89.2827 22.4389 89.1264 22.4077C88.9702 22.3793 88.8537 22.348 88.777 22.3139L89.0838 21.2699C89.3168 21.3324 89.5241 21.3594 89.706 21.3509C89.8878 21.3423 90.0483 21.2741 90.1875 21.1463C90.3295 21.0185 90.4545 20.8097 90.5625 20.5199L90.7202 20.0852L88.3253 13.4545H89.6889L91.3466 18.5341H91.4148L93.0724 13.4545H94.4403L91.7429 20.8736C91.6179 21.2145 91.4588 21.5028 91.2656 21.7386C91.0724 21.9773 90.8423 22.1563 90.5753 22.2756C90.3082 22.3949 89.9986 22.4545 89.6463 22.4545ZM98.1722 20.1321C97.5586 20.1321 97.0231 19.9915 96.5657 19.7102C96.1083 19.429 95.7532 19.0355 95.5004 18.5298C95.2475 18.0241 95.1211 17.4332 95.1211 16.7571C95.1211 16.0781 95.2475 15.4844 95.5004 14.9759C95.7532 14.4673 96.1083 14.0724 96.5657 13.7912C97.0231 13.5099 97.5586 13.3693 98.1722 13.3693C98.7859 13.3693 99.3214 13.5099 99.7788 13.7912C100.236 14.0724 100.591 14.4673 100.844 14.9759C101.097 15.4844 101.223 16.0781 101.223 16.7571C101.223 17.4332 101.097 18.0241 100.844 18.5298C100.591 19.0355 100.236 19.429 99.7788 19.7102C99.3214 19.9915 98.7859 20.1321 98.1722 20.1321ZM98.1765 19.0625C98.5742 19.0625 98.9038 18.9574 99.1651 18.7472C99.4265 18.5369 99.6197 18.2571 99.7447 17.9077C99.8725 17.5582 99.9364 17.1733 99.9364 16.7528C99.9364 16.3352 99.8725 15.9517 99.7447 15.6023C99.6197 15.25 99.4265 14.9673 99.1651 14.7543C98.9038 14.5412 98.5742 14.4347 98.1765 14.4347C97.7759 14.4347 97.4435 14.5412 97.1793 14.7543C96.918 14.9673 96.7234 15.25 96.5955 15.6023C96.4705 15.9517 96.408 16.3352 96.408 16.7528C96.408 17.1733 96.4705 17.5582 96.5955 17.9077C96.7234 18.2571 96.918 18.5369 97.1793 18.7472C97.4435 18.9574 97.7759 19.0625 98.1765 19.0625ZM103.92 16.1136V20H102.646V13.4545H103.869V14.5199H103.95C104.1 14.1733 104.336 13.8949 104.657 13.6847C104.981 13.4744 105.388 13.3693 105.88 13.3693C106.326 13.3693 106.717 13.4631 107.052 13.6506C107.387 13.8352 107.647 14.1108 107.832 14.4773C108.016 14.8437 108.109 15.2969 108.109 15.8366V20H106.835V15.9901C106.835 15.5156 106.711 15.1449 106.464 14.8778C106.217 14.608 105.877 14.473 105.445 14.473C105.15 14.473 104.887 14.5369 104.657 14.6648C104.43 14.7926 104.249 14.9801 104.116 15.2273C103.985 15.4716 103.92 15.767 103.92 16.1136ZM113.833 20H112.435L115.576 11.2727H117.097L120.238 20H118.84L116.373 12.858H116.304L113.833 20ZM114.067 16.5824H118.601V17.6903H114.067V16.5824ZM123.74 20.1278C123.212 20.1278 122.74 19.9929 122.326 19.723C121.914 19.4503 121.59 19.0625 121.354 18.5597C121.121 18.054 121.005 17.4474 121.005 16.7401C121.005 16.0327 121.123 15.4276 121.358 14.9247C121.597 14.4219 121.924 14.0369 122.338 13.7699C122.753 13.5028 123.223 13.3693 123.749 13.3693C124.155 13.3693 124.482 13.4375 124.729 13.5739C124.979 13.7074 125.172 13.8636 125.309 14.0426C125.448 14.2216 125.556 14.3793 125.632 14.5156H125.709V11.2727H126.983V20H125.739V18.9815H125.632C125.556 19.1207 125.445 19.2798 125.3 19.4588C125.158 19.6378 124.962 19.794 124.712 19.9276C124.462 20.0611 124.138 20.1278 123.74 20.1278ZM124.022 19.0412C124.388 19.0412 124.698 18.9446 124.951 18.7514C125.206 18.5554 125.4 18.2841 125.53 17.9375C125.664 17.5909 125.73 17.1875 125.73 16.7273C125.73 16.2727 125.665 15.875 125.534 15.5341C125.404 15.1932 125.212 14.9276 124.959 14.7372C124.706 14.5469 124.394 14.4517 124.022 14.4517C123.638 14.4517 123.319 14.5511 123.063 14.75C122.807 14.9489 122.614 15.2202 122.483 15.5639C122.355 15.9077 122.292 16.2955 122.292 16.7273C122.292 17.1648 122.357 17.5582 122.488 17.9077C122.618 18.2571 122.811 18.5341 123.067 18.7386C123.326 18.9403 123.644 19.0412 124.022 19.0412ZM128.802 20V13.4545H130.076V20H128.802Z" fill="#344054"/>
<rect x="2.5" y="1.5" width="147" height="29" rx="5.5" stroke="#D0D5DD"/>
</g>
<defs>
<filter id="filter0_d_13438_177149" x="0" y="0" width="152" height="34" filterUnits="userSpaceOnUse" color-interpolation-filters="sRGB">
<feFlood flood-opacity="0" result="BackgroundImageFix"/>
<feColorMatrix in="SourceAlpha" type="matrix" values="0 0 0 0 0 0 0 0 0 0 0 0 0 0 0 0 0 0 127 0" result="hardAlpha"/>
<feOffset dy="1"/>
<feGaussianBlur stdDeviation="1"/>
<feComposite in2="hardAlpha" operator="out"/>
<feColorMatrix type="matrix" values="0 0 0 0 0.0627451 0 0 0 0 0.0941176 0 0 0 0 0.156863 0 0 0 0.05 0"/>
<feBlend mode="normal" in2="BackgroundImageFix" result="effect1_dropShadow_13438_177149"/>
<feBlend mode="normal" in="SourceGraphic" in2="effect1_dropShadow_13438_177149" result="shape"/>
</filter>
</defs>
</svg>
