<svg width="24" height="24" viewBox="0 0 24 24" fill="none" xmlns="http://www.w3.org/2000/svg">
<g clip-path="url(#clip0_5_62949)">
<path d="M7.03125 15.5156C7.03125 13.9647 5.76965 12.7031 4.21875 12.7031C2.66785 12.7031 1.40625 13.9647 1.40625 15.5156C1.40625 17.0665 2.66785 18.3281 4.21875 18.3281C5.76965 18.3281 7.03125 17.0665 7.03125 15.5156ZM4.21875 16.9219C3.4433 16.9219 2.8125 16.2911 2.8125 15.5156C2.8125 14.7402 3.4433 14.1094 4.21875 14.1094C4.9942 14.1094 5.625 14.7402 5.625 15.5156C5.625 16.2911 4.9942 16.9219 4.21875 16.9219Z" fill="currentColor"/>
<path d="M22.5938 15.5156C22.5938 13.9647 21.3322 12.7031 19.7812 12.7031C18.2303 12.7031 16.9688 13.9647 16.9688 15.5156C16.9688 17.0665 18.2303 18.3281 19.7812 18.3281C21.3322 18.3281 22.5938 17.0665 22.5938 15.5156ZM19.7812 16.9219C19.0058 16.9219 18.375 16.2911 18.375 15.5156C18.375 14.7402 19.0058 14.1094 19.7812 14.1094C20.5567 14.1094 21.1875 14.7402 21.1875 15.5156C21.1875 16.2911 20.5567 16.9219 19.7812 16.9219Z" fill="currentColor"/>
<path d="M19.7812 18.3281C19.0093 18.3281 18.2679 18.5391 17.6202 18.934L12.7031 15.8311V11.2969H16.2188V9.89062C16.2188 7.5509 14.324 5.625 12 5.625C9.67731 5.625 7.78125 7.54926 7.78125 9.89062V11.2969H11.2969V15.8311L6.37976 18.934C5.73212 18.5391 4.99072 18.3281 4.21875 18.3281C1.89606 18.3281 0 20.2524 0 22.5938V24H8.4375V22.5938C8.4375 21.6048 8.10095 20.6631 7.48242 19.901L12 17.0502L16.5176 19.901C15.899 20.6631 15.5625 21.6048 15.5625 22.5938V24H24V22.5938C24 20.254 22.1052 18.3281 19.7812 18.3281ZM12 7.03125C13.5509 7.03125 14.8125 8.3139 14.8125 9.89062H9.1875C9.1875 8.3139 10.4491 7.03125 12 7.03125ZM1.40625 22.5938C1.40625 21.017 2.66785 19.7344 4.21875 19.7344C5.76965 19.7344 7.03125 21.017 7.03125 22.5938H1.40625ZM16.9688 22.5938C16.9688 21.017 18.2303 19.7344 19.7812 19.7344C21.3322 19.7344 22.5938 21.017 22.5938 22.5938H16.9688Z" fill="currentColor"/>
<path d="M14.8125 2.8125C14.8125 1.2616 13.5509 0 12 0C10.4491 0 9.1875 1.2616 9.1875 2.8125C9.1875 4.3634 10.4491 5.625 12 5.625C13.5509 5.625 14.8125 4.3634 14.8125 2.8125ZM12 4.21875C11.2245 4.21875 10.5938 3.58795 10.5938 2.8125C10.5938 2.03705 11.2245 1.40625 12 1.40625C12.7755 1.40625 13.4062 2.03705 13.4062 2.8125C13.4062 3.58795 12.7755 4.21875 12 4.21875Z" fill="currentColor"/>
</g>
<defs>
<clipPath id="clip0_5_62949">
<rect width="24" height="24" fill="white"/>
</clipPath>
</defs>
</svg>
