<svg width="24" height="24" viewBox="0 0 24 24" fill="none" xmlns="http://www.w3.org/2000/svg">
<path d="M8.26205 20.1037C7.97279 20.3909 7.63023 20.6178 7.25393 20.7716C6.87763 20.9254 6.47496 21.003 6.06892 20.9999C5.66288 20.9968 5.26141 20.9132 4.88743 20.7538C4.51346 20.5943 4.17431 20.3622 3.88934 20.0707C3.60437 19.7791 3.37917 19.4339 3.22659 19.0546C3.07401 18.6754 2.99705 18.2695 3.00009 17.8603C3.00313 17.451 3.08611 17.0464 3.24431 16.6695C3.4025 16.2926 3.6328 15.9508 3.92207 15.6635L12.7824 4.47275C13.2251 4.0101 13.7553 3.64145 14.3416 3.38852C14.9278 3.1356 15.5584 3.00352 16.1962 3.00007C16.8339 2.99662 17.4658 3.12188 18.0548 3.36845C18.6437 3.61502 19.1777 3.97792 19.6254 4.43576C20.073 4.8936 20.4251 5.43712 20.661 6.03428C20.8969 6.63144 21.0119 7.27015 20.999 7.91278C20.9862 8.5554 20.8458 9.18894 20.5863 9.77604C20.3267 10.3631 19.9531 10.8919 19.4876 11.3312L8.26205 20.1037Z" stroke="#D6BBFB" stroke-width="1.5" stroke-linecap="round" stroke-linejoin="round"/>
<path d="M6.59172 18.5952C7.25722 18.5952 7.79672 18.0549 7.79672 17.3884C7.79672 16.7219 7.25722 16.1816 6.59172 16.1816C5.92622 16.1816 5.38672 16.7219 5.38672 17.3884C5.38672 18.0549 5.92622 18.5952 6.59172 18.5952Z" stroke="#D6BBFB" stroke-width="1.5" stroke-linecap="round" stroke-linejoin="round"/>
<path d="M16.1836 10.1474C17.5173 10.1474 18.5986 9.06682 18.5986 7.73386C18.5986 6.40089 17.5173 5.32031 16.1836 5.32031C14.8498 5.32031 13.7686 6.40089 13.7686 7.73386C13.7686 9.06682 14.8498 10.1474 16.1836 10.1474Z" stroke="#D6BBFB" stroke-width="1.5" stroke-linecap="round" stroke-linejoin="round"/>
</svg>
