<svg width="24" height="24" viewBox="0 0 24 24" fill="none" xmlns="http://www.w3.org/2000/svg">
<g clip-path="url(#clip0_5_63136)">
<path d="M12.0002 16.7211C9.39695 16.7211 7.27832 14.6024 7.27832 11.9992C7.27832 9.39601 9.39695 7.27734 12.0002 7.27734C14.6034 7.27734 16.7221 9.39601 16.7221 11.9992C16.7221 14.6024 14.6034 16.7211 12.0002 16.7211ZM12.0002 7.68359C9.62006 7.68359 7.68457 9.61914 7.68457 11.9992C7.68457 14.3793 9.62012 16.3148 12.0002 16.3148C14.3803 16.3148 16.3158 14.3793 16.3158 11.9992C16.3158 9.61914 14.3803 7.68359 12.0002 7.68359Z" stroke="currentColor"/>
<path fill-rule="evenodd" clip-rule="evenodd" d="M16.4122 3.31531C15.9456 3.07758 15.4609 2.87816 14.9625 2.71894V2.20936C14.9625 0.991125 13.9714 0 12.7531 0H11.2469C10.0286 0 9.0375 0.991125 9.0375 2.20936V2.71889C8.51958 2.88441 8.01638 3.09328 7.53295 3.34341L7.17216 2.98261C6.2992 2.10867 4.89848 2.12995 4.04728 2.98233L2.98261 4.04695C2.1315 4.89712 2.10736 6.29784 2.98233 7.17188L3.34345 7.53295C3.09328 8.01638 2.88445 8.51953 2.71894 9.0375H2.20941C0.991172 9.0375 0 10.0286 0 11.2469V12.7531C0 13.9714 0.991172 14.9625 2.20936 14.9625H2.71889C2.88441 15.4805 3.09323 15.9836 3.34341 16.467L2.98256 16.8279C2.10708 17.7024 2.13155 19.103 2.98228 19.9528L4.04686 21.0173C4.89609 21.8677 6.29714 21.8934 7.17178 21.0177L7.53291 20.6565C8.01633 20.9067 8.51953 21.1156 9.03745 21.2811V21.7906C9.03745 23.0089 10.0286 24 11.2469 24H12.7531C13.9714 24 14.9625 23.0089 14.9625 21.7907V21.2812C15.4804 21.1156 15.9836 20.9068 16.467 20.6566L16.8278 21.0174C17.7008 21.8914 19.1015 21.8701 19.9527 21.0177L21.0174 19.9531C21.8685 19.1029 21.8926 17.7022 21.0177 16.8282L20.6565 16.467C20.9067 15.9836 21.1155 15.4805 21.2811 14.9625H21.7906C23.0088 14.9625 24 13.9714 24 12.7531V11.2469C24 10.0286 23.0088 9.0375 21.7906 9.0375H21.2811C21.1207 8.53561 20.9197 8.04772 20.6798 7.57817L19.6252 8.63278C19.8088 9.04739 19.9582 9.47659 20.0717 9.91641C20.1518 10.2269 20.4318 10.4438 20.7525 10.4438H21.7906C22.2335 10.4438 22.5938 10.8041 22.5938 11.2469V12.7532C22.5938 13.196 22.2335 13.5563 21.7906 13.5563H20.7525C20.4319 13.5563 20.1518 13.7732 20.0717 14.0837C19.8771 14.8377 19.5771 15.5605 19.1799 16.232C19.0166 16.5083 19.061 16.8601 19.288 17.0871L20.0237 17.8228C20.3422 18.141 20.3319 18.6502 20.0234 18.9584L18.9581 20.0236C18.6488 20.3334 18.1396 20.3407 17.8226 20.0233L17.0872 19.2879C16.8602 19.0609 16.5084 19.0164 16.2321 19.1798C15.5605 19.577 14.8377 19.8771 14.0837 20.0716C13.7732 20.1518 13.5563 20.4318 13.5563 20.7525V21.7906C13.5563 22.2335 13.196 22.5938 12.7531 22.5938H11.2469C10.8041 22.5938 10.4438 22.2335 10.4438 21.7906V20.7525C10.4438 20.4318 10.2268 20.1518 9.91631 20.0716C9.16238 19.8771 8.43956 19.577 7.76798 19.1798C7.428 18.9788 7.08005 19.1206 6.9128 19.2878L6.17714 20.0235C5.85961 20.3415 5.35036 20.3325 5.04159 20.0233L3.97636 18.958C3.66703 18.6491 3.65873 18.14 3.97664 17.8225L4.71206 17.0871C4.93903 16.8601 4.98347 16.5083 4.82011 16.232C4.42298 15.5604 4.12294 14.8376 3.92836 14.0836C3.8482 13.7732 3.56822 13.5563 3.24755 13.5563H2.20941C1.76658 13.5563 1.40625 13.196 1.40625 12.7531V11.2469C1.40625 10.804 1.76658 10.4437 2.20941 10.4437H3.24759C3.56822 10.4437 3.84825 10.2268 3.92841 9.91631C4.12298 9.16233 4.42298 8.43952 4.82016 7.76798C4.98352 7.4917 4.93908 7.13986 4.71211 6.91289L3.97641 6.17719C3.65784 5.859 3.66816 5.3498 3.97669 5.04164L5.04202 3.97636C5.35125 3.66661 5.86045 3.65925 6.17752 3.97669L6.91289 4.71211C7.13986 4.93908 7.49166 4.98352 7.76803 4.82016C8.43961 4.42298 9.16242 4.12294 9.91636 3.92836C10.2269 3.84825 10.4438 3.56822 10.4438 3.24755V2.20936C10.4438 1.76653 10.8041 1.40625 11.247 1.40625H12.7532C13.196 1.40625 13.5563 1.76653 13.5563 2.20936V3.24764C13.5563 3.56831 13.7733 3.84834 14.0838 3.92845C14.5199 4.04102 14.9457 4.18888 15.3571 4.37042L16.4122 3.31531Z" fill="currentColor"/>
<path d="M17 7L23 1M23 1H17M23 1V7" stroke="currentColor" stroke-width="1.5" stroke-linecap="round" stroke-linejoin="round"/>
</g>
<defs>
<clipPath id="clip0_5_63136">
<rect width="24" height="24" fill="white"/>
</clipPath>
</defs>
</svg>
