<svg width="20" height="20" viewBox="0 0 20 20" fill="none" xmlns="http://www.w3.org/2000/svg">
<g clip-path="url(#clip0_13438_177500)">
<path d="M18.8629 3.75763C18.7728 3.70831 18.6724 3.68581 18.5718 3.6924C18.4713 3.69899 18.374 3.73444 18.29 3.79516L12.8645 7.76159V4.31443C12.8647 4.19544 12.8338 4.07887 12.7754 3.97839C12.7171 3.8779 12.6337 3.79767 12.5351 3.7471C12.4364 3.69653 12.3266 3.67773 12.2186 3.69289C12.1105 3.70805 12.0086 3.75655 11.9249 3.8327L7.41033 7.90549H5.41658V2.03717C5.41982 1.89255 5.37706 1.75118 5.29558 1.63711C5.21411 1.52304 5.09895 1.44333 4.96971 1.41155L2.67804 0.848492C2.59349 0.827774 2.50574 0.828271 2.42138 0.849944C2.33703 0.871617 2.25828 0.913902 2.19106 0.973616C2.12228 1.03446 2.06735 1.11188 2.03057 1.1998C1.99379 1.28773 1.97617 1.38376 1.97908 1.48037V7.90549H1.40617C1.25422 7.90549 1.1085 7.9714 1.00106 8.08873C0.893613 8.20605 0.833252 8.36518 0.833252 8.53111V18.541C0.833252 18.707 0.893613 18.8661 1.00106 18.9834C1.1085 19.1007 1.25422 19.1666 1.40617 19.1666H18.5937C18.7456 19.1666 18.8913 19.1007 18.9988 18.9834C19.1062 18.8661 19.1666 18.707 19.1666 18.541V4.31443C19.1673 4.20019 19.1394 4.0879 19.0859 3.98975C19.0324 3.89159 18.9553 3.81132 18.8629 3.75763ZM3.12492 2.27491L4.27075 2.55018V7.90549H3.12492V2.27491ZM18.0207 17.9154H1.97908V9.15673H7.61085C7.74471 9.15701 7.87444 9.1061 7.97752 9.01283L11.7187 5.63449V8.93776C11.7185 9.05141 11.7467 9.16297 11.8002 9.26044C11.8538 9.35792 11.9306 9.43763 12.0225 9.49101C12.1144 9.5444 12.2178 9.56944 12.3218 9.56345C12.4257 9.55746 12.5262 9.52067 12.6124 9.45702L18.0207 5.49059V17.9154Z" fill="#344054"/>
<path d="M3.33325 10.8333H7.7777V11.9444H3.33325V10.8333ZM3.33325 13.0555H7.7777V14.1666H3.33325V13.0555ZM3.33325 15.2778H7.7777V16.3889H3.33325V15.2778ZM10.5555 11.3889H11.6666V13.0555H10.5555V11.3889ZM10.5555 14.7222H11.6666V16.3889H10.5555V14.7222ZM12.7777 11.3889H13.8888V13.0555H12.7777V11.3889ZM12.7777 14.7222H13.8888V16.3889H12.7777V14.7222ZM14.9999 11.3889H16.111V13.0555H14.9999V11.3889ZM14.9999 14.7222H16.111V16.3889H14.9999V14.7222Z" fill="#344054"/>
</g>
<defs>
<clipPath id="clip0_13438_177500">
<rect width="20" height="20" fill="white"/>
</clipPath>
</defs>
</svg>
