<svg width="25" height="24" viewBox="0 0 25 24" fill="none" xmlns="http://www.w3.org/2000/svg">
<path d="M16.542 18.3745H14.667V17.2424C15.1321 16.8941 15.5098 16.4425 15.7702 15.923C16.0306 15.4035 16.1664 14.8306 16.167 14.2495H16.3545C16.686 14.2502 17.0054 14.1251 17.2483 13.8995C17.4911 13.6739 17.6394 13.3646 17.6632 13.034C17.687 12.7034 17.5845 12.376 17.3764 12.118C17.1683 11.86 16.8701 11.6905 16.542 11.6437V8.24951C16.542 7.85171 16.384 7.47017 16.1027 7.18883C15.8213 6.90755 15.4398 6.74951 15.042 6.74951H9.79199C9.39419 6.74951 9.01265 6.90755 8.73131 7.18883C8.45003 7.47017 8.29199 7.85171 8.29199 8.24951V11.6437C7.96385 11.6905 7.66565 11.86 7.45757 12.118C7.24949 12.376 7.14701 12.7034 7.17077 13.034C7.19459 13.3646 7.34285 13.6739 7.58573 13.8995C7.82861 14.1251 8.14799 14.2502 8.47949 14.2495H8.66699C8.66759 14.8306 8.80343 15.4035 9.06383 15.923C9.32417 16.4425 9.70187 16.8941 10.167 17.2424V18.3745H8.29199C6.99953 18.376 5.76041 18.8901 4.84649 19.804C3.93257 20.7179 3.41848 21.9571 3.41699 23.2495C3.41699 23.349 3.4565 23.4443 3.52683 23.5147C3.59715 23.585 3.69254 23.6245 3.79199 23.6245H21.042C21.1415 23.6245 21.2368 23.585 21.3071 23.5147C21.3775 23.4443 21.417 23.349 21.417 23.2495C21.4155 21.9571 20.9014 20.7179 19.9875 19.804C19.0736 18.8901 17.8345 18.376 16.542 18.3745ZM16.917 12.937C16.917 13.0862 16.8577 13.2293 16.7522 13.3348C16.6468 13.4402 16.5037 13.4995 16.3545 13.4995H16.167V12.3745H16.3545C16.5037 12.3745 16.6468 12.4338 16.7522 12.5393C16.8577 12.6448 16.917 12.7879 16.917 12.937ZM8.47949 13.4995C8.33033 13.4995 8.18723 13.4402 8.08175 13.3348C7.97627 13.2293 7.91699 13.0862 7.91699 12.937C7.91699 12.7879 7.97627 12.6448 8.08175 12.5393C8.18723 12.4338 8.33033 12.3745 8.47949 12.3745H8.66699V13.4995H8.47949ZM9.04199 8.24951C9.04199 8.05061 9.12101 7.85981 9.26165 7.71917C9.40229 7.57853 9.59309 7.49951 9.79199 7.49951H15.042C15.2409 7.49951 15.4317 7.57853 15.5723 7.71917C15.713 7.85981 15.792 8.05061 15.792 8.24951V11.6245H15.042C14.9425 11.6245 14.8472 11.585 14.7769 11.5147C14.7065 11.4443 14.667 11.349 14.667 11.2495V10.1245C14.667 10.065 14.6529 10.0064 14.6257 9.95345C14.5986 9.90047 14.5593 9.85475 14.511 9.82001C14.4629 9.78509 14.4072 9.76223 14.3485 9.75335C14.2897 9.74453 14.2297 9.74987 14.1735 9.76901L13.2683 10.069L13.0571 9.85829C12.9866 9.78833 12.8913 9.74921 12.792 9.74951H10.542C10.4425 9.74951 10.3472 9.78899 10.2769 9.85937C10.2065 9.92969 10.167 10.025 10.167 10.1245V11.2495C10.167 11.349 10.1275 11.4443 10.0571 11.5147C9.98681 11.585 9.89147 11.6245 9.79199 11.6245H9.04199V8.24951ZM9.41699 14.2495V12.3745H9.79199C10.0904 12.3745 10.3765 12.256 10.5875 12.045C10.7985 11.834 10.917 11.5479 10.917 11.2495V10.4995H12.6367L12.9019 10.7647C12.9511 10.8138 13.0131 10.8484 13.0808 10.8643C13.1486 10.8803 13.2194 10.877 13.2855 10.855L13.917 10.645V11.2495C13.917 11.5479 14.0355 11.834 14.2465 12.045C14.4575 12.256 14.7436 12.3745 15.042 12.3745H15.417V14.2495C15.417 15.0452 15.1009 15.8083 14.5383 16.3708C13.9757 16.9334 13.2127 17.2495 12.417 17.2495C11.6213 17.2495 10.8583 16.9334 10.2957 16.3708C9.73307 15.8083 9.41699 15.0452 9.41699 14.2495ZM12.417 17.9995C12.9335 17.9996 13.4443 17.8922 13.917 17.6842V18.5868C13.5198 18.9349 13.0093 19.1261 12.4811 19.1245H12.3529C11.8247 19.1261 11.3142 18.9349 10.917 18.5868V17.6842C11.3897 17.8922 11.9005 17.9996 12.417 17.9995ZM4.18387 22.8745C4.27866 21.8501 4.75232 20.898 5.51213 20.2044C6.27194 19.5108 7.26323 19.1257 8.29199 19.1245H10.398C10.9341 19.6082 11.6308 19.8755 12.3529 19.8745H12.4811C13.2032 19.8755 13.8999 19.6082 14.436 19.1245H16.542C17.5708 19.1257 18.5621 19.5108 19.3219 20.2044C20.0817 20.898 20.5553 21.8501 20.6501 22.8745H4.18387Z" fill="#667085"/>
<path d="M15.3981 2.50636C15.3733 2.43165 15.3255 2.36668 15.2616 2.32064C15.1977 2.2746 15.121 2.24984 15.0422 2.24986H13.4211L12.7656 0.610731C12.7378 0.541022 12.6898 0.481247 12.6277 0.439135C12.5656 0.397023 12.4923 0.374512 12.4172 0.374512C12.3422 0.374512 12.2689 0.397023 12.2068 0.439135C12.1447 0.481247 12.0967 0.541022 12.0689 0.610731L11.4134 2.24986H9.79224C9.71352 2.24986 9.63684 2.27462 9.573 2.32064C9.5091 2.36666 9.4614 2.4316 9.4365 2.50627C9.4116 2.58094 9.41082 2.66154 9.43428 2.73667C9.45774 2.81179 9.5043 2.87763 9.56724 2.92486L10.8374 3.87736L10.1939 5.48573C10.1647 5.55865 10.1592 5.63888 10.1781 5.71509C10.197 5.79131 10.2394 5.85967 10.2992 5.91054C10.359 5.96141 10.4333 5.99222 10.5115 5.99862C10.5898 6.00502 10.6681 5.9867 10.7354 5.94623L12.4172 4.93711L14.0991 5.94623C14.1664 5.9867 14.2447 6.00502 14.323 5.99862C14.4012 5.99222 14.4755 5.96141 14.5353 5.91054C14.5951 5.85967 14.6375 5.79131 14.6564 5.71509C14.6753 5.63888 14.6698 5.55865 14.6406 5.48573L13.9971 3.87736L15.2672 2.92486C15.3302 2.87766 15.3767 2.81184 15.4002 2.73673C15.4237 2.66162 15.423 2.58102 15.3981 2.50636ZM13.1939 3.88898L13.5314 4.73048L12.6111 4.17848C12.5528 4.14344 12.4861 4.12493 12.418 4.12493C12.3499 4.12493 12.2832 4.14344 12.2249 4.17848L11.3046 4.73048L11.6421 3.88898C11.6725 3.81225 11.6768 3.72762 11.6542 3.64822C11.6316 3.56883 11.5835 3.49911 11.5172 3.44986L10.9172 2.99986H11.6672C11.7422 2.99988 11.8155 2.97742 11.8776 2.93538C11.9397 2.89333 11.9878 2.83363 12.0156 2.76398L12.4172 1.75936L12.8189 2.76398C12.8467 2.83363 12.8948 2.89333 12.9569 2.93538C13.019 2.97742 13.0922 2.99988 13.1672 2.99986H13.9172L13.3172 3.44986C13.2512 3.4993 13.2034 3.56912 13.1811 3.64851C13.1588 3.72789 13.1633 3.8124 13.1939 3.88898Z" fill="#667085"/>
<path d="M5.47386 14.9462C5.54116 14.9867 5.61945 15.005 5.69772 14.9986C5.77598 14.9923 5.85026 14.9614 5.91007 14.9105C5.96989 14.8597 6.01223 14.7913 6.03112 14.7151C6.05001 14.6389 6.0445 14.5586 6.01536 14.4857L5.37187 12.8774L6.64199 11.9249C6.70493 11.8777 6.75149 11.8118 6.77495 11.7367C6.79841 11.6615 6.79763 11.581 6.77273 11.5063C6.74783 11.4316 6.70013 11.3667 6.63623 11.3207C6.57239 11.2747 6.49571 11.2499 6.41699 11.2499H4.79587L4.14036 9.61073C4.1126 9.54101 4.06455 9.48125 4.00245 9.43913C3.94034 9.39701 3.86703 9.37451 3.79199 9.37451C3.71696 9.37451 3.64364 9.39701 3.58154 9.43913C3.51943 9.48125 3.47139 9.54101 3.44362 9.61073L2.78811 11.2499H1.16699C1.08828 11.2499 1.01158 11.2747 0.947726 11.3207C0.883876 11.3667 0.836125 11.4316 0.811236 11.5063C0.786347 11.581 0.785582 11.6615 0.80905 11.7367C0.832518 11.8118 0.879028 11.8777 0.941992 11.9249L2.21212 12.8774L1.56862 14.4857C1.53948 14.5586 1.53397 14.6389 1.55286 14.7151C1.57175 14.7913 1.61409 14.8597 1.67391 14.9105C1.73373 14.9614 1.80801 14.9923 1.88627 14.9986C1.96453 15.005 2.04282 14.9867 2.11011 14.9462L3.79199 13.9371L5.47386 14.9462ZM2.67862 13.7305L3.01612 12.889C3.04661 12.8123 3.05097 12.7277 3.02853 12.6484C3.00609 12.569 2.95811 12.4992 2.89199 12.4499L2.29199 11.9999H3.04199C3.11699 11.9999 3.19027 11.9774 3.25238 11.9354C3.31448 11.8933 3.36254 11.8336 3.39036 11.764L3.79199 10.7594L4.19362 11.764C4.22144 11.8336 4.26951 11.8933 4.33161 11.9354C4.39371 11.9774 4.46699 11.9999 4.54199 11.9999H5.29199L4.69199 12.4499C4.62601 12.4993 4.57817 12.5692 4.55586 12.6485C4.53356 12.7279 4.53804 12.8124 4.56862 12.889L4.90611 13.7305L3.98512 13.1785C3.92679 13.1435 3.86003 13.1249 3.79199 13.1249C3.72395 13.1249 3.65719 13.1435 3.59886 13.1785L2.67862 13.7305Z" fill="#667085"/>
<path d="M23.667 11.2499H22.0459L21.3904 9.61073C21.3626 9.54101 21.3146 9.48125 21.2525 9.43913C21.1903 9.39701 21.1171 9.37451 21.042 9.37451C20.9669 9.37451 20.8937 9.39701 20.8315 9.43913C20.7694 9.48125 20.7214 9.54101 20.6936 9.61073L20.0381 11.2499H18.417C18.3383 11.2499 18.2616 11.2747 18.1978 11.3207C18.1339 11.3667 18.0862 11.4316 18.0613 11.5063C18.0364 11.581 18.0356 11.6615 18.059 11.7367C18.0825 11.8118 18.1291 11.8777 18.192 11.9249L19.4621 12.8774L18.8186 14.4857C18.7895 14.5586 18.784 14.6389 18.8029 14.7151C18.8218 14.7913 18.8641 14.8597 18.9239 14.9105C18.9838 14.9614 19.058 14.9923 19.1363 14.9986C19.2145 15.005 19.2928 14.9867 19.3601 14.9462L21.042 13.9371L22.7239 14.9462C22.7912 14.9867 22.8695 15.005 22.9477 14.9986C23.026 14.9923 23.1002 14.9614 23.1601 14.9105C23.2199 14.8597 23.2622 14.7913 23.2811 14.7151C23.3 14.6389 23.2945 14.5586 23.2654 14.4857L22.6219 12.8774L23.892 11.9249C23.9549 11.8777 24.0015 11.8118 24.025 11.7367C24.0484 11.6615 24.0476 11.581 24.0227 11.5063C23.9978 11.4316 23.9501 11.3667 23.8862 11.3207C23.8224 11.2747 23.7457 11.2499 23.667 11.2499ZM21.8186 12.889L22.1561 13.7305L21.2359 13.1785C21.1775 13.1435 21.1108 13.1249 21.0427 13.1249C20.9747 13.1249 20.908 13.1435 20.8496 13.1785L19.9294 13.7305L20.2669 12.889C20.2973 12.8123 20.3015 12.7276 20.279 12.6482C20.2564 12.5689 20.2082 12.4991 20.142 12.4499L19.542 11.9999H20.292C20.367 11.9999 20.4403 11.9774 20.5024 11.9354C20.5645 11.8933 20.6126 11.8336 20.6404 11.764L21.042 10.7594L21.4436 11.764C21.4714 11.8336 21.5195 11.8933 21.5816 11.9354C21.6437 11.9774 21.717 11.9999 21.792 11.9999H22.542L21.942 12.4499C21.876 12.4993 21.8282 12.5692 21.8059 12.6485C21.7835 12.7279 21.788 12.8124 21.8186 12.889Z" fill="#667085"/>
<path d="M3.63013 8.5434L4.36213 8.70612C4.61808 7.55646 5.11724 6.4749 5.82603 5.5342C6.53484 4.59352 7.43682 3.81551 8.4714 3.25249L8.11212 2.59399C6.9837 3.20828 5.99985 4.05705 5.22676 5.08324C4.45367 6.10944 3.90926 7.28928 3.63013 8.5434Z" fill="#667085"/>
<path d="M16.722 2.59399L16.3628 3.25249C17.3973 3.81551 18.2994 4.59352 19.0081 5.5342C19.7169 6.4749 20.2161 7.55646 20.472 8.70612L21.204 8.5434C20.9249 7.28928 20.3805 6.10944 19.6074 5.08324C18.8343 4.05705 17.8505 3.20828 16.722 2.59399Z" fill="#667085"/>
</svg>
