<svg width="25" height="27" viewBox="0 0 25 27" fill="none" xmlns="http://www.w3.org/2000/svg">
<path d="M17.8035 19.0553C17.8035 20.0989 17.6035 21.1323 17.2148 22.0964C16.8261 23.0605 16.2564 23.9365 15.5382 24.6743C14.82 25.412 13.9675 25.9972 13.0292 26.3963C12.0909 26.7953 11.0853 27.0005 10.0699 27.0001V23.6393C10.8734 23.6474 11.6655 23.4432 12.3702 23.0463C13.0502 22.6641 13.6149 22.0972 14.0026 21.4075C14.391 20.6959 14.595 19.8938 14.595 19.0779C14.595 18.262 14.391 17.4598 14.0026 16.7483C13.6154 16.0592 13.0505 15.4934 12.3702 15.1134C11.6548 14.7266 10.8586 14.5244 10.0503 14.5244C9.24189 14.5244 8.44567 14.7266 7.73031 15.1134C7.05236 15.4912 6.48948 16.0546 6.10408 16.7412C5.83213 17.2234 5.65151 17.7542 5.57176 18.3056C4.39945 17.5313 3.43516 16.4668 2.7674 15.2098C2.09964 13.9527 1.7498 12.5435 1.75 11.1113H10.0699C11.0853 11.1108 12.0909 11.3159 13.0291 11.7149C13.9674 12.1139 14.82 12.699 15.5382 13.4367C16.2564 14.1744 16.8261 15.0503 17.2148 16.0144C17.6035 16.9784 17.8035 18.0118 17.8035 19.0553Z" fill="#FAC515"/>
<path d="M17.8037 12.3324V8.66602H23.7501L17.8037 12.3324Z" fill="#FAC515"/>
<path d="M11.6663 20.7792C11.2493 21.2151 10.718 21.435 10.0724 21.4386H10.0563C9.40299 21.4386 8.8663 21.2188 8.4462 20.7792C8.08015 20.392 7.86146 19.8827 7.82991 19.3438C7.82221 19.2559 7.81836 19.1664 7.81836 19.0738C7.81836 18.3771 8.02841 17.8089 8.44851 17.3693C8.86862 16.9296 9.4053 16.7095 10.0586 16.709C10.7118 16.709 11.2485 16.9291 11.6686 17.3693C12.0887 17.8095 12.2988 18.3776 12.2988 19.0738C12.2972 19.7721 12.0864 20.3405 11.6663 20.7792Z" fill="#FAC515"/>
<path d="M18.9375 3.37943C18.9375 2.96881 18.6576 2.63482 18.3134 2.63482C17.9692 2.63482 17.6893 2.96881 17.6893 3.37943C17.6893 3.51318 17.7194 3.63845 17.7714 3.74702L14.9862 5.07622L13.9168 2.52469C14.2525 2.31993 14.4829 1.9034 14.4829 1.42362C14.4829 0.741997 14.0181 0.1875 13.4468 0.1875C12.8755 0.1875 12.4107 0.742047 12.4107 1.42362C12.4107 1.9034 12.6412 2.31988 12.9768 2.52469L11.9075 5.07622L9.1073 3.7399C9.15711 3.63298 9.18569 3.51017 9.18569 3.37943C9.18569 2.96881 8.90575 2.63482 8.56157 2.63482C8.2174 2.63482 7.9375 2.96881 7.9375 3.37943C7.9375 3.68112 8.08891 3.94095 8.30563 4.05779L9.70766 8.20215C9.75579 8.34442 9.87143 8.4375 10 8.4375H16.9356C17.0653 8.4375 17.1818 8.34262 17.2291 8.19849L18.5924 4.04445C18.7967 3.92199 18.9375 3.67024 18.9375 3.37943Z" fill="#FAC515"/>
</svg>
