<svg width="44" height="44" viewBox="0 0 44 44" fill="none" xmlns="http://www.w3.org/2000/svg">
<path d="M32.0527 1.936L32.5325 3.3555L34.1401 3.5889L34.5641 5.21685L36.3446 4.97899L36.9097 6.80136L38.5846 6.76871L39.43 8.44725L38.7561 8.72567L38.1217 7.46836L36.36 7.50369L35.8168 5.75221L34.0061 5.99737L33.5366 4.20067L31.9705 3.97554L31.5212 2.65527L30.4616 2.7039L30.4047 2.01393L32.0527 1.936Z" fill="url(#paint0_linear_2023_105814)"/>
<path d="M2.95577 9.77617L2.86171 8.54923L4.74729 8.16595L4.82499 6.34073L6.19167 5.81674L5.93464 5.09402L4.10536 5.79737L4.03646 7.52853L2.07411 7.92479L2.21848 9.77614L2.95577 9.77617Z" fill="url(#paint1_linear_2023_105814)"/>
<path d="M29.2109 41.6965L28.7569 42.4686L26.8701 42.107L26.0117 43.182L24.5292 43.0696L24.4512 43.5876L26.4232 43.7341L27.246 42.7178L29.2038 43.094L29.8848 41.9262L29.2109 41.6965Z" fill="url(#paint2_linear_2023_105814)"/>
<path d="M3.66621 32.552L4.07522 30.8207L2.20865 30.3864L2.52843 28.674L0.795707 28.0696L0.788273 26.7539H0L0.00743474 28.5166L1.65091 29.0895L1.31627 30.8774L3.16053 31.2992L2.78126 32.8667L3.66621 32.552Z" fill="url(#paint3_linear_2023_105814)"/>
<path d="M40.3108 17.1555L40.736 17.8715C40.7821 17.9499 40.8948 17.9395 40.9255 17.8558L41.2277 17.0771L42.0268 16.889C42.1139 16.8681 42.1395 16.7531 42.0729 16.6956L41.4378 16.1625L41.5095 15.3263C41.5197 15.2375 41.4224 15.1748 41.3456 15.227L40.654 15.6765L39.8959 15.3525C39.8139 15.3159 39.7269 15.3943 39.7525 15.4831L39.9574 16.2932L39.4195 16.9256C39.3632 16.9935 39.4042 17.1033 39.4964 17.1085L40.3108 17.1555Z" fill="url(#paint4_linear_2023_105814)"/>
<path d="M7.70926 41.6067L8.13443 42.3227C8.18053 42.4011 8.29322 42.3906 8.32396 42.307L8.62618 41.5283L9.42528 41.3402C9.51236 41.3192 9.53798 41.2043 9.47139 41.1468L8.8362 40.6137L8.90792 39.7775C8.91816 39.6887 8.82084 39.6259 8.744 39.6782L8.05247 40.1277L7.29435 39.8036C7.21239 39.7671 7.1253 39.8454 7.15091 39.9343L7.35581 40.7444L6.81795 41.3767C6.76161 41.4447 6.80259 41.5544 6.89479 41.5597L7.70926 41.6067Z" fill="url(#paint5_linear_2023_105814)"/>
<path d="M42.6514 29.4714L41.0497 30.5242L41.9434 32.0592L40.4103 33.1731L41.084 34.7421L40.0735 35.7609L40.5959 36.2635L41.9434 34.9051L41.304 33.4176L42.8989 32.263L42.019 30.7483L43.4695 29.7907L42.6514 29.4714Z" fill="url(#paint6_linear_2023_105814)"/>
<rect x="6.5" y="6.5" width="31" height="31" rx="15.5" fill="#EFEFEF"/>
<path fill-rule="evenodd" clip-rule="evenodd" d="M19.4625 26.7769C19.4883 26.7752 19.5142 26.7744 19.54 26.7744C19.8725 26.7744 20.1925 26.9069 20.4275 27.1444C20.6808 27.4002 20.8117 27.7536 20.7867 28.1127C20.675 29.6827 19.545 30.8036 17.9742 30.9011C17.9483 30.9027 17.9225 30.9036 17.8967 30.9036C17.5642 30.9036 17.2442 30.7711 17.0092 30.5336C16.7558 30.2777 16.625 29.9244 16.65 29.5652C16.7617 27.9952 17.8917 26.8744 19.4625 26.7769ZM19.5394 28.0244C19.4736 28.9586 18.8319 29.5952 17.8969 29.6536C17.9627 28.7186 18.6044 28.0827 19.5394 28.0244Z" fill="url(#paint7_linear_2023_105814)"/>
<path fill-rule="evenodd" clip-rule="evenodd" d="M13.1039 24.2772C13.6822 23.7663 14.3706 23.4963 15.0931 23.4963C15.8072 23.4963 16.4889 23.7605 17.0639 24.2605C17.3364 24.4972 17.4931 24.8397 17.4947 25.1997C17.4964 25.5605 17.3422 25.9038 17.0722 26.1422C16.4939 26.653 15.8064 26.923 15.0839 26.923C14.3697 26.923 13.6881 26.6588 13.1122 26.1588C12.8397 25.9222 12.6831 25.5797 12.6814 25.2197C12.6797 24.8588 12.8339 24.5155 13.1039 24.2772ZM16.246 25.2043C15.8943 24.8985 15.4935 24.746 15.0935 24.746C14.6893 24.746 14.2851 24.9018 13.9318 25.2135C14.2835 25.5193 14.6843 25.6718 15.0843 25.6718C15.4885 25.6718 15.8926 25.516 16.246 25.2043Z" fill="url(#paint8_linear_2023_105814)"/>
<path fill-rule="evenodd" clip-rule="evenodd" d="M12.8031 18.1772C13.0373 17.9497 13.3506 17.823 13.6748 17.823C13.7081 17.823 13.7414 17.8238 13.7748 17.8272C15.3564 17.953 16.4756 19.103 16.5598 20.688C16.5781 21.048 16.4414 21.398 16.1831 21.6497C15.9489 21.8772 15.6356 22.0038 15.3114 22.0038C15.2781 22.0038 15.2448 22.0022 15.2114 21.9997C13.6298 21.873 12.5106 20.7238 12.4264 19.1388C12.4081 18.7788 12.5448 18.4288 12.8031 18.1772ZM13.675 19.0731C14.6216 19.1489 15.2608 19.8056 15.3116 20.7539C14.365 20.6781 13.7258 20.0214 13.675 19.0731Z" fill="url(#paint9_linear_2023_105814)"/>
<path fill-rule="evenodd" clip-rule="evenodd" d="M16.3163 13.5194C16.5538 13.2511 16.8955 13.0969 17.2538 13.0969H17.2588C17.6188 13.0986 17.9613 13.2553 18.198 13.5286C19.2547 14.7453 19.248 16.3753 18.1813 17.5836C17.9438 17.8519 17.6022 18.0061 17.2438 18.0061H17.2388C16.878 18.0044 16.5363 17.8478 16.2997 17.5753C15.243 16.3586 15.2497 14.7286 16.3163 13.5194ZM17.2537 14.3471C17.8929 15.0838 17.8887 16.0246 17.2437 16.7563C16.6045 16.0196 16.6079 15.0788 17.2537 14.3471Z" fill="url(#paint10_linear_2023_105814)"/>
<path fill-rule="evenodd" clip-rule="evenodd" d="M23.5721 27.1447C23.8079 26.9072 24.1271 26.7747 24.4596 26.7747C24.4854 26.7747 24.5113 26.7755 24.5371 26.7772C26.1088 26.8747 27.2388 27.9955 27.3496 29.5655C27.3754 29.9247 27.2446 30.278 26.9904 30.5338C26.7546 30.7713 26.4354 30.9038 26.1029 30.9038C26.0771 30.9038 26.0513 30.903 26.0254 30.9013C24.4538 30.8038 23.3238 29.683 23.2129 28.113C23.1871 27.7538 23.3179 27.4005 23.5721 27.1447ZM24.4601 28.0246C25.3951 28.083 26.0368 28.7196 26.1026 29.6538C25.1676 29.5955 24.526 28.9588 24.4601 28.0246Z" fill="url(#paint11_linear_2023_105814)"/>
<path fill-rule="evenodd" clip-rule="evenodd" d="M26.9345 24.2605C27.5103 23.7605 28.192 23.4963 28.9062 23.4963C29.6287 23.4963 30.3162 23.7663 30.8945 24.2772C31.1645 24.5155 31.3187 24.8597 31.317 25.2197C31.3153 25.5805 31.1587 25.923 30.8862 26.1588C30.3103 26.6588 29.6287 26.923 28.9145 26.923C28.192 26.923 27.5045 26.653 26.9262 26.1422C26.6562 25.9038 26.502 25.5597 26.5037 25.1997C26.5053 24.8388 26.662 24.4963 26.9345 24.2605ZM30.0679 25.2135C29.7145 24.9018 29.3104 24.746 28.9062 24.746C28.5062 24.746 28.1054 24.8985 27.7537 25.2043C28.107 25.516 28.5112 25.6718 28.9154 25.6718C29.3154 25.6718 29.7162 25.5185 30.0679 25.2135Z" fill="url(#paint12_linear_2023_105814)"/>
<path fill-rule="evenodd" clip-rule="evenodd" d="M30.2245 17.8272C30.2578 17.8247 30.2912 17.823 30.3245 17.823C30.6487 17.823 30.962 17.9488 31.1962 18.1772C31.4545 18.428 31.592 18.7788 31.5728 19.1388C31.4887 20.7238 30.3695 21.873 28.7878 21.9997C28.7545 22.0022 28.7212 22.0038 28.6878 22.0038C28.3637 22.0038 28.0503 21.878 27.8162 21.6497C27.5578 21.3988 27.4203 21.048 27.4395 20.688C27.5237 19.103 28.6428 17.9538 30.2245 17.8272ZM30.3243 19.0731C30.2743 20.0214 29.6343 20.6781 28.6877 20.7539C28.7377 19.8056 29.3777 19.1489 30.3243 19.0731Z" fill="url(#paint13_linear_2023_105814)"/>
<path fill-rule="evenodd" clip-rule="evenodd" d="M26.7405 13.0969H26.7455C27.1039 13.0969 27.4455 13.2511 27.683 13.5194C28.7497 14.7278 28.7564 16.3569 27.6997 17.5744C27.463 17.8469 27.1205 18.0036 26.7605 18.0053H26.7555C26.3964 18.0053 26.0555 17.8519 25.818 17.5828C24.7514 16.3744 24.7447 14.7453 25.8014 13.5278C26.038 13.2553 26.3805 13.0986 26.7405 13.0969ZM26.746 14.3471C27.391 15.0779 27.3952 16.0196 26.756 16.7554C26.111 16.0246 26.1069 15.0838 26.746 14.3471Z" fill="url(#paint14_linear_2023_105814)"/>
<path d="M23.3774 21.0005V20.0012H24.9997L23.3774 21.0005Z" fill="#6941C6"/>
<path d="M23.3777 22.8339C23.3777 24.0309 22.4327 25.0001 21.2704 25.0001V22.9993C20.016 22.9993 19 21.9549 19 20.6655H21.2704C22.4327 20.6677 23.3777 21.6369 23.3777 22.8339Z" fill="#6941C6"/>
<path d="M23.3772 19.5007V20.0014H21.7549C21.4873 20.0014 21.2678 19.7779 21.2678 19.5007V19H22.8901C23.1598 19 23.3772 19.2235 23.3772 19.5007Z" fill="#6941C6"/>
<rect x="6.5" y="6.5" width="31" height="31" rx="15.5" stroke="#667085"/>
<defs>
<linearGradient id="paint0_linear_2023_105814" x1="35.4389" y1="2.6098" x2="34.3946" y2="7.85778" gradientUnits="userSpaceOnUse">
<stop offset="0.411458" stop-color="#101828"/>
<stop offset="1" stop-color="#344054" stop-opacity="0"/>
</linearGradient>
<linearGradient id="paint1_linear_2023_105814" x1="6.15897" y1="7.47612" x2="2.08454" y2="7.39582" gradientUnits="userSpaceOnUse">
<stop offset="0.411458" stop-color="#101828"/>
<stop offset="1" stop-color="#344054" stop-opacity="0"/>
</linearGradient>
<linearGradient id="paint2_linear_2023_105814" x1="27.168" y1="41.6965" x2="27.168" y2="43.7341" gradientUnits="userSpaceOnUse">
<stop offset="0.411458" stop-color="#101828"/>
<stop offset="1" stop-color="#344054" stop-opacity="0"/>
</linearGradient>
<linearGradient id="paint3_linear_2023_105814" x1="2.03761" y1="26.7539" x2="2.03761" y2="32.8667" gradientUnits="userSpaceOnUse">
<stop offset="0.411458" stop-color="#101828"/>
<stop offset="1" stop-color="#344054" stop-opacity="0"/>
</linearGradient>
<linearGradient id="paint4_linear_2023_105814" x1="40.7522" y1="15.208" x2="40.7522" y2="17.9248" gradientUnits="userSpaceOnUse">
<stop offset="0.411458" stop-color="#101828"/>
<stop offset="1" stop-color="#344054" stop-opacity="0"/>
</linearGradient>
<linearGradient id="paint5_linear_2023_105814" x1="8.15064" y1="39.6592" x2="8.15064" y2="42.376" gradientUnits="userSpaceOnUse">
<stop offset="0.411458" stop-color="#101828"/>
<stop offset="1" stop-color="#344054" stop-opacity="0"/>
</linearGradient>
<linearGradient id="paint6_linear_2023_105814" x1="41.7715" y1="29.4714" x2="41.7715" y2="36.2635" gradientUnits="userSpaceOnUse">
<stop offset="0.411458" stop-color="#101828"/>
<stop offset="1" stop-color="#344054" stop-opacity="0"/>
</linearGradient>
<linearGradient id="paint7_linear_2023_105814" x1="18.7183" y1="26.7744" x2="18.7183" y2="30.9036" gradientUnits="userSpaceOnUse">
<stop offset="0.671875" stop-color="#6941C6"/>
<stop offset="1" stop-color="#6941C6" stop-opacity="0"/>
</linearGradient>
<linearGradient id="paint8_linear_2023_105814" x1="15.0881" y1="23.4963" x2="15.0881" y2="26.923" gradientUnits="userSpaceOnUse">
<stop offset="0.671875" stop-color="#6941C6"/>
<stop offset="1" stop-color="#6941C6" stop-opacity="0"/>
</linearGradient>
<linearGradient id="paint9_linear_2023_105814" x1="14.4931" y1="17.823" x2="14.4931" y2="22.0038" gradientUnits="userSpaceOnUse">
<stop offset="0.671875" stop-color="#6941C6"/>
<stop offset="1" stop-color="#6941C6" stop-opacity="0"/>
</linearGradient>
<linearGradient id="paint10_linear_2023_105814" x1="17.2488" y1="13.0969" x2="17.2488" y2="18.0061" gradientUnits="userSpaceOnUse">
<stop offset="0.671875" stop-color="#6941C6"/>
<stop offset="1" stop-color="#6941C6" stop-opacity="0"/>
</linearGradient>
<linearGradient id="paint11_linear_2023_105814" x1="25.2813" y1="26.7747" x2="25.2813" y2="30.9038" gradientUnits="userSpaceOnUse">
<stop offset="0.671875" stop-color="#6941C6"/>
<stop offset="1" stop-color="#6941C6" stop-opacity="0"/>
</linearGradient>
<linearGradient id="paint12_linear_2023_105814" x1="28.9104" y1="23.4963" x2="28.9104" y2="26.923" gradientUnits="userSpaceOnUse">
<stop offset="0.671875" stop-color="#6941C6"/>
<stop offset="1" stop-color="#6941C6" stop-opacity="0"/>
</linearGradient>
<linearGradient id="paint13_linear_2023_105814" x1="29.5062" y1="17.823" x2="29.5062" y2="22.0038" gradientUnits="userSpaceOnUse">
<stop offset="0.671875" stop-color="#6941C6"/>
<stop offset="1" stop-color="#6941C6" stop-opacity="0"/>
</linearGradient>
<linearGradient id="paint14_linear_2023_105814" x1="26.7505" y1="13.0969" x2="26.7505" y2="18.0053" gradientUnits="userSpaceOnUse">
<stop offset="0.671875" stop-color="#6941C6"/>
<stop offset="1" stop-color="#6941C6" stop-opacity="0"/>
</linearGradient>
</defs>
</svg>
