<svg width="32" height="32" viewBox="0 0 32 32" fill="none" xmlns="http://www.w3.org/2000/svg">
<path d="M23.3506 20.4439C23.3506 21.9619 23.0596 23.465 22.4942 24.8673C21.9289 26.2697 21.1002 27.5438 20.0556 28.6169C19.011 29.6901 17.7709 30.5412 16.4061 31.1217C15.0414 31.7022 13.5787 32.0006 12.1017 32V27.1116C13.2704 27.1233 14.4225 26.8263 15.4475 26.249C16.4366 25.6931 17.258 24.8685 17.8219 23.8653C18.3869 22.8303 18.6836 21.6635 18.6836 20.4768C18.6836 19.29 18.3869 18.1232 17.8219 17.0883C17.2588 16.0859 16.4371 15.263 15.4475 14.7103C14.407 14.1475 13.2489 13.8535 12.0731 13.8535C10.8973 13.8535 9.73916 14.1475 8.69863 14.7103C7.71252 15.2598 6.89379 16.0793 6.33321 17.0779C5.93764 17.7794 5.67492 18.5515 5.55892 19.3534C3.85374 18.2272 2.45115 16.6788 1.47986 14.8504C0.508574 13.022 -0.000283779 10.9722 1.18727e-07 8.88904H12.1017C13.5786 8.88828 15.0413 9.1866 16.406 9.76695C17.7708 10.3473 19.0109 11.1983 20.0555 12.2714C21.1002 13.3444 21.9288 14.6185 22.4942 16.0207C23.0596 17.423 23.3506 18.926 23.3506 20.4439Z" fill="white"/>
<path d="M23.3506 10.6659V5.33295H31.9999L23.3506 10.6659Z" fill="white"/>
<path d="M23.3505 2.6659V5.33179H14.7001C14.3591 5.33225 14.0213 5.26363 13.7062 5.12988C13.391 4.99612 13.1046 4.79984 12.8632 4.55226C12.6219 4.30468 12.4304 4.01065 12.2997 3.68697C12.1691 3.3633 12.1017 3.01633 12.1016 2.6659V2.48747e-07H20.752C21.0928 -0.00015102 21.4302 0.0686917 21.745 0.202598C22.0599 0.336504 22.346 0.532847 22.587 0.780413C22.828 1.02798 23.0191 1.32192 23.1496 1.64543C23.28 1.96895 23.3471 2.31571 23.3471 2.6659" fill="white"/>
<path d="M14.4247 22.9509C13.8181 23.5851 13.0453 23.9048 12.1063 23.9102H12.0828C11.1326 23.9102 10.3519 23.5904 9.74086 22.9509C9.20842 22.3878 8.89033 21.6469 8.84444 20.8631C8.83324 20.7353 8.82764 20.6052 8.82764 20.4704C8.82764 19.457 9.13317 18.6306 9.74422 17.9911C10.3553 17.3516 11.1359 17.0314 12.0861 17.0307C13.0363 17.0307 13.817 17.3508 14.428 17.9911C15.0391 18.6314 15.3446 19.4578 15.3446 20.4704C15.3424 21.4861 15.0357 22.3129 14.4247 22.9509Z" fill="white"/>
</svg>
