<svg width="144" height="32" viewBox="0 0 144 32" fill="none" xmlns="http://www.w3.org/2000/svg">
<path d="M23.3506 20.4439C23.3506 21.9619 23.0596 23.465 22.4942 24.8673C21.9289 26.2697 21.1002 27.5438 20.0556 28.6169C19.011 29.6901 17.7709 30.5412 16.4061 31.1217C15.0414 31.7022 13.5787 32.0006 12.1017 32V27.1116C13.2704 27.1233 14.4225 26.8263 15.4475 26.249C16.4366 25.6931 17.258 24.8685 17.8219 23.8653C18.3869 22.8303 18.6836 21.6635 18.6836 20.4768C18.6836 19.29 18.3869 18.1232 17.8219 17.0883C17.2588 16.0859 16.4371 15.263 15.4475 14.7103C14.407 14.1475 13.2489 13.8535 12.0731 13.8535C10.8973 13.8535 9.73916 14.1475 8.69863 14.7103C7.71252 15.2598 6.89379 16.0793 6.33321 17.0779C5.93764 17.7794 5.67492 18.5515 5.55892 19.3534C3.85374 18.2272 2.45115 16.6788 1.47986 14.8504C0.508574 13.022 -0.000283779 10.9722 1.18727e-07 8.88904H12.1017C13.5786 8.88828 15.0413 9.1866 16.406 9.76695C17.7708 10.3473 19.0109 11.1983 20.0555 12.2714C21.1002 13.3444 21.9288 14.6185 22.4942 16.0207C23.0596 17.423 23.3506 18.926 23.3506 20.4439Z" fill="white"/>
<path d="M23.3506 10.666V5.33301H31.9999L23.3506 10.666Z" fill="white"/>
<path d="M23.3505 2.6659V5.33179H14.7001C14.3591 5.33225 14.0213 5.26363 13.7062 5.12988C13.391 4.99612 13.1046 4.79984 12.8632 4.55226C12.6219 4.30468 12.4304 4.01065 12.2997 3.68697C12.1691 3.3633 12.1017 3.01633 12.1016 2.6659V2.48747e-07H20.752C21.0928 -0.00015102 21.4302 0.0686917 21.745 0.202598C22.0599 0.336504 22.346 0.532847 22.587 0.780413C22.828 1.02798 23.0191 1.32192 23.1496 1.64543C23.28 1.96895 23.3471 2.31571 23.3471 2.6659" fill="white"/>
<path d="M14.4244 22.9509C13.8178 23.585 13.045 23.9048 12.106 23.9102H12.0825C11.1323 23.9102 10.3517 23.5904 9.74062 22.9509C9.20817 22.3877 8.89008 21.6469 8.8442 20.8631C8.83299 20.7353 8.82739 20.6051 8.82739 20.4704C8.82739 19.457 9.13292 18.6306 9.74398 17.991C10.355 17.3515 11.1357 17.0314 12.0859 17.0306C13.0361 17.0306 13.8167 17.3508 14.4278 17.991C15.0388 18.6313 15.3444 19.4578 15.3444 20.4704C15.3421 21.4861 15.0355 22.3129 14.4244 22.9509Z" fill="white"/>
<path d="M52.5928 25.8912C50.0117 25.8912 47.9467 25.1381 46.3647 23.6151C44.7827 22.1088 44 20.1004 44 17.6235V7.0293H48.9292V17.0544C48.9292 18.3599 49.2456 19.3808 49.8951 20.1172C50.5445 20.8536 51.4438 21.2218 52.5762 21.2218C53.7252 21.2218 54.6078 20.8536 55.2406 20.1172C55.8734 19.3808 56.1898 18.3598 56.1898 17.0711V7.04604H61.1191V17.6402C61.1191 20.1172 60.3364 22.1088 58.771 23.6318C57.2556 25.1381 55.174 25.8912 52.5928 25.8912Z" fill="white"/>
<path d="M83.2339 11.2636C82.4179 9.79083 81.2689 8.61927 79.8035 7.78245C78.3547 6.94563 76.7227 6.52722 74.9075 6.52722C72.6427 6.52722 70.6944 7.26363 69.0458 8.7197V7.04606H64.9658V32H69.895V24.385C71.3938 25.4059 73.0591 25.9247 74.9075 25.9247C76.706 25.9247 78.338 25.5063 79.8035 24.6695C81.2689 23.8327 82.4013 22.6611 83.2339 21.1883C84.0499 19.6988 84.4662 18.0419 84.4662 16.2176C84.4662 14.3933 84.0499 12.7364 83.2339 11.2636ZM78.0549 19.8159C77.1224 20.7699 75.9234 21.2385 74.5079 21.2385C73.0924 21.2385 71.8934 20.7699 70.9608 19.7992C70.0283 18.8452 69.5453 17.6402 69.5453 16.2009C69.5453 14.7615 70.0116 13.5733 70.9608 12.6193C71.8934 11.6653 73.0924 11.18 74.5079 11.18C75.9234 11.18 77.1224 11.6486 78.0549 12.6025C79.0041 13.5565 79.4704 14.7448 79.4704 16.2009C79.4704 17.6569 79.0041 18.862 78.0549 19.8159Z" fill="white"/>
<path d="M95.6571 25.8912C93.0759 25.8912 91.0109 25.1381 89.4289 23.6151C87.8469 22.1088 87.0642 20.1004 87.0642 17.6235V7.0293H91.9934V17.0544C91.9934 18.3599 92.3098 19.3808 92.9593 20.1172C93.6088 20.8536 94.508 21.2218 95.6404 21.2218C96.7894 21.2218 97.672 20.8536 98.3048 20.1172C98.9376 19.3808 99.2541 18.3598 99.2541 17.0711V7.04604H104.183V17.6402C104.183 20.1172 103.401 22.1088 101.835 23.6318C100.303 25.1381 98.2382 25.8912 95.6571 25.8912Z" fill="white"/>
<path d="M112.793 20.0836H107.58V25.3891H112.793V20.0836Z" fill="white"/>
<path d="M116.506 0H121.419V4.60251H116.506V0ZM116.506 7.04603H121.435V25.3891H116.506V7.04603Z" fill="white"/>
<path d="M134.142 25.8913C132.277 25.8913 130.595 25.4728 129.096 24.636C127.597 23.7992 126.415 22.6277 125.565 21.1549C124.716 19.682 124.283 18.0251 124.283 16.2176C124.283 14.3766 124.716 12.7197 125.565 11.2469C126.415 9.77409 127.597 8.61927 129.096 7.78245C130.595 6.94563 132.277 6.52722 134.142 6.52722C135.99 6.52722 137.672 6.94563 139.171 7.78245C140.67 8.61927 141.852 9.77409 142.718 11.2636C143.584 12.7532 144 14.3933 144 16.2176C144 18.0251 143.567 19.682 142.718 21.1549C141.852 22.6444 140.686 23.7992 139.171 24.636C137.655 25.4728 135.99 25.8913 134.142 25.8913ZM130.645 19.8327C131.56 20.7699 132.726 21.2385 134.142 21.2385C135.557 21.2385 136.723 20.7699 137.639 19.8327C138.555 18.8954 139.004 17.6904 139.004 16.2176C139.004 14.7448 138.555 13.5231 137.639 12.6025C136.723 11.6653 135.557 11.1967 134.142 11.1967C132.726 11.1967 131.56 11.6653 130.645 12.6025C129.729 13.5398 129.279 14.7448 129.279 16.2176C129.262 17.6904 129.729 18.8954 130.645 19.8327Z" fill="white"/>
</svg>
