<svg width="56" height="56" viewBox="0 0 56 56" fill="none" xmlns="http://www.w3.org/2000/svg">
<rect width="56" height="56" rx="4" fill="#0E9384"/>
<path d="M31.6051 34.2043H19.7182C19.1037 34.2043 18.6038 33.7045 18.6038 33.0899V22.6889C18.6038 22.6682 18.6091 22.6489 18.6101 22.6285L25.9468 27.8702C26.5279 28.2856 27.2092 28.4934 27.8904 28.4934C28.571 28.4934 29.2522 28.2856 29.8341 27.8706L37.1707 22.6286C37.1718 22.649 37.1771 22.6684 37.1771 22.6889V28.6324C37.1771 29.248 37.6763 29.7467 38.2915 29.7467C38.9067 29.7467 39.4059 29.248 39.4059 28.6324V22.6889C39.4059 21.7076 38.98 20.7855 38.2567 20.175C37.6516 19.6403 36.8724 19.3457 36.0627 19.3457H19.7182C18.9071 19.3457 18.1279 19.6406 17.5438 20.1579C16.8009 20.784 16.375 21.7065 16.375 22.6889V33.0899C16.375 34.9335 17.8746 36.4331 19.7182 36.4331H31.6051C32.2203 36.4331 32.7195 35.9343 32.7195 35.3187C32.7195 34.7031 32.2203 34.2043 31.6051 34.2043ZM28.5383 26.0568C28.1509 26.3339 27.63 26.3339 27.2426 26.0568L20.9693 21.5745H34.8116L28.5383 26.0568Z" fill="white"/>
<path d="M38.5104 32.2312H37.433V31.1535C37.433 30.5379 36.9339 30.0391 36.3186 30.0391C35.7034 30.0391 35.2042 30.5379 35.2042 31.1535V32.2312H34.1261C33.5109 32.2312 33.0117 32.73 33.0117 33.3456C33.0117 33.9612 33.5109 34.46 34.1261 34.46H35.2042V35.5381C35.2042 36.1537 35.7034 36.6525 36.3186 36.6525C36.9339 36.6525 37.433 36.1537 37.433 35.5381V34.46H38.5104C39.1257 34.46 39.6248 33.9612 39.6248 33.3456C39.6248 32.73 39.1257 32.2312 38.5104 32.2312Z" fill="white"/>
</svg>
