<svg width="24" height="24" viewBox="0 0 24 24" fill="none" xmlns="http://www.w3.org/2000/svg">
<path d="M11.835 15L16.835 20C17.663 20.828 19.007 20.828 19.835 20V20C20.663 19.172 20.663 17.828 19.835 17L14.835 12" stroke="#D6BBFB" stroke-width="1.5" stroke-linecap="round" stroke-linejoin="round"/>
<path fill-rule="evenodd" clip-rule="evenodd" d="M20.9159 5.84669C20.9399 5.86969 20.9579 5.89969 20.9669 5.93169C21.4369 7.49869 21.0729 9.26169 19.8349 10.4997C18.5839 11.7507 16.7969 12.1087 15.2179 11.6167L6.87091 19.9637C6.05791 20.7767 4.73191 20.8377 3.89091 20.0537C3.00691 19.2307 2.98891 17.8467 3.83491 16.9997L12.2179 8.61669C11.7259 7.03769 12.0839 5.25069 13.3349 3.99969C14.5729 2.76169 16.3359 2.39769 17.9029 2.86769C17.9349 2.87769 17.9649 2.89469 17.9879 2.91869L18.1499 3.08069C18.2279 3.15869 18.2279 3.28569 18.1499 3.36369L15.5149 5.99969L17.8349 8.31969L20.4709 5.68369C20.5489 5.60569 20.6759 5.60569 20.7539 5.68369L20.9159 5.84669V5.84669Z" stroke="#D6BBFB" stroke-width="1.5" stroke-linecap="round" stroke-linejoin="round"/>
<path fill-rule="evenodd" clip-rule="evenodd" d="M2.93292 4.29296L3.60692 6.31596C3.74292 6.72496 4.12492 6.99996 4.55592 6.99996H6.83492V4.72096C6.83492 4.29096 6.55992 3.90796 6.15092 3.77196L4.12792 3.09796C3.94792 3.03796 3.74992 3.08496 3.61592 3.21896L3.05392 3.78096C2.91992 3.91496 2.87292 4.11296 2.93292 4.29296V4.29296Z" stroke="#D6BBFB" stroke-width="1.5" stroke-linecap="round" stroke-linejoin="round"/>
<path d="M6.83984 7L10.3398 10.5" stroke="#D6BBFB" stroke-width="1.5" stroke-linecap="round" stroke-linejoin="round"/>
</svg>
