<svg width="32" height="32" viewBox="0 0 32 32" fill="none" xmlns="http://www.w3.org/2000/svg">
<rect x="0.000244141" y="9.15527e-05" width="31.9998" height="31.9998" rx="4" fill="#7F56D9"/>
<path d="M8.75836 8.52822C7.0568 8.84229 5.60367 9.1376 5.52398 9.1751C5.44898 9.21729 5.3318 9.32979 5.26617 9.42354L5.14898 9.59697L5.13492 15.897C5.13023 20.0829 5.13961 22.2579 5.17242 22.3751C5.20055 22.4735 5.28961 22.6189 5.3693 22.6985C5.6693 22.9939 5.54742 23.0032 8.83336 22.3985C10.4646 22.0985 11.8193 21.836 11.8427 21.8173C11.8615 21.7985 11.8709 18.672 11.8662 14.8704L11.8521 7.95635L8.75836 8.52822Z" fill="white"/>
<path d="M13.3849 15.0392L13.3989 22.0095L15.9724 22.9657C17.388 23.4907 18.5646 23.922 18.588 23.922C18.6067 23.922 18.6208 20.786 18.6161 16.9517L18.6021 9.98602L16.0942 9.05321C14.7161 8.54227 13.5396 8.11102 13.4786 8.09696L13.3755 8.06884L13.3849 15.0392Z" fill="white"/>
<path d="M23.0787 9.61573L20.149 10.1642L20.1349 17.111C20.1255 23.7064 20.1302 24.0532 20.2052 24.0345C20.2521 24.0251 21.6208 23.772 23.2427 23.4767C24.8693 23.1767 26.2615 22.9095 26.3458 22.886C26.4255 22.8579 26.5662 22.7595 26.6599 22.6564C26.7865 22.5157 26.8287 22.422 26.8521 22.2251C26.8662 22.0892 26.8755 19.1923 26.8662 15.7892L26.8521 9.60166L26.7443 9.42823C26.6318 9.24541 26.313 9.05791 26.1208 9.06729C26.0599 9.06729 24.6912 9.31573 23.0787 9.61573Z" fill="white"/>
</svg>
