<svg width="18" height="11" viewBox="0 0 18 11" fill="none" xmlns="http://www.w3.org/2000/svg">
<path fill-rule="evenodd" clip-rule="evenodd" d="M16.3994 0H15.3994C14.8471 0 14.3994 0.447715 14.3994 1V9.66667C14.3994 10.219 14.8471 10.6667 15.3994 10.6667H16.3994C16.9517 10.6667 17.3994 10.219 17.3994 9.66667V1C17.3994 0.447715 16.9517 0 16.3994 0ZM10.7327 2.33333H11.7327C12.285 2.33333 12.7327 2.78105 12.7327 3.33333V9.66667C12.7327 10.219 12.285 10.6667 11.7327 10.6667H10.7327C10.1805 10.6667 9.73275 10.219 9.73275 9.66667V3.33333C9.73275 2.78105 10.1805 2.33333 10.7327 2.33333ZM7.06608 4.66667H6.06608C5.5138 4.66667 5.06608 5.11438 5.06608 5.66667V9.66667C5.06608 10.219 5.5138 10.6667 6.06608 10.6667H7.06608C7.61837 10.6667 8.06608 10.219 8.06608 9.66667V5.66667C8.06608 5.11438 7.61837 4.66667 7.06608 4.66667ZM2.39941 6.66667H1.39941C0.847129 6.66667 0.399414 7.11438 0.399414 7.66667V9.66667C0.399414 10.219 0.847129 10.6667 1.39941 10.6667H2.39941C2.9517 10.6667 3.39941 10.219 3.39941 9.66667V7.66667C3.39941 7.11438 2.9517 6.66667 2.39941 6.66667Z" fill="white"/>
</svg>
