<svg width="24" height="18" viewBox="0 0 24 18" fill="none" xmlns="http://www.w3.org/2000/svg">
<path d="M15.6051 15.2043H3.71819C3.10368 15.2043 2.6038 14.7045 2.6038 14.0899V3.6889C2.6038 3.66817 2.60905 3.64894 2.6101 3.6285L9.94678 8.8702C10.5279 9.28555 11.2092 9.49341 11.8904 9.49341C12.571 9.49341 13.2522 9.28555 13.8341 8.87056L21.1707 3.62859C21.1718 3.64895 21.1771 3.66835 21.1771 3.6889V9.63235C21.1771 10.248 21.6763 10.7467 22.2915 10.7467C22.9067 10.7467 23.4059 10.248 23.4059 9.63235V3.6889C23.4059 2.70763 22.98 1.78549 22.2567 1.17497C21.6516 0.640266 20.8724 0.345703 20.0627 0.345703H3.71819C2.90706 0.345703 2.12786 0.640625 1.54381 1.15792C0.80088 1.78405 0.375 2.70655 0.375 3.6889V14.0899C0.375 15.9335 1.87465 17.4331 3.71819 17.4331H15.6051C16.2203 17.4331 16.7195 16.9343 16.7195 16.3187C16.7195 15.7031 16.2203 15.2043 15.6051 15.2043ZM12.5383 7.05676C12.1509 7.3339 11.63 7.3339 11.2426 7.05676L4.96926 2.5745H18.8116L12.5383 7.05676Z" fill="white"/>
<path d="M22.5104 13.2312H21.433V12.1535C21.433 11.5379 20.9339 11.0391 20.3186 11.0391C19.7034 11.0391 19.2042 11.5379 19.2042 12.1535V13.2312H18.1261C17.5109 13.2312 17.0117 13.73 17.0117 14.3456C17.0117 14.9612 17.5109 15.46 18.1261 15.46H19.2042V16.5381C19.2042 17.1537 19.7034 17.6525 20.3186 17.6525C20.9339 17.6525 21.433 17.1537 21.433 16.5381V15.46H22.5104C23.1257 15.46 23.6248 14.9612 23.6248 14.3456C23.6248 13.73 23.1257 13.2312 22.5104 13.2312Z" fill="white"/>
</svg>
