<svg width="48" height="48" viewBox="0 0 48 48" fill="none" xmlns="http://www.w3.org/2000/svg">
<rect width="48" height="48" rx="6" fill="#6941C6"/>
<path d="M14 31C14 28.8 15.8 27 18 27H22C24.2 27 26 28.8 26 31" stroke="#D6BBFB" stroke-width="1.5" stroke-linecap="round" stroke-linejoin="round"/>
<path d="M22.4997 17.9992C23.8997 19.3992 23.8997 21.5992 22.4997 22.8992C21.0997 24.1992 18.8997 24.2992 17.5997 22.8992C16.2997 21.4992 16.1997 19.3992 17.4997 17.9992C18.7997 16.5992 21.0997 16.6992 22.4997 17.9992" stroke="#D6BBFB" stroke-width="1.5" stroke-linecap="round" stroke-linejoin="round"/>
<path d="M28 26H31C32.7 26 34 27.3 34 29" stroke="#D6BBFB" stroke-width="1.5" stroke-linecap="round" stroke-linejoin="round"/>
<path d="M31.2999 18.6984C32.2999 19.6984 32.2999 21.2984 31.2999 22.1984C30.2999 23.0984 28.6999 23.1984 27.7999 22.1984C26.8999 21.1984 26.7999 19.5984 27.7999 18.6984C28.6999 17.7984 30.2999 17.7984 31.2999 18.6984" stroke="#D6BBFB" stroke-width="1.5" stroke-linecap="round" stroke-linejoin="round"/>
</svg>
