<svg width="24" height="24" viewBox="0 0 24 24" fill="none" xmlns="http://www.w3.org/2000/svg">
<path d="M2 19C2 16.8 3.8 15 6 15H10C12.2 15 14 16.8 14 19" stroke="#D6BBFB" stroke-width="1.5" stroke-linecap="round" stroke-linejoin="round"/>
<path d="M10.4997 5.99918C11.8997 7.39918 11.8997 9.59918 10.4997 10.8992C9.09968 12.1992 6.89968 12.2992 5.59968 10.8992C4.29968 9.49918 4.19968 7.39918 5.49968 5.99918C6.79968 4.59918 9.09968 4.69918 10.4997 5.99918" stroke="#D6BBFB" stroke-width="1.5" stroke-linecap="round" stroke-linejoin="round"/>
<path d="M16 14H19C20.7 14 22 15.3 22 17" stroke="#D6BBFB" stroke-width="1.5" stroke-linecap="round" stroke-linejoin="round"/>
<path d="M19.2999 6.69844C20.2999 7.69844 20.2999 9.29844 19.2999 10.1984C18.2999 11.0984 16.6999 11.1984 15.7999 10.1984C14.8999 9.19844 14.7999 7.59844 15.7999 6.69844C16.6999 5.79844 18.2999 5.79844 19.2999 6.69844" stroke="#D6BBFB" stroke-width="1.5" stroke-linecap="round" stroke-linejoin="round"/>
</svg>
