<svg width="20" height="24" viewBox="0 0 20 24" fill="none" xmlns="http://www.w3.org/2000/svg">
<path d="M4.77625 2C3.24548 2 2 3.24548 2 4.77625C2 6.30719 3.24548 7.55267 4.77625 7.55267C6.30719 7.55267 7.55267 6.30719 7.55267 4.77625C7.55267 3.24548 6.30719 2 4.77625 2ZM4.77625 6.82098C3.64886 6.82098 2.73151 5.90381 2.73151 4.77643C2.73151 3.64886 3.64886 2.73169 4.77625 2.73169C5.90363 2.73169 6.82098 3.64886 6.82098 4.77643C6.82098 5.90381 5.90363 6.82098 4.77625 6.82098Z" fill="#667085" stroke="#667085" stroke-width="0.2"/>
<path d="M9.25824 3.41431H17.2321C17.4341 3.41431 17.598 3.25043 17.598 3.04846C17.598 2.84631 17.4341 2.68262 17.2321 2.68262H9.25824C9.05627 2.68262 8.89258 2.84631 8.89258 3.04846C8.89258 3.25043 9.05627 3.41431 9.25824 3.41431Z" fill="#667085" stroke="#667085" stroke-width="0.2"/>
<path d="M9.25824 5.14209H15.0301C15.2322 5.14209 15.3959 4.97839 15.3959 4.77625C15.3959 4.57428 15.2322 4.4104 15.0301 4.4104H9.25824C9.05627 4.4104 8.89258 4.57428 8.89258 4.77625C8.89258 4.97839 9.05627 5.14209 9.25824 5.14209Z" fill="#667085" stroke="#667085" stroke-width="0.2"/>
<path d="M9.25824 6.87061H16.2186C16.4206 6.87061 16.5843 6.70673 16.5843 6.50476C16.5843 6.30261 16.4206 6.13892 16.2186 6.13892H9.25824C9.05627 6.13892 8.89258 6.30261 8.89258 6.50476C8.89258 6.70673 9.05627 6.87061 9.25824 6.87061V6.87061Z" fill="#667085" stroke="#667085" stroke-width="0.2"/>
<path d="M9.25824 10.2822H17.2321C17.4341 10.2822 17.598 10.1183 17.598 9.91638C17.598 9.71423 17.4341 9.55054 17.2321 9.55054H9.25824C9.05627 9.55054 8.89258 9.71423 8.89258 9.91638C8.89258 10.1183 9.05627 10.2822 9.25824 10.2822Z" fill="#667085" stroke="#667085" stroke-width="0.2"/>
<path d="M9.25824 12.0107H15.0301C15.2322 12.0107 15.3959 11.847 15.3959 11.6449C15.3959 11.4429 15.2322 11.2791 15.0301 11.2791H9.25824C9.05627 11.2791 8.89258 11.4429 8.89258 11.6449C8.89258 11.847 9.05627 12.0107 9.25824 12.0107Z" fill="#667085" stroke="#667085" stroke-width="0.2"/>
<path d="M9.25824 13.7393H16.2186C16.4206 13.7393 16.5843 13.5754 16.5843 13.3734C16.5843 13.1714 16.4206 13.0076 16.2186 13.0076H9.25824C9.05627 13.0076 8.89258 13.1714 8.89258 13.3734C8.89258 13.5754 9.05627 13.7393 9.25824 13.7393V13.7393Z" fill="#667085" stroke="#667085" stroke-width="0.2"/>
<path d="M4.77625 15.7373C3.24548 15.7373 2 16.9828 2 18.5135C2 20.0445 3.24548 21.29 4.77625 21.29C6.30719 21.29 7.55267 20.0445 7.55267 18.5135C7.55267 16.9828 6.30719 15.7373 4.77625 15.7373ZM4.77625 20.5583C3.64886 20.5583 2.73151 19.6411 2.73151 18.5135C2.73151 17.3862 3.64886 16.469 4.77625 16.469C5.90363 16.469 6.82098 17.3862 6.82098 18.5135C6.82098 19.6411 5.90363 20.5583 4.77625 20.5583Z" fill="#667085" stroke="#667085" stroke-width="0.2"/>
<path d="M9.25824 17.1509H17.2321C17.4341 17.1509 17.598 16.987 17.598 16.785C17.598 16.5831 17.4341 16.4192 17.2321 16.4192H9.25824C9.05627 16.4192 8.89258 16.5831 8.89258 16.785C8.89258 16.987 9.05627 17.1509 9.25824 17.1509Z" fill="#667085" stroke="#667085" stroke-width="0.2"/>
<path d="M9.25824 18.8792H15.0301C15.2322 18.8792 15.3959 18.7155 15.3959 18.5134C15.3959 18.3114 15.2322 18.1477 15.0301 18.1477H9.25824C9.05627 18.1477 8.89258 18.3114 8.89258 18.5134C8.89258 18.7155 9.05627 18.8792 9.25824 18.8792Z" fill="#667085" stroke="#667085" stroke-width="0.2"/>
<path d="M9.25824 20.6072H16.2186C16.4206 20.6072 16.5843 20.4433 16.5843 20.2413C16.5843 20.0392 16.4206 19.8755 16.2186 19.8755H9.25824C9.05627 19.8755 8.89258 20.0392 8.89258 20.2413C8.89258 20.4433 9.05627 20.6072 9.25824 20.6072V20.6072Z" fill="#667085" stroke="#667085" stroke-width="0.2"/>
<path d="M4.27234 11.0809C4.12952 10.9381 3.8977 10.9381 3.75488 11.0809C3.61206 11.2238 3.61206 11.4554 3.75488 11.5982L4.65723 12.5005C4.72882 12.572 4.82239 12.6077 4.91595 12.6077C5.00952 12.6077 5.10327 12.572 5.17468 12.5005L7.06213 10.6131C7.06396 10.6113 7.06561 10.6094 7.06744 10.6078L8.32062 9.35461C8.46344 9.21179 8.46344 8.98016 8.32062 8.83734C8.17779 8.69452 7.94598 8.69452 7.80316 8.83734L6.84625 9.79443C6.32385 9.20831 5.57733 8.86884 4.77624 8.86884C3.24548 8.86884 2 10.1143 2 11.6453C2 13.176 3.24548 14.4215 4.77624 14.4215C6.30719 14.4215 7.55267 13.176 7.55267 11.6453C7.55267 11.4431 7.38879 11.2794 7.18683 11.2794C6.98468 11.2794 6.82098 11.4431 6.82098 11.6453C6.82098 12.7726 5.90363 13.6898 4.77624 13.6898C3.64886 13.6898 2.73151 12.7726 2.73151 11.6453C2.73151 10.5177 3.64886 9.60052 4.77624 9.60052C5.38013 9.60052 5.94134 9.86292 6.32715 10.3134L4.91595 11.7247L4.27234 11.0809Z" fill="#667085" stroke="#667085" stroke-width="0.2"/>
<rect x="0.5" y="0.5" width="19" height="23" rx="1.5" stroke="#667085"/>
</svg>
