<svg width="19" height="19" viewBox="0 0 19 19" fill="none" xmlns="http://www.w3.org/2000/svg">
<path d="M10.6877 9.71159V2.81122C10.6877 2.13904 10.1917 1.59351 9.58064 1.59351C8.96957 1.59351 8.47363 2.13904 8.47363 2.81122V9.71159" stroke="#101828" stroke-linecap="round" stroke-linejoin="round"/>
<path d="M10.6875 4.31497C10.6875 3.62751 11.1834 3.06958 11.7945 3.06958C12.4056 3.06958 12.9015 3.62751 12.9015 4.31497V9.71165" stroke="#101828" stroke-linecap="round" stroke-linejoin="round"/>
<path d="M8.29477 4.29959C8.29477 3.62063 7.78547 3.06958 7.15794 3.06958C6.53042 3.06958 6.02112 3.62063 6.02112 4.29959V8.80964V11.2697L4.58038 9.71083C4.12035 9.21308 3.37459 9.21308 2.91456 9.71083C2.51743 10.1405 2.45604 10.8137 2.76753 11.3189L5.42921 15.6387C6.27274 17.0073 7.69225 17.8297 9.21256 17.8297H10.5684C13.08 17.8297 15.1157 15.6272 15.1157 12.9097V8.80964V5.93961C15.1157 5.26064 14.6064 4.7096 13.9789 4.7096C13.3514 4.7096 12.8421 5.26064 12.8421 5.93961" stroke="#101828" stroke-linecap="round" stroke-linejoin="round"/>
</svg>
