<svg width="48" height="48" viewBox="0 0 48 48" fill="none" xmlns="http://www.w3.org/2000/svg">
<rect width="48" height="48" rx="6" fill="#6941C6"/>
<path d="M20.2621 32.1037C19.9728 32.3909 19.6302 32.6178 19.2539 32.7716C18.8776 32.9254 18.475 33.003 18.0689 32.9999C17.6629 32.9968 17.2614 32.9132 16.8874 32.7538C16.5135 32.5943 16.1743 32.3622 15.8893 32.0707C15.6044 31.7791 15.3792 31.4339 15.2266 31.0546C15.074 30.6754 14.997 30.2695 15.0001 29.8603C15.0031 29.451 15.0861 29.0464 15.2443 28.6695C15.4025 28.2926 15.6328 27.9508 15.9221 27.6635L24.7824 16.4728C25.2251 16.0101 25.7553 15.6414 26.3416 15.3885C26.9278 15.1356 27.5584 15.0035 28.1962 15.0001C28.8339 14.9966 29.4658 15.1219 30.0548 15.3684C30.6437 15.615 31.1777 15.9779 31.6254 16.4358C32.073 16.8936 32.4251 17.4371 32.661 18.0343C32.8969 18.6314 33.0119 19.2702 32.999 19.9128C32.9862 20.5554 32.8458 21.1889 32.5863 21.776C32.3267 22.3631 31.9531 22.8919 31.4876 23.3312L20.2621 32.1037Z" stroke="#D6BBFB" stroke-width="1.5" stroke-linecap="round" stroke-linejoin="round"/>
<path d="M18.5917 30.5952C19.2572 30.5952 19.7967 30.0549 19.7967 29.3884C19.7967 28.7219 19.2572 28.1816 18.5917 28.1816C17.9262 28.1816 17.3867 28.7219 17.3867 29.3884C17.3867 30.0549 17.9262 30.5952 18.5917 30.5952Z" stroke="#D6BBFB" stroke-width="1.5" stroke-linecap="round" stroke-linejoin="round"/>
<path d="M28.1836 22.1474C29.5173 22.1474 30.5986 21.0668 30.5986 19.7339C30.5986 18.4009 29.5173 17.3203 28.1836 17.3203C26.8498 17.3203 25.7686 18.4009 25.7686 19.7339C25.7686 21.0668 26.8498 22.1474 28.1836 22.1474Z" stroke="#D6BBFB" stroke-width="1.5" stroke-linecap="round" stroke-linejoin="round"/>
</svg>
