<svg width="48" height="48" viewBox="0 0 48 48" fill="none" xmlns="http://www.w3.org/2000/svg">
<rect width="48" height="48" rx="6" fill="#6941C6"/>
<path d="M23.835 27L28.835 32C29.663 32.828 31.007 32.828 31.835 32V32C32.663 31.172 32.663 29.828 31.835 29L26.835 24" stroke="#D6BBFB" stroke-width="1.5" stroke-linecap="round" stroke-linejoin="round"/>
<path fill-rule="evenodd" clip-rule="evenodd" d="M32.9159 17.8467C32.9399 17.8697 32.9579 17.8997 32.9669 17.9317C33.4369 19.4987 33.0729 21.2617 31.8349 22.4997C30.5839 23.7507 28.7969 24.1087 27.2179 23.6167L18.8709 31.9637C18.0579 32.7767 16.7319 32.8377 15.8909 32.0537C15.0069 31.2307 14.9889 29.8467 15.8349 28.9997L24.2179 20.6167C23.7259 19.0377 24.0839 17.2507 25.3349 15.9997C26.5729 14.7617 28.3359 14.3977 29.9029 14.8677C29.9349 14.8777 29.9649 14.8947 29.9879 14.9187L30.1499 15.0807C30.2279 15.1587 30.2279 15.2857 30.1499 15.3637L27.5149 17.9997L29.8349 20.3197L32.4709 17.6837C32.5489 17.6057 32.6759 17.6057 32.7539 17.6837L32.9159 17.8467V17.8467Z" stroke="#D6BBFB" stroke-width="1.5" stroke-linecap="round" stroke-linejoin="round"/>
<path fill-rule="evenodd" clip-rule="evenodd" d="M14.9329 16.293L15.6069 18.316C15.7429 18.725 16.1249 19 16.5559 19H18.8349V16.721C18.8349 16.291 18.5599 15.908 18.1509 15.772L16.1279 15.098C15.9479 15.038 15.7499 15.085 15.6159 15.219L15.0539 15.781C14.9199 15.915 14.8729 16.113 14.9329 16.293V16.293Z" stroke="#D6BBFB" stroke-width="1.5" stroke-linecap="round" stroke-linejoin="round"/>
<path d="M18.8398 19L22.3398 22.5" stroke="#D6BBFB" stroke-width="1.5" stroke-linecap="round" stroke-linejoin="round"/>
</svg>
