<svg width="24" height="24" viewBox="0 0 24 24" fill="none" xmlns="http://www.w3.org/2000/svg">
<path d="M21.9258 9.55872C21.8398 9.37122 21.7539 9.28918 21.5586 9.20715C21.4336 9.15637 20.3867 9.14856 12 9.14856C3.61328 9.14856 2.56641 9.15637 2.44141 9.20715C2.24609 9.28918 2.16016 9.37122 2.07422 9.55872C2.00781 9.70325 2 9.86731 2 12.0001C2 14.1329 2.00781 14.297 2.07422 14.4415C2.16016 14.629 2.24609 14.7111 2.44141 14.7931C2.56641 14.8439 3.61328 14.8517 12 14.8517C20.3867 14.8517 21.4336 14.8439 21.5586 14.7931C21.7539 14.7111 21.8398 14.629 21.9258 14.4415C21.9922 14.297 22 14.1329 22 12.0001C22 9.86731 21.9922 9.70325 21.9258 9.55872ZM12 13.4454H3.44531V12.0001V10.5548H12L20.5547 10.5548V12.0001V13.4454H12Z" fill="#D6BBFB"/>
<path d="M16.2499 16.8048C16.1913 16.6017 16.082 16.4689 15.8945 16.379L15.7265 16.297H9.13276C2.65229 16.297 2.54291 16.297 2.39447 16.3751C2.21088 16.465 2.09369 16.6095 2.0351 16.8009C2.00775 16.8947 1.99994 17.7111 2.00775 19.2306L2.01947 21.5157L2.12494 21.6759C2.18744 21.7736 2.29682 21.8673 2.40229 21.9181L2.57416 22.0001L9.19526 21.9923L15.8203 21.9806L15.9726 21.8595C16.0546 21.7931 16.1562 21.6798 16.1992 21.6056C16.2734 21.4767 16.2773 21.3947 16.2851 19.2072C16.289 17.7775 16.2773 16.8907 16.2499 16.8048ZM9.14838 20.5548H3.44525V19.129V17.7032H9.14838H14.8515V19.129V20.5548H9.14838Z" fill="#D6BBFB"/>
<path d="M14.1054 2.48822C14.0624 2.33978 13.8554 2.12103 13.6913 2.05463C13.5859 2.00775 12.5976 1.99994 8.06635 1.99994L2.57025 1.99994L2.39838 2.08197C2.29682 2.13275 2.18744 2.23041 2.12494 2.32416L2.01947 2.48431L2.00775 4.76947C1.99994 6.289 2.00775 7.10541 2.0351 7.19916C2.09369 7.39056 2.21088 7.5351 2.39447 7.62494C2.539 7.70306 2.64838 7.70306 8.07416 7.70306C13.4257 7.70306 13.6093 7.69916 13.7499 7.62885C13.9296 7.539 14.0117 7.44916 14.0898 7.26166C14.1406 7.14056 14.1484 6.81244 14.1445 4.86322C14.1445 3.62103 14.1249 2.55072 14.1054 2.48822ZM8.07416 6.29681H3.44525V4.87103V3.44525L8.07416 3.44525L12.7031 3.44525V4.87103V6.29681L8.07416 6.29681Z" fill="#D6BBFB"/>
</svg>
