<svg width="24" height="24" viewBox="0 0 24 24" fill="none" xmlns="http://www.w3.org/2000/svg">
<g clip-path="url(#clip0_13484_43328)">
<path d="M21.2645 13.6701L21.2645 13.6701C21.0812 14.6885 20.7324 15.6741 20.2279 16.5793L20.2278 16.5794C20.2109 16.6098 20.1924 16.638 20.1734 16.6644C19.0773 18.5819 17.3167 20.1036 15.1419 20.8736M21.2645 13.6701L19.57 13.022C19.5654 13.056 19.5603 13.0901 19.5551 13.1251L19.555 13.1263C19.5462 13.1847 19.5369 13.2428 19.5269 13.3006L19.5269 13.3006L19.516 13.3623C19.516 13.3624 19.516 13.3625 19.516 13.3625C19.0322 16.0201 17.1574 18.2757 14.5498 19.1996M21.2645 13.6701L21.274 13.6165L21.274 13.6161L21.2645 13.6701ZM15.1419 20.8736L15.1019 20.7605L15.142 20.8736C15.142 20.8736 15.1419 20.8736 15.1419 20.8736ZM15.1419 20.8736C15.0443 20.9082 14.9442 20.9246 14.846 20.9246C14.4806 20.9246 14.138 20.6973 14.009 20.3329L14.009 20.3329C13.8455 19.8708 14.0873 19.3628 14.5498 19.1996M14.5498 19.1996C14.5498 19.1996 14.5497 19.1996 14.5497 19.1996L14.5897 19.3127L14.5498 19.1996ZM21.3289 13.2634L21.3289 13.2634C21.3244 13.2967 21.3195 13.3297 21.3147 13.362L21.3132 13.3725L21.3289 13.2634ZM21.3289 13.2634C21.3347 13.2203 21.3403 13.1769 21.3456 13.1334M21.3289 13.2634L21.3456 13.1334M21.39 12.6713L21.39 12.6713C21.3864 12.7214 21.3824 12.7715 21.378 12.8216C21.378 12.8216 21.378 12.8216 21.378 12.8216L21.39 12.6713ZM21.39 12.6713C21.3905 12.6645 21.391 12.6576 21.3915 12.6507C21.3936 12.6224 21.3957 12.5931 21.3974 12.5639L21.39 12.6713ZM21.4116 11.7643L21.4116 11.7654C21.4136 11.8431 21.4149 11.9214 21.4149 12.0001C21.4149 12.0121 21.4145 12.0302 21.4142 12.0458C21.414 12.0559 21.4138 12.065 21.4138 12.0706C21.4138 12.0706 21.4138 12.0706 21.4138 12.0706L21.4116 11.7643ZM21.4116 11.7643L21.4115 11.7623L21.4115 11.7614L21.4116 11.7643ZM21.386 11.264L21.386 11.2642C21.3881 11.2914 21.3899 11.3187 21.3917 11.3452C21.3921 11.351 21.3925 11.3567 21.3928 11.3624L21.2731 11.3704L21.3928 11.3622C21.396 11.4081 21.3988 11.454 21.4012 11.5L21.386 11.264ZM21.386 11.264L21.3847 11.2485L21.3836 11.2354L21.3836 11.2352M21.386 11.264L21.3836 11.2352M21.3836 11.2352C21.2058 9.00803 20.2536 6.93856 18.6566 5.34235M21.3836 11.2352L18.6566 5.34235M14.009 3.66566L14.009 3.66559C14.1729 3.20372 14.6785 2.96052 15.1422 3.12501C16.4727 3.596 17.6482 4.34868 18.6115 5.30118C18.6124 5.30214 18.6134 5.3031 18.6144 5.30407L14.009 3.66566ZM14.009 3.66566C13.8454 4.12747 14.0873 4.63535 14.5496 4.79896C17.3884 5.80418 19.3586 8.38823 19.6115 11.3512L19.7311 11.341L19.6115 11.3509C19.6123 11.3613 19.6131 11.3698 19.6138 11.3779C19.6147 11.3878 19.6155 11.397 19.6164 11.4082L19.6164 11.4083M14.009 3.66566L19.6164 11.4083M19.6164 11.4083C19.6174 11.4214 19.6183 11.4338 19.6191 11.4469M19.6164 11.4083L19.6191 11.4469M19.6287 11.6015L19.6287 11.6014L19.6287 11.6015ZM19.6287 11.6015L19.6295 11.6176M19.6287 11.6015L19.6295 11.6176M19.6365 12.1885L19.6365 12.1884C19.6375 12.1482 19.638 12.1077 19.6384 12.0668L19.6365 12.1885ZM19.6365 12.1885C19.6357 12.2207 19.6348 12.2525 19.6336 12.2841L19.6336 12.2841M19.6365 12.1885L19.6336 12.2841M19.6336 12.2841C19.6315 12.3416 19.6288 12.3988 19.6253 12.4558L19.6253 12.4559M19.6336 12.2841L19.6253 12.4559M19.6253 12.4559C19.6239 12.4805 19.6221 12.5049 19.6203 12.5302C19.6199 12.5354 19.6195 12.5407 19.6191 12.546L19.6191 12.5461M19.6253 12.4559L19.6191 12.5461M19.6191 12.5461C19.6163 12.5859 19.613 12.6258 19.6095 12.6658M19.6191 12.5461L19.6095 12.6658M21.3456 13.1334C21.3526 13.076 21.359 13.0185 21.3649 12.9609L21.3456 13.1334ZM18.6566 5.34235C18.6567 5.34238 18.6567 5.34241 18.6567 5.34244L18.5717 5.42714L18.6566 5.34235ZM19.6191 11.4469C19.6196 11.4547 19.6202 11.4628 19.6208 11.4714L19.6191 11.4469ZM19.6295 11.6176L19.6303 11.6337M19.6295 11.6176L19.6303 11.6337M19.6303 11.6337C19.6303 11.6338 19.6303 11.6338 19.6303 11.6338L19.6303 11.6337ZM19.6095 12.6658C19.6063 12.7025 19.603 12.7388 19.5994 12.7749L19.6095 12.6658ZM21.4111 12.2374L21.4111 12.2374L21.4078 12.3475C21.4092 12.3106 21.4102 12.2738 21.4111 12.2378L21.4111 12.2374ZM19.583 12.9211C19.5789 12.9548 19.5745 12.9884 19.57 13.022L19.583 12.9211Z" fill="#D6BBFB" stroke="#D6BBFB" stroke-width="0.24"/>
<path d="M7.36638 0.360415C7.14079 0.796349 7.31214 1.33166 7.74737 1.55669L7.7474 1.55671L11.1831 3.33168L9.35371 6.87427C9.3537 6.87429 9.35369 6.87431 9.35368 6.87433C9.12852 7.30986 9.29989 7.84559 9.73557 8.07061L9.79063 7.96399L9.73557 8.07061C9.86576 8.13784 10.0049 8.16968 10.1422 8.16968C10.4637 8.16968 10.774 7.99426 10.9322 7.68886L10.9323 7.6887L13.1683 3.35766C13.1683 3.35764 13.1684 3.35762 13.1684 3.3576C13.3935 2.9221 13.2221 2.38684 12.7869 2.16178L12.7869 2.16176L8.56268 -0.0210216L8.56248 -0.021123C8.12607 -0.24561 7.59111 -0.0750715 7.36638 0.360415ZM7.36638 0.360415C7.36639 0.360389 7.36641 0.360364 7.36642 0.360339L7.47299 0.4155L7.36635 0.360479C7.36636 0.360458 7.36637 0.360436 7.36638 0.360415ZM11.3448 3.28014L11.3445 3.27999L11.3445 3.2807L11.3448 3.28014Z" fill="#D6BBFB" stroke="#D6BBFB" stroke-width="0.24"/>
<path d="M4.37577 11.5217L4.37574 11.5221C4.36591 11.6807 4.36097 11.84 4.36097 11.9997C4.36097 15.2283 6.40646 18.1213 9.45079 19.1993C9.9131 19.3629 10.155 19.8708 9.99149 20.3325L9.99145 20.3326C9.86208 20.6967 9.51962 20.9245 9.15409 20.9245C9.05581 20.9245 8.95575 20.9081 8.85787 20.8736L8.85777 20.8735C7.14714 20.2678 5.69288 19.1971 4.61654 17.8345C4.5976 17.8146 4.57809 17.7927 4.55932 17.7685C3.30595 16.1549 2.62639 14.2287 2.58698 12.188L4.37577 11.5217ZM4.37577 11.5217L4.37578 11.5216M4.37577 11.5217L4.37578 11.5216M4.37578 11.5216L4.37583 11.5207M4.37578 11.5216L4.37583 11.5207M4.41121 11.1236L4.41119 11.1238C4.40702 11.1601 4.40304 11.1964 4.39936 11.2327L4.27997 11.2205L4.39939 11.2324C4.39678 11.2587 4.39439 11.2852 4.39195 11.3123C4.39194 11.3123 4.39194 11.3123 4.39194 11.3123L4.41121 11.1236ZM4.41121 11.1236L4.41468 11.0932M4.41121 11.1236L4.41468 11.0932M2.60116 11.4504H2.60116L2.60129 11.4479L2.6016 11.442L2.60116 11.4504ZM2.60116 11.4504L2.60112 11.4511M2.60116 11.4504L2.60112 11.4511M2.60112 11.4511C2.59781 11.5084 2.59487 11.566 2.59258 11.6238M2.60112 11.4511L2.59258 11.6238M4.37583 11.5207L4.37607 11.5172L4.37583 11.5207ZM4.41468 11.0932C4.41469 11.0932 4.4147 11.0931 4.41471 11.093M4.41468 11.0932L4.41471 11.093M4.41471 11.093C4.75684 8.2388 6.69461 5.77448 9.45031 4.79854C9.45033 4.79853 9.45035 4.79853 9.45037 4.79852L9.41032 4.6854L4.41471 11.093ZM2.59258 11.6238C2.592 11.6381 2.59158 11.6535 2.59118 11.6679C2.59096 11.6759 2.59075 11.6836 2.59053 11.6906L2.59258 11.6238ZM9.99105 3.66529C9.82757 3.20271 9.32099 2.96012 8.85772 3.12456C6.13896 4.08719 4.06767 6.22439 3.13246 8.8422C3.12006 8.86898 3.10847 8.8971 3.09832 8.92662L9.99105 3.66529ZM2.59053 11.6906C2.59027 11.6985 2.59001 11.7065 2.58974 11.7146L2.59053 11.6906ZM2.58702 11.8097C2.58574 11.8729 2.58508 11.9362 2.58508 11.9997C2.58508 12.0626 2.58574 12.1253 2.58698 12.1879L2.58702 11.8097Z" fill="#D6BBFB" stroke="#D6BBFB" stroke-width="0.24"/>
<path d="M16.2518 22.4423L16.2518 22.4423L12.8165 20.6685L14.6452 17.1251C14.6452 17.1251 14.6452 17.1251 14.6452 17.125C14.8703 16.6892 14.699 16.1539 14.2634 15.9289C13.8267 15.7026 13.2919 15.8762 13.0671 16.3106L13.067 16.3107L10.8309 20.643C10.8309 20.643 10.8309 20.643 10.8309 20.643C10.6058 21.0789 10.7771 21.6143 11.2128 21.8393L11.2676 21.7331L11.2128 21.8393L15.437 24.0209C15.5672 24.0881 15.7064 24.1199 15.8436 24.1199C16.1651 24.1199 16.4755 23.945 16.6337 23.6385C16.8589 23.203 16.6875 22.6673 16.2518 22.4423Z" fill="#D6BBFB" stroke="#D6BBFB" stroke-width="0.24"/>
</g>
<defs>
<clipPath id="clip0_13484_43328">
<rect width="24" height="24" fill="white"/>
</clipPath>
</defs>
</svg>
