<svg width="28" height="26" viewBox="0 0 28 26" fill="none" xmlns="http://www.w3.org/2000/svg">
<path d="M11.383 15.0121L11.4962 15.1252L11.6093 15.0121L22.1632 4.45816L23.4402 5.72607L11.4961 17.6806L7.19977 13.3843L8.4775 12.1066L11.383 15.0121ZM4.30683 13.0003C4.30683 17.7927 8.2078 21.6936 13.0002 21.6936C14.2326 21.6936 15.4037 21.4282 16.4639 20.957L17.8333 22.3264C16.3868 23.0826 14.742 23.507 13.0002 23.507C7.20053 23.507 2.4935 18.7999 2.4935 13.0003C2.4935 7.20065 7.20053 2.49362 13.0002 2.49362C15.1693 2.49362 17.1806 3.15488 18.8623 4.27718L17.5425 5.59703C16.2183 4.7805 14.6607 4.30695 13.0002 4.30695C8.2078 4.30695 4.30683 8.20792 4.30683 13.0003Z" fill="#667085" stroke="white" stroke-width="0.32"/>
<path d="M25.3733 19.3998V18.5465C25.3733 18.0939 25.1935 17.6598 24.8734 17.3397C24.5534 17.0197 24.1193 16.8398 23.6666 16.8398H20.2533C19.8007 16.8398 19.3666 17.0197 19.0465 17.3397C18.7264 17.6598 18.5466 18.0939 18.5466 18.5465V19.3998M23.6666 13.4265C23.6666 14.3691 22.9025 15.1332 21.96 15.1332C21.0174 15.1332 20.2533 14.3691 20.2533 13.4265C20.2533 12.4839 21.0174 11.7198 21.96 11.7198C22.9025 11.7198 23.6666 12.4839 23.6666 13.4265Z" stroke="#667085" stroke-width="1.12" stroke-linecap="square" stroke-linejoin="round"/>
</svg>
