<svg width="48" height="48" viewBox="0 0 48 48" fill="none" xmlns="http://www.w3.org/2000/svg">
<rect width="48" height="48" rx="6" fill="#6941C6"/>
<path d="M19.6279 25.8653L23.2855 23.6354V18.9824" stroke="#D6BBFB" stroke-width="1.5" stroke-linecap="round" stroke-linejoin="round"/>
<path d="M22.9993 32.002C18.1563 32.0038 14.1795 28.1742 13.9986 23.3345C13.8177 18.4949 17.4976 14.3791 22.3272 14.0194C27.1569 13.6596 31.4059 17.1848 31.944 21.9978" stroke="#D6BBFB" stroke-width="1.5" stroke-linecap="round" stroke-linejoin="round"/>
<path fill-rule="evenodd" clip-rule="evenodd" d="M32.0035 33.0033H28.0018C26.8968 33.0033 26.001 32.1075 26.001 31.0025V27.0008C26.001 25.8958 26.8968 25 28.0018 25H32.0035C33.1085 25 34.0043 25.8958 34.0043 27.0008V31.0025C34.0043 32.1075 33.1085 33.0033 32.0035 33.0033Z" stroke="#D6BBFB" stroke-width="1.5" stroke-linecap="round" stroke-linejoin="round"/>
<path d="M31.0028 28L29.002 30.0008" stroke="#D6BBFB" stroke-width="1.5" stroke-linecap="round" stroke-linejoin="round"/>
<path d="M29.002 28L31.0028 30.0008" stroke="#D6BBFB" stroke-width="1.5" stroke-linecap="round" stroke-linejoin="round"/>
</svg>
