<svg width="40" height="40" viewBox="0 0 40 40" fill="none" xmlns="http://www.w3.org/2000/svg">
<g clip-path="url(#clip0_5_63039)">
<path d="M20 40C31.0457 40 40 31.0457 40 20C40 8.9543 31.0457 0 20 0C8.9543 0 0 8.9543 0 20C0 31.0457 8.9543 40 20 40Z" fill="#D80027"/>
<path d="M19.1813 16.3418L20.8224 18.6031L23.4799 17.7414L21.8364 20.0008L23.4771 22.262L20.8205 21.397L19.177 23.6564L19.1787 20.8626L16.522 19.9976L19.1796 19.1359L19.1813 16.3418Z" fill="#F0F0F0"/>
<path d="M14.7031 25.651C11.5816 25.651 9.05096 23.1204 9.05096 19.9988C9.05096 16.8772 11.5816 14.3466 14.7031 14.3466C15.6764 14.3466 16.5922 14.5928 17.3917 15.026C16.1374 13.7993 14.4221 13.0422 12.5292 13.0422C8.68721 13.0422 5.57275 16.1568 5.57275 19.9987C5.57275 23.8407 8.68729 26.9552 12.5292 26.9552C14.4222 26.9552 16.1375 26.1981 17.3917 24.9715C16.5922 25.4048 15.6764 25.651 14.7031 25.651Z" fill="#F0F0F0"/>
</g>
<defs>
<clipPath id="clip0_5_63039">
<rect width="40" height="40" fill="white"/>
</clipPath>
</defs>
</svg>
