<svg width="24" height="24" viewBox="0 0 24 24" fill="none" xmlns="http://www.w3.org/2000/svg">
<path d="M7.62793 13.8653L11.2855 11.6354V6.98242" stroke="#D6BBFB" stroke-width="1.5" stroke-linecap="round" stroke-linejoin="round"/>
<path d="M10.9993 20.002C6.15627 20.0038 2.17945 16.1742 1.99858 11.3345C1.8177 6.49486 5.49757 2.37913 10.3272 2.01939C15.1569 1.65965 19.4059 5.18478 19.944 9.99785" stroke="#D6BBFB" stroke-width="1.5" stroke-linecap="round" stroke-linejoin="round"/>
<path fill-rule="evenodd" clip-rule="evenodd" d="M20.0035 21.0033H16.0018C14.8968 21.0033 14.001 20.1075 14.001 19.0025V15.0008C14.001 13.8958 14.8968 13 16.0018 13H20.0035C21.1085 13 22.0043 13.8958 22.0043 15.0008V19.0025C22.0043 20.1075 21.1085 21.0033 20.0035 21.0033Z" stroke="#D6BBFB" stroke-width="1.5" stroke-linecap="round" stroke-linejoin="round"/>
<path d="M19.0028 16L17.002 18.0008" stroke="#D6BBFB" stroke-width="1.5" stroke-linecap="round" stroke-linejoin="round"/>
<path d="M17.002 16L19.0028 18.0008" stroke="#D6BBFB" stroke-width="1.5" stroke-linecap="round" stroke-linejoin="round"/>
</svg>
