<svg width="72" height="14" viewBox="0 0 72 14" fill="none" xmlns="http://www.w3.org/2000/svg">
<g clip-path="url(#clip0_8348_168394)">
<path d="M20.8836 11.0264C20.2182 11.0264 19.6303 10.9079 19.1198 10.6709C18.6095 10.4339 18.2061 10.0534 17.9098 9.5293C17.6136 9.00065 17.4656 8.32389 17.4656 7.49902V3.71875H19.5573V7.43066C19.5573 8.53353 19.9995 9.08496 20.8836 9.08496C21.7722 9.08496 22.2165 8.53353 22.2165 7.43066V3.71875H24.3015V7.49902C24.3015 8.32389 24.1534 9.00065 23.8572 9.5293C23.5609 10.0534 23.1576 10.4339 22.6472 10.6709C22.1368 10.9079 21.5489 11.0264 20.8836 11.0264Z" fill="black"/>
<path d="M10.7937 3.71875V4.61426C11.0489 4.25423 11.3657 3.97851 11.7439 3.7871C12.1222 3.5957 12.5209 3.5 12.9402 3.5C13.601 3.5 14.1889 3.66862 14.7039 4.00585C15.2234 4.34309 15.6267 4.79883 15.9138 5.37305C16.2055 5.94726 16.3513 6.57617 16.3513 7.25976C16.3513 7.94792 16.2055 8.58138 15.9138 9.16015C15.6267 9.73438 15.2257 10.1901 14.7108 10.5273C14.1957 10.8646 13.617 11.0332 12.9744 11.0332C12.5324 11.0332 12.1245 10.9352 11.7507 10.7393C11.3816 10.5433 11.0831 10.2835 10.8552 9.95996L10.8962 10.8145V13.2207H8.79077V3.71875H10.7937ZM12.5779 9.09864C12.8832 9.09864 13.1635 9.02799 13.4187 8.88672C13.6785 8.74089 13.8858 8.52896 14.0407 8.25097C14.1957 7.97298 14.2733 7.64258 14.2733 7.25976C14.2733 6.89063 14.1957 6.56705 14.0407 6.28906C13.8904 6.01106 13.6853 5.79915 13.4256 5.65332C13.1657 5.50292 12.8786 5.42773 12.5642 5.42773C12.2543 5.42773 11.9695 5.50976 11.7097 5.67383C11.4545 5.83333 11.2517 6.05436 11.1013 6.33691C10.9509 6.61491 10.8757 6.92252 10.8757 7.25976C10.8757 7.61523 10.9532 7.93424 11.1082 8.2168C11.2631 8.49479 11.4705 8.71126 11.7302 8.86621C11.99 9.02116 12.2725 9.09864 12.5779 9.09864Z" fill="black"/>
<path d="M3.83472 11.0264C3.16936 11.0264 2.58146 10.9079 2.07105 10.6709C1.56063 10.4339 1.15731 10.0534 0.861084 9.5293C0.56486 9.00065 0.416748 8.32389 0.416748 7.49902V3.71875H2.50855V7.43066C2.50855 8.53353 2.95061 9.08496 3.83472 9.08496C4.72339 9.08496 5.16773 8.53353 5.16773 7.43066V3.71875H7.25269V7.49902C7.25269 8.32389 7.10457 9.00065 6.80835 9.5293C6.51213 10.0534 6.10881 10.4339 5.59839 10.6709C5.08798 10.9079 4.50008 11.0264 3.83472 11.0264Z" fill="black"/>
<path d="M28.7201 8.34717H26.5955V10.4998H28.7201V8.34717Z" fill="black"/>
<path d="M34.729 10.5C34.0591 10.5 33.5031 10.3154 33.061 9.94629C32.619 9.57259 32.398 8.86621 32.398 7.82714V4.89453H30.9419V3.47265H32.398V1.41504L34.0522 1.40136V3.47265H36.1577V4.89453H34.0522V7.90235C34.0522 8.7181 34.3918 9.12598 35.0708 9.12598H36.1577V10.5H34.729ZM40.1157 10.7119C39.496 10.7119 38.9331 10.5456 38.4272 10.2129C37.9215 9.88021 37.5249 9.42903 37.2378 8.85937C36.9507 8.28971 36.8072 7.66536 36.8072 6.98633C36.8072 6.31185 36.9507 5.68977 37.2378 5.12011C37.5295 4.55045 37.926 4.09928 38.4272 3.76661C38.9331 3.42936 39.4937 3.26074 40.109 3.26074C40.6831 3.26074 41.1913 3.38606 41.6333 3.63672C42.0799 3.88281 42.4172 4.2246 42.6451 4.6621V3.47265H44.2173V10.5H42.6451V9.31738C42.4172 9.75488 42.0799 10.0967 41.6333 10.3428C41.1913 10.5889 40.6854 10.7119 40.1157 10.7119ZM40.5123 9.18066C40.8905 9.18066 41.2368 9.08496 41.5513 8.89356C41.8703 8.69759 42.121 8.43327 42.3032 8.10059C42.4856 7.76335 42.5767 7.39193 42.5767 6.98633C42.5767 6.58528 42.4833 6.21843 42.2965 5.88574C42.1141 5.5485 41.8657 5.2819 41.5513 5.08594C41.2368 4.88998 40.8905 4.79199 40.5123 4.79199C40.1339 4.79199 39.7877 4.88542 39.4731 5.07227C39.1587 5.25456 38.9081 5.51204 38.7212 5.84473C38.5389 6.17741 38.4478 6.55794 38.4478 6.98633C38.4478 7.42839 38.5412 7.81576 38.7281 8.14844C38.9149 8.48112 39.1656 8.73633 39.48 8.91406C39.7944 9.0918 40.1385 9.18066 40.5123 9.18066ZM46.1656 0.868164H47.8198V10.5H46.1656V0.868164ZM56.4469 6.86328C56.4469 7.01822 56.4354 7.20508 56.4127 7.42383H50.9234C50.9781 7.79752 51.0965 8.1211 51.2789 8.39453C51.4657 8.66797 51.6958 8.87761 51.9693 9.02344C52.2472 9.16471 52.5481 9.23536 52.8716 9.23536C53.2818 9.23536 53.6168 9.1556 53.8765 8.9961C54.1408 8.83203 54.3345 8.59733 54.4576 8.29199H56.2623C56.1392 8.72494 55.9227 9.12598 55.6128 9.49511C55.3029 9.86426 54.9133 10.1605 54.4439 10.3838C53.979 10.6025 53.4664 10.7119 52.9058 10.7119C52.2177 10.7119 51.5956 10.5456 51.0396 10.2129C50.4836 9.88021 50.0484 9.42903 49.734 8.85937C49.4194 8.28971 49.2623 7.66536 49.2623 6.98633C49.2623 6.30729 49.4194 5.68294 49.734 5.11328C50.0484 4.54362 50.4836 4.09244 51.0396 3.75977C51.5956 3.42708 52.2177 3.26074 52.9058 3.26074C53.5939 3.26074 54.2069 3.42481 54.7447 3.75293C55.2824 4.08106 55.6994 4.52083 55.9956 5.07227C56.2965 5.61914 56.4469 6.21614 56.4469 6.86328ZM54.7583 6.14551C54.7356 5.88574 54.6376 5.64648 54.4643 5.42773C54.2912 5.20443 54.0656 5.02897 53.7877 4.90136C53.5142 4.7692 53.218 4.70312 52.8989 4.70312C52.4569 4.70312 52.0604 4.82617 51.7095 5.07227C51.3631 5.3138 51.1239 5.67155 50.9918 6.14551H54.7583ZM59.3726 3.47265V4.5664C59.5777 4.17447 59.8944 3.86002 60.3228 3.62305C60.7557 3.38151 61.2388 3.26074 61.772 3.26074C62.7063 3.26074 63.4103 3.55697 63.8844 4.14941C64.3583 4.74186 64.5952 5.59636 64.5952 6.71289V10.5H62.941V6.74707C62.941 6.07259 62.7997 5.57812 62.5171 5.26367C62.2346 4.94466 61.8335 4.78515 61.314 4.78515C60.9813 4.78515 60.6737 4.86947 60.3911 5.03809C60.1086 5.20214 59.8807 5.44596 59.7076 5.76953C59.5389 6.08854 59.4546 6.46907 59.4546 6.91113V10.5H57.8003V3.47265H59.3726ZM69.2231 10.5C68.5532 10.5 67.9972 10.3154 67.5552 9.94629C67.1131 9.57259 66.8921 8.86621 66.8921 7.82714V4.89453H65.436V3.47265H66.8921V1.41504L68.5465 1.40136V3.47265H70.6518V4.89453H68.5465V7.90235C68.5465 8.7181 68.886 9.12598 69.565 9.12598H70.6518V10.5H69.2231Z" fill="#15B79E"/>
</g>
<defs>
<clipPath id="clip0_8348_168394">
<rect width="71.1667" height="14" fill="white" transform="translate(0.416748)"/>
</clipPath>
</defs>
</svg>
