<svg width="119" height="28" viewBox="0 0 119 28" fill="none" xmlns="http://www.w3.org/2000/svg">
<path d="M56.4941 17.71H52.2449V21.8696H56.4941V17.71Z" fill="#101828"/>
<path d="M6.83594 21.8545C5.50522 21.8545 4.32943 21.6175 3.3086 21.1435C2.28776 20.6696 1.48112 19.9085 0.888671 18.8604C0.296224 17.8031 0 16.4495 0 14.7998V7.23926H4.1836V14.6631C4.1836 16.8688 5.06772 17.9717 6.83594 17.9717C8.61329 17.9717 9.50196 16.8688 9.50196 14.6631V7.23926H13.6719V14.7998C13.6719 16.4495 13.3756 17.8031 12.7832 18.8604C12.1908 19.9085 11.3841 20.6696 10.3633 21.1435C9.34246 21.6175 8.16667 21.8545 6.83594 21.8545Z" fill="#101828"/>
<path d="M20.7534 7.23926V9.03028C21.2638 8.31021 21.8973 7.7588 22.6538 7.37597C23.4103 6.99316 24.2079 6.80176 25.0465 6.80176C26.3681 6.80176 27.5438 7.13899 28.5738 7.81347C29.6128 8.48796 30.4194 9.39941 30.9937 10.5479C31.577 11.6963 31.8687 12.9541 31.8687 14.3213C31.8687 15.6976 31.577 16.9645 30.9937 18.1221C30.4194 19.2705 29.6175 20.182 28.5875 20.8565C27.5574 21.5309 26.4 21.8682 25.1148 21.8682C24.2307 21.8682 23.415 21.6722 22.6675 21.2803C21.9292 20.8883 21.3322 20.3688 20.8765 19.7217L20.9585 21.4307V26.2432H16.7476V7.23926H20.7534ZM24.3217 17.999C24.9324 17.999 25.4931 17.8577 26.0034 17.5752C26.523 17.2835 26.9376 16.8597 27.2475 16.3037C27.5574 15.7477 27.7125 15.0869 27.7125 14.3213C27.7125 13.583 27.5574 12.9359 27.2475 12.3799C26.9467 11.8239 26.5365 11.4001 26.0171 11.1084C25.4975 10.8076 24.9233 10.6572 24.2944 10.6572C23.6747 10.6572 23.105 10.8213 22.5855 11.1494C22.075 11.4684 21.6694 11.9105 21.3687 12.4756C21.0679 13.0316 20.9175 13.6468 20.9175 14.3213C20.9175 15.0322 21.0724 15.6702 21.3823 16.2354C21.6922 16.7913 22.1069 17.2243 22.6265 17.5342C23.146 17.8441 23.7111 17.999 24.3217 17.999Z" fill="#101828"/>
<path d="M40.9336 21.8545C39.6029 21.8545 38.4272 21.6175 37.4061 21.1435C36.3855 20.6696 35.5786 19.9085 34.9862 18.8604C34.3938 17.8031 34.0977 16.4495 34.0977 14.7998V7.23926H38.2811V14.6631C38.2811 16.8688 39.1654 17.9717 40.9336 17.9717C42.7109 17.9717 43.5995 16.8688 43.5995 14.6631V7.23926H47.7696V14.7998C47.7696 16.4495 47.4733 17.8031 46.8808 18.8604C46.2884 19.9085 45.4818 20.6696 44.4609 21.1435C43.4401 21.6175 42.2643 21.8545 40.9336 21.8545Z" fill="#101828"/>
<path d="M68.4778 21.8839C67.1378 21.8839 66.0259 21.5148 65.1418 20.7765C64.2577 20.0291 63.8156 18.6164 63.8156 16.5382V10.673H60.9036V7.82925H63.8156V3.71402L67.1242 3.68668V7.82925H71.3352V10.673H67.1242V16.6886C67.1242 18.3202 67.8032 19.1359 69.1612 19.1359H71.3352V21.8839H68.4778Z" fill="#7F56D9"/>
<path d="M72.6914 7.84H76.2462L78.9942 16.7541L79.2404 17.5881H79.2812L79.5411 16.7541L82.207 7.84H84.6544L87.2246 16.6584L87.5118 17.5881H87.5529L87.8809 16.6037L90.6289 7.84H94.1154L89.3712 21.8947H86.3087L83.3827 12.7892H83.3692L80.4024 21.8947H77.422L72.6914 7.84Z" fill="#7F56D9"/>
<path d="M96.8796 7.84H100.188V21.8947H96.8796V7.84Z" fill="#7F56D9"/>
<path d="M107.916 7.84384V10.0313C108.326 9.24748 108.96 8.61858 109.816 8.14463C110.682 7.66156 111.648 7.42001 112.715 7.42001C114.583 7.42001 115.991 8.01247 116.939 9.19736C117.887 10.3823 118.361 12.0912 118.361 14.3243V21.8985H115.053V14.3927C115.053 13.0437 114.77 12.0548 114.205 11.4259C113.64 10.7879 112.838 10.4688 111.799 10.4688C111.133 10.4688 110.518 10.6375 109.953 10.9747C109.388 11.3028 108.932 11.7905 108.586 12.4376C108.249 13.0756 108.08 13.8367 108.08 14.7208V21.8985H104.771V7.84384H107.916Z" fill="#7F56D9"/>
<path d="M100.193 2.09976H96.8801V5.4831H100.193V2.09976Z" fill="#7F56D9"/>
</svg>
