<svg width="68" height="14" viewBox="0 0 68 14" fill="none" xmlns="http://www.w3.org/2000/svg">
<g clip-path="url(#clip0_8348_168382)">
<path d="M21.2168 11.0264C20.5515 11.0264 19.9636 10.9079 19.453 10.6709C18.9427 10.4339 18.5393 10.0534 18.2431 9.5293C17.9469 9.00065 17.7988 8.32389 17.7988 7.49902V3.71875H19.8905V7.43066C19.8905 8.53353 20.3327 9.08496 21.2168 9.08496C22.1055 9.08496 22.5497 8.53353 22.5497 7.43066V3.71875H24.6348V7.49902C24.6348 8.32389 24.4866 9.00065 24.1904 9.5293C23.8942 10.0534 23.4909 10.4339 22.9805 10.6709C22.47 10.9079 21.8822 11.0264 21.2168 11.0264Z" fill="black"/>
<path d="M11.127 3.71875V4.61426C11.3822 4.25423 11.6989 3.97851 12.0771 3.7871C12.4554 3.5957 12.8542 3.5 13.2735 3.5C13.9343 3.5 14.5222 3.66862 15.0371 4.00585C15.5566 4.34309 15.96 4.79883 16.2471 5.37305C16.5387 5.94726 16.6846 6.57617 16.6846 7.25976C16.6846 7.94792 16.5387 8.58138 16.2471 9.16015C15.96 9.73438 15.559 10.1901 15.044 10.5273C14.5289 10.8646 13.9503 11.0332 13.3077 11.0332C12.8656 11.0332 12.4577 10.9352 12.084 10.7393C11.7149 10.5433 11.4163 10.2835 11.1885 9.95996L11.2295 10.8145V13.2207H9.12402V3.71875H11.127ZM12.9111 9.09864C13.2164 9.09864 13.4968 9.02799 13.7519 8.88672C14.0117 8.74089 14.2191 8.52896 14.374 8.25097C14.5289 7.97298 14.6065 7.64258 14.6065 7.25976C14.6065 6.89063 14.5289 6.56705 14.374 6.28906C14.2236 6.01106 14.0185 5.79915 13.7588 5.65332C13.499 5.50292 13.2119 5.42773 12.8975 5.42773C12.5876 5.42773 12.3027 5.50976 12.043 5.67383C11.7878 5.83333 11.585 6.05436 11.4346 6.33691C11.2842 6.61491 11.209 6.92252 11.209 7.25976C11.209 7.61523 11.2865 7.93424 11.4414 8.2168C11.5964 8.49479 11.8037 8.71126 12.0635 8.86621C12.3232 9.02116 12.6058 9.09864 12.9111 9.09864Z" fill="black"/>
<path d="M4.16797 11.0264C3.50261 11.0264 2.91472 10.9079 2.4043 10.6709C1.89388 10.4339 1.49056 10.0534 1.19434 9.5293C0.898112 9.00065 0.75 8.32389 0.75 7.49902V3.71875H2.8418V7.43066C2.8418 8.53353 3.28386 9.08496 4.16797 9.08496C5.05665 9.08496 5.50098 8.53353 5.50098 7.43066V3.71875H7.58594V7.49902C7.58594 8.32389 7.43782 9.00065 7.14161 9.5293C6.84538 10.0534 6.44206 10.4339 5.93165 10.6709C5.42123 10.9079 4.83333 11.0264 4.16797 11.0264Z" fill="black"/>
<path d="M29.0533 8.34717H26.9287V10.4998H29.0533V8.34717Z" fill="black"/>
<path d="M33.743 3.47266V4.65527C33.9981 4.22689 34.3376 3.88965 34.7615 3.64356C35.1899 3.3929 35.6547 3.26758 36.156 3.26758C36.8077 3.26758 37.3934 3.43392 37.9129 3.76661C38.4369 4.09928 38.8448 4.55046 39.1365 5.12012C39.4327 5.68523 39.5809 6.30729 39.5809 6.98633C39.5809 7.66993 39.4327 8.29655 39.1365 8.86621C38.8403 9.43131 38.4324 9.88021 37.9129 10.2129C37.3979 10.5456 36.8191 10.7119 36.1765 10.7119C35.6707 10.7119 35.2059 10.5911 34.782 10.3496C34.3582 10.1035 34.0278 9.7754 33.7908 9.36523L33.825 10.1787V12.8994H32.1707V3.47266H33.743ZM35.8758 9.1875C36.2494 9.1875 36.5935 9.09864 36.908 8.9209C37.2224 8.7386 37.473 8.48112 37.6599 8.14845C37.8467 7.81576 37.9402 7.42839 37.9402 6.98633C37.9402 6.55794 37.8467 6.17741 37.6599 5.84473C37.4776 5.51205 37.227 5.25456 36.908 5.07227C36.5935 4.88542 36.2471 4.79199 35.8689 4.79199C35.4952 4.79199 35.1488 4.88998 34.8298 5.08595C34.5154 5.27735 34.2647 5.54167 34.0779 5.87891C33.8956 6.21614 33.8045 6.58529 33.8045 6.98633C33.8045 7.40561 33.8979 7.78386 34.0847 8.1211C34.2716 8.45377 34.5222 8.71582 34.8367 8.90723C35.1557 9.09408 35.5021 9.1875 35.8758 9.1875ZM44.2224 10.7119C43.5251 10.7119 42.894 10.5456 42.3288 10.2129C41.7684 9.88021 41.3285 9.43131 41.0096 8.86621C40.6905 8.29655 40.531 7.66993 40.531 6.98633C40.531 6.30729 40.6905 5.68294 41.0096 5.11328C41.3285 4.54362 41.7684 4.09245 42.3288 3.75977C42.894 3.42709 43.5275 3.26074 44.2292 3.26074C44.9356 3.26074 45.5713 3.42709 46.1365 3.75977C46.7016 4.09245 47.1437 4.54362 47.4626 5.11328C47.7817 5.68294 47.9412 6.30729 47.9412 6.98633C47.9412 7.66993 47.7817 8.29655 47.4626 8.86621C47.1437 9.43587 46.6993 9.88705 46.1297 10.2197C45.5646 10.5479 44.9289 10.7119 44.2224 10.7119ZM44.2361 9.17383C44.628 9.17383 44.9789 9.0804 45.2888 8.89356C45.6033 8.70671 45.8494 8.44694 46.0272 8.11426C46.2094 7.78158 46.3005 7.40561 46.3005 6.98633C46.3005 6.57161 46.2094 6.19792 46.0272 5.86523C45.8494 5.528 45.6033 5.26595 45.2888 5.07911C44.9744 4.88769 44.6234 4.79199 44.2361 4.79199C43.8488 4.79199 43.4978 4.88769 43.1834 5.07911C42.8689 5.26595 42.6205 5.528 42.4383 5.86523C42.2605 6.19792 42.1717 6.57161 42.1717 6.98633C42.1717 7.40561 42.2605 7.78158 42.4383 8.11426C42.6205 8.44694 42.8667 8.70671 43.1765 8.89356C43.4909 9.0804 43.8442 9.17383 44.2361 9.17383ZM49.3835 3.47266H51.0379V10.5H49.3835V3.47266ZM54.5515 3.47266V4.56641C54.7566 4.17448 55.0734 3.86002 55.5018 3.62305C55.9346 3.38152 56.4177 3.26074 56.9509 3.26074C57.8852 3.26074 58.5892 3.55697 59.0633 4.14942C59.5372 4.74186 59.7742 5.59636 59.7742 6.7129V10.5H58.1199V6.74707C58.1199 6.0726 57.9786 5.57813 57.696 5.26368C57.4135 4.94466 57.0125 4.78516 56.493 4.78516C56.1602 4.78516 55.8526 4.86947 55.57 5.03809C55.2876 5.20215 55.0596 5.44597 54.8865 5.76953C54.7179 6.08854 54.6335 6.46908 54.6335 6.91114V10.5H52.9792V3.47266H54.5515ZM64.4022 10.5C63.7321 10.5 63.1762 10.3154 62.7342 9.94629C62.2921 9.5726 62.071 8.86621 62.071 7.82715V4.89453H60.615V3.47266H62.071V1.41504L63.7254 1.40137V3.47266H65.8309V4.89453H63.7254V7.90235C63.7254 8.71811 64.0649 9.12598 64.7439 9.12598H65.8309V10.5H64.4022Z" fill="#15B79E"/>
<path d="M51.0217 0.933105H49.3767V2.60144H51.0217V0.933105Z" fill="#15B79E"/>
</g>
<defs>
<clipPath id="clip0_8348_168382">
<rect width="66.5" height="14" fill="white" transform="translate(0.75)"/>
</clipPath>
</defs>
</svg>
