<svg width="99" height="19" viewBox="0 0 99 19" fill="none" xmlns="http://www.w3.org/2000/svg">
<path d="M26.3145 14.6768C25.459 14.6768 24.7032 14.5244 24.0468 14.2197C23.3907 13.915 22.872 13.4258 22.4911 12.752C22.1103 12.0723 21.9199 11.2021 21.9199 10.1416V5.28125H24.6093V10.0537C24.6093 11.4717 25.1778 12.1807 26.3145 12.1807C27.457 12.1807 28.0282 11.4717 28.0282 10.0537V5.28125H30.709V10.1416C30.709 11.2021 30.5185 12.0723 30.1377 12.752C29.7568 13.4258 29.2383 13.915 28.582 14.2197C27.9258 14.5244 27.1699 14.6768 26.3145 14.6768Z" fill="#101828"/>
<path d="M13.3418 5.28125V6.43262C13.6699 5.96972 14.0772 5.61522 14.5635 5.36913C15.0498 5.12304 15.5625 5 16.1016 5C16.9512 5 17.7071 5.21679 18.3692 5.65038C19.0371 6.08397 19.5557 6.66992 19.9248 7.40821C20.2998 8.14648 20.4873 8.95508 20.4873 9.83397C20.4873 10.7188 20.2998 11.5332 19.9248 12.2773C19.5557 13.0156 19.0401 13.6016 18.378 14.0352C17.7158 14.4688 16.9718 14.6855 16.1456 14.6855C15.5772 14.6855 15.0528 14.5596 14.5723 14.3076C14.0977 14.0557 13.7139 13.7217 13.4209 13.3057L13.4736 14.4043V17.498H10.7666V5.28125H13.3418ZM15.6357 12.1982C16.0283 12.1982 16.3887 12.1074 16.7168 11.9258C17.0508 11.7383 17.3174 11.4658 17.5166 11.1084C17.7158 10.751 17.8155 10.3262 17.8155 9.83397C17.8155 9.35938 17.7158 8.94335 17.5166 8.58593C17.3232 8.22851 17.0595 7.95605 16.7256 7.76855C16.3916 7.57518 16.0224 7.47851 15.6182 7.47851C15.2198 7.47851 14.8535 7.58397 14.5195 7.79492C14.1914 8 13.9307 8.28418 13.7373 8.64746C13.544 9.00488 13.4473 9.40038 13.4473 9.83397C13.4473 10.291 13.5469 10.7012 13.7461 11.0645C13.9453 11.4219 14.2119 11.7002 14.5459 11.8994C14.8799 12.0986 15.2432 12.1982 15.6357 12.1982Z" fill="#101828"/>
<path d="M4.39454 14.6768C3.53907 14.6768 2.78321 14.5244 2.12696 14.2197C1.4707 13.915 0.952149 13.4258 0.571289 12.752C0.190429 12.0723 0 11.2021 0 10.1416V5.28125H2.68946V10.0537C2.68946 11.4717 3.25782 12.1807 4.39454 12.1807C5.53712 12.1807 6.10841 11.4717 6.10841 10.0537V5.28125H8.78907V10.1416C8.78907 11.2021 8.59863 12.0723 8.21778 12.752C7.83692 13.4258 7.31837 13.915 6.66212 14.2197C6.00587 14.5244 5.25 14.6768 4.39454 14.6768Z" fill="#101828"/>
<path d="M36.3901 11.2322H33.6584V13.9999H36.3901V11.2322Z" fill="#101828"/>
<path d="M42.4195 4.96484V6.48535C42.7475 5.93458 43.1841 5.50097 43.729 5.18458C44.2798 4.8623 44.8774 4.70117 45.5219 4.70117C46.3598 4.70117 47.1129 4.91504 47.7808 5.34278C48.4546 5.77051 48.979 6.35059 49.354 7.08301C49.7348 7.80958 49.9254 8.60938 49.9254 9.48242C49.9254 10.3613 49.7348 11.167 49.354 11.8994C48.9731 12.626 48.4488 13.2031 47.7808 13.6309C47.1187 14.0586 46.3746 14.2725 45.5484 14.2725C44.898 14.2725 44.3003 14.1172 43.7554 13.8066C43.2104 13.4902 42.7857 13.0684 42.481 12.541L42.525 13.5869V17.0849H40.3979V4.96484H42.4195ZM45.1616 12.3125C45.6421 12.3125 46.0844 12.1982 46.4888 11.9697C46.8931 11.7353 47.2153 11.4043 47.4556 10.9766C47.6958 10.5488 47.8159 10.0508 47.8159 9.48242C47.8159 8.93164 47.6958 8.44238 47.4556 8.01466C47.2212 7.58692 46.8989 7.25587 46.4888 7.02149C46.0844 6.78125 45.6391 6.66113 45.1528 6.66113C44.6724 6.66113 44.227 6.78712 43.8169 7.03907C43.4127 7.28516 43.0903 7.625 42.8501 8.05859C42.6157 8.49218 42.4985 8.9668 42.4985 9.48242C42.4985 10.0215 42.6187 10.5078 42.8588 10.9414C43.0991 11.3691 43.4213 11.7061 43.8257 11.9522C44.2358 12.1924 44.6812 12.3125 45.1616 12.3125ZM60.3842 9.32422C60.3842 9.52343 60.3697 9.76367 60.3403 10.0449H53.2828C53.353 10.5254 53.5054 10.9414 53.7397 11.293C53.98 11.6445 54.276 11.9141 54.6274 12.1016C54.9849 12.2832 55.3715 12.374 55.7876 12.374C56.3149 12.374 56.7456 12.2715 57.0796 12.0664C57.4195 11.8555 57.6685 11.5537 57.8266 11.1611H60.1469C59.9888 11.7178 59.7105 12.2334 59.3121 12.708C58.9137 13.1826 58.4126 13.5635 57.809 13.8506C57.2114 14.1318 56.5522 14.2725 55.8316 14.2725C54.9468 14.2725 54.1469 14.0586 53.4322 13.6309C52.7173 13.2031 52.1578 12.623 51.7534 11.8906C51.3492 11.1582 51.1469 10.3555 51.1469 9.48242C51.1469 8.60938 51.3492 7.80664 51.7534 7.07422C52.1578 6.3418 52.7173 5.76172 53.4322 5.33399C54.1469 4.90625 54.9468 4.69238 55.8316 4.69238C56.7163 4.69238 57.5044 4.90333 58.1957 5.3252C58.8872 5.74708 59.4233 6.3125 59.8042 7.02149C60.1909 7.72462 60.3842 8.49218 60.3842 9.32422ZM58.2134 8.40137C58.184 8.06738 58.0581 7.75976 57.8354 7.47851C57.6128 7.19141 57.3227 6.96583 56.9653 6.80176C56.6138 6.63184 56.2328 6.54688 55.8227 6.54688C55.2544 6.54688 54.7447 6.70508 54.2935 7.02149C53.8482 7.33204 53.5405 7.792 53.3705 8.40137H58.2134ZM64.1636 4.96484V6.59962C64.3804 6.08984 64.6939 5.69141 65.104 5.4043C65.5201 5.11133 66.0151 4.96484 66.5893 4.96484H67.5562V6.79297H66.7036C66.2173 6.79297 65.7895 6.91016 65.4204 7.14454C65.0514 7.37891 64.7641 7.72168 64.559 8.17285C64.354 8.62403 64.2516 9.16601 64.2516 9.79883V14H62.1246V4.96484H64.1636ZM71.9859 14.2725C71.1421 14.2725 70.4272 14.126 69.8413 13.833C69.2554 13.54 68.8189 13.1533 68.5318 12.6728C68.2447 12.1924 68.1011 11.6768 68.1011 11.126L70.1401 11.1348C70.1578 11.5684 70.3248 11.9199 70.6411 12.1895C70.9635 12.4531 71.4175 12.585 72.0034 12.585C72.5367 12.585 72.938 12.4853 73.2076 12.2861C73.477 12.0811 73.6119 11.7998 73.6119 11.4424C73.6119 11.1963 73.5415 11 73.4009 10.8535C73.2602 10.7012 73.0552 10.584 72.7857 10.502C72.5161 10.4199 72.1558 10.3438 71.7046 10.2734C70.7203 10.1445 69.935 9.86329 69.3491 9.42968C68.7633 8.99609 68.4703 8.34571 68.4703 7.47851C68.4703 6.92188 68.602 6.43555 68.8657 6.01954C69.1294 5.59766 69.5161 5.27246 70.0259 5.04395C70.5356 4.80958 71.1509 4.69238 71.8715 4.69238C72.5923 4.69238 73.228 4.81543 73.7788 5.06153C74.3296 5.30176 74.7574 5.6416 75.062 6.08105C75.3667 6.52051 75.5191 7.02442 75.5191 7.59278L73.4361 7.5752C73.4127 7.2295 73.2661 6.9541 72.9965 6.74903C72.7328 6.53809 72.3608 6.43262 71.8804 6.43262C71.4468 6.43262 71.1187 6.52637 70.896 6.71387C70.6733 6.90137 70.5621 7.1416 70.5621 7.43458C70.5621 7.66895 70.6118 7.85351 70.7114 7.98829C70.811 8.11718 70.9927 8.22851 71.2564 8.32226C71.5201 8.41016 71.9185 8.49512 72.4516 8.57716C73.1548 8.68262 73.7437 8.8291 74.2183 9.0166C74.6988 9.2041 75.0796 9.48242 75.3609 9.85157C75.6421 10.2207 75.7828 10.71 75.7828 11.3193C75.7828 11.9639 75.6187 12.5088 75.2905 12.9541C74.9683 13.3936 74.523 13.7246 73.9546 13.9473C73.3862 14.1641 72.73 14.2725 71.9859 14.2725ZM81.6451 14.2725C80.7486 14.2725 79.937 14.0586 79.2104 13.6309C78.4897 13.2031 77.9244 12.626 77.5141 11.8994C77.104 11.167 76.8989 10.3613 76.8989 9.48242C76.8989 8.60938 77.104 7.80664 77.5141 7.07422C77.9244 6.3418 78.4897 5.76172 79.2104 5.33399C79.937 4.90625 80.7516 4.69238 81.6538 4.69238C82.5621 4.69238 83.3794 4.90625 84.106 5.33399C84.8326 5.76172 85.401 6.3418 85.8111 7.07422C86.2212 7.80664 86.4263 8.60938 86.4263 9.48242C86.4263 10.3613 86.2212 11.167 85.8111 11.8994C85.401 12.6318 84.8296 13.2119 84.0972 13.6397C83.3706 14.0615 82.5532 14.2725 81.6451 14.2725ZM81.6627 12.2949C82.1665 12.2949 82.6177 12.1748 83.0161 11.9346C83.4204 11.6943 83.7368 11.3603 83.9653 10.9326C84.1997 10.5049 84.3169 10.0215 84.3169 9.48242C84.3169 8.94922 84.1997 8.46875 83.9653 8.04101C83.7368 7.60742 83.4204 7.27051 83.0161 7.03028C82.6119 6.78418 82.1606 6.66113 81.6627 6.66113C81.1645 6.66113 80.7134 6.78418 80.309 7.03028C79.9048 7.27051 79.5854 7.60742 79.3512 8.04101C79.1225 8.46875 79.0082 8.94922 79.0082 9.48242C79.0082 10.0215 79.1225 10.5049 79.3512 10.9326C79.5854 11.3603 79.9018 11.6943 80.3004 11.9346C80.7046 12.1748 81.1586 12.2949 81.6627 12.2949ZM90.3022 4.96484V6.37109C90.5659 5.86718 90.9731 5.46289 91.5239 5.15821C92.0806 4.84766 92.7016 4.69238 93.3873 4.69238C94.5885 4.69238 95.4937 5.07325 96.103 5.83496C96.7125 6.59668 97.0171 7.69532 97.0171 9.13087V14H94.8901V9.1748C94.8901 8.30762 94.7085 7.67188 94.3453 7.26758C93.982 6.85742 93.4663 6.65234 92.7984 6.65234C92.3706 6.65234 91.9752 6.76075 91.6119 6.97754C91.2486 7.18847 90.9556 7.50196 90.7329 7.91797C90.5161 8.32813 90.4078 8.81738 90.4078 9.38575V14H88.2808V4.96484H90.3022Z" fill="#0E9384"/>
</svg>
