<svg width="100" height="44" viewBox="0 0 144 44" fill="none" xmlns="http://www.w3.org/2000/svg">
<path d="M104.4 9.72656H110.072V33.8203H104.4V9.72656Z" fill="#6941C6"/>
<path d="M128.634 34.5469C126.243 34.5469 124.079 33.9766 122.142 32.8359C120.22 31.6953 118.712 30.1562 117.618 28.2188C116.524 26.2656 115.978 24.1172 115.978 21.7734C115.978 19.4453 116.524 17.3047 117.618 15.3516C118.712 13.3984 120.22 11.8516 122.142 10.7109C124.079 9.57032 126.251 9 128.657 9C131.079 9 133.259 9.57032 135.196 10.7109C137.134 11.8516 138.65 13.3984 139.743 15.3516C140.837 17.3047 141.384 19.4453 141.384 21.7734C141.384 24.1172 140.837 26.2656 139.743 28.2188C138.65 30.1719 137.126 31.7188 135.173 32.8594C133.235 33.9844 131.056 34.5469 128.634 34.5469ZM128.681 29.2734C130.024 29.2734 131.228 28.9531 132.29 28.3125C133.368 27.6719 134.212 26.7812 134.821 25.6406C135.446 24.5 135.759 23.2109 135.759 21.7734C135.759 20.3516 135.446 19.0703 134.821 17.9297C134.212 16.7734 133.368 15.875 132.29 15.2344C131.212 14.5781 130.009 14.25 128.681 14.25C127.352 14.25 126.15 14.5781 125.071 15.2344C123.993 15.875 123.142 16.7734 122.517 17.9297C121.907 19.0703 121.602 20.3516 121.602 21.7734C121.602 23.2109 121.907 24.5 122.517 25.6406C123.142 26.7812 123.985 27.6719 125.048 28.3125C126.126 28.9531 127.337 29.2734 128.681 29.2734Z" fill="#6941C6"/>
<path d="M70.1719 35.8047C67.8907 35.8047 65.8751 35.3984 64.1247 34.5859C62.3751 33.7734 60.9919 32.4688 59.9763 30.6719C58.9607 28.8594 58.4531 26.539 58.4531 23.7109V10.75H65.6247V23.4766C65.6247 27.2578 67.1407 29.1484 70.1719 29.1484C73.2187 29.1484 74.7419 27.2578 74.7419 23.4766V10.75H81.8907V23.7109C81.8907 26.539 81.3827 28.8594 80.3671 30.6719C79.3515 32.4688 77.9687 33.7734 76.2187 34.5859C74.4687 35.3984 72.4531 35.8047 70.1719 35.8047Z" fill="#101828"/>
<path d="M35.5781 10.75V13.8203C36.4531 12.5859 37.5391 11.6406 38.8359 10.9844C40.1328 10.3281 41.5 10 42.9376 10C45.2032 10 47.2188 10.5781 48.9844 11.7344C50.7656 12.8906 52.1484 14.4531 53.1328 16.4219C54.1328 18.3906 54.6328 20.5469 54.6328 22.8906C54.6328 25.25 54.1328 27.4219 53.1328 29.4062C52.1484 31.375 50.7736 32.9375 49.008 34.0938C47.242 35.25 45.258 35.8281 43.0548 35.8281C41.5392 35.8281 40.1408 35.4922 38.8594 34.8203C37.5938 34.1484 36.5703 33.2578 35.7891 32.1484L35.9297 35.0781V43.328H28.7109V10.75H35.5781ZM41.6952 29.1953C42.742 29.1953 43.7032 28.9531 44.578 28.4688C45.4688 27.9688 46.1796 27.2422 46.7108 26.289C47.242 25.3359 47.508 24.2031 47.508 22.8906C47.508 21.625 47.242 20.5156 46.7108 19.5625C46.1952 18.6094 45.492 17.8828 44.6016 17.3828C43.7108 16.8672 42.7264 16.6094 41.6484 16.6094C40.586 16.6094 39.6094 16.8906 38.7188 17.4531C37.8438 18 37.1485 18.7578 36.6328 19.7266C36.1172 20.6797 35.8594 21.7344 35.8594 22.8906C35.8594 24.1094 36.125 25.2031 36.6563 26.1719C37.1875 27.125 37.8985 27.8672 38.7891 28.3984C39.6797 28.9297 40.6484 29.1953 41.6952 29.1953Z" fill="#101828"/>
<path d="M11.7188 35.8047C9.43752 35.8047 7.42188 35.3984 5.67188 34.5859C3.92188 33.7734 2.53906 32.4688 1.52344 30.6719C0.507812 28.8594 0 26.539 0 23.7109V10.75H7.17188V23.4766C7.17188 27.2578 8.68752 29.1484 11.7188 29.1484C14.7656 29.1484 16.2891 27.2578 16.2891 23.4766V10.75H23.4375V23.7109C23.4375 26.539 22.9297 28.8594 21.9141 30.6719C20.8984 32.4688 19.5156 33.7734 17.7656 34.5859C16.0156 35.3984 14 35.8047 11.7188 35.8047Z" fill="#101828"/>
<path d="M96.8469 26.2305H89.5625V33.611H96.8469V26.2305Z" fill="#101828"/>
<path d="M110.08 0H104.4V5.8H110.08V0Z" fill="#6941C6"/>
</svg>
