<svg width="24" height="24" viewBox="0 0 24 24" fill="none" xmlns="http://www.w3.org/2000/svg">
<path d="M24 16.6406C24 14.7529 22.5043 13.2085 20.6357 13.1288L21.0664 12.2676C21.1654 12.0696 21.1654 11.8366 21.0664 11.6387L20.6377 10.7812H20.9062C21.2946 10.7812 21.6094 10.4664 21.6094 10.0781C21.6094 9.68981 21.2946 9.375 20.9062 9.375H20.6719V8.67188C20.6719 7.50877 19.7256 6.5625 18.5625 6.5625H18.3281V1.40625H23.2969C23.6852 1.40625 24 1.09144 24 0.703125C24 0.314812 23.6852 0 23.2969 0H0.703125C0.314812 0 0 0.314812 0 0.703125C0 1.09144 0.314812 1.40625 0.703125 1.40625H5.67188V3.75H5.4375C4.27439 3.75 3.32812 4.69627 3.32812 5.85938V6.5625H3.09375C2.70544 6.5625 2.39062 6.87731 2.39062 7.26562C2.39062 7.65394 2.70544 7.96875 3.09375 7.96875H9.65625C10.0446 7.96875 10.3594 7.65394 10.3594 7.26562C10.3594 6.87731 10.0446 6.5625 9.65625 6.5625H9.42188V5.85938C9.42188 4.69627 8.47561 3.75 7.3125 3.75H7.07812V1.40625H16.9219V6.5625H16.6875C15.5244 6.5625 14.5781 7.50877 14.5781 8.67188V9.375H14.3438C13.9554 9.375 13.6406 9.68981 13.6406 10.0781C13.6406 10.4664 13.9554 10.7812 14.3438 10.7812H14.6123L14.1836 11.6387C14.0846 11.8366 14.0846 12.0696 14.1836 12.2676L14.6123 13.125H8.95312V10.0781C8.95312 9.68981 8.63831 9.375 8.25 9.375H4.5C4.11169 9.375 3.79688 9.68981 3.79688 10.0781V13.125H3.51562C1.57711 13.125 0 14.7021 0 16.6406C0 18.3384 1.20975 19.7588 2.8125 20.0855V22.5938H1.64062C1.25231 22.5938 0.9375 22.9086 0.9375 23.2969C0.9375 23.6852 1.25231 24 1.64062 24H5.39062C5.77894 24 6.09375 23.6852 6.09375 23.2969C6.09375 22.9086 5.77894 22.5938 5.39062 22.5938H4.21875V20.1562H11.2969V22.5938H10.125C9.73669 22.5938 9.42188 22.9086 9.42188 23.2969C9.42188 23.6852 9.73669 24 10.125 24H13.875C14.2633 24 14.5781 23.6852 14.5781 23.2969C14.5781 22.9086 14.2633 22.5938 13.875 22.5938H12.7031V20.1562H19.7812V22.5938H18.6094C18.2211 22.5938 17.9062 22.9086 17.9062 23.2969C17.9062 23.6852 18.2211 24 18.6094 24H22.3594C22.7477 24 23.0625 23.6852 23.0625 23.2969C23.0625 22.9086 22.7477 22.5938 22.3594 22.5938H21.1875V20.0855C22.7903 19.7588 24 18.3384 24 16.6406ZM8.01562 5.85938V6.5625H4.73438V5.85938C4.73438 5.47167 5.0498 5.15625 5.4375 5.15625H7.3125C7.7002 5.15625 8.01562 5.47167 8.01562 5.85938ZM15.9844 8.67188C15.9844 8.28417 16.2998 7.96875 16.6875 7.96875H18.5625C18.9502 7.96875 19.2656 8.28417 19.2656 8.67188V9.375H15.9844V8.67188ZM15.5986 11.9531L16.1846 10.7812H19.0655L19.6515 11.9531L19.0655 13.125H16.1846L15.5986 11.9531ZM5.20312 10.7812H7.54688V13.125H5.20312V10.7812ZM1.40625 16.6406C1.40625 15.4775 2.35252 14.5312 3.51562 14.5312H20.4844C21.6475 14.5312 22.5938 15.4775 22.5938 16.6406C22.5938 17.8037 21.6475 18.75 20.4844 18.75H3.51562C2.35252 18.75 1.40625 17.8037 1.40625 16.6406Z" fill="currentColor"/>
<path d="M20.4844 17.3438C20.8727 17.3438 21.1875 17.0289 21.1875 16.6406C21.1875 16.2523 20.8727 15.9375 20.4844 15.9375H3.51562C3.12731 15.9375 2.8125 16.2523 2.8125 16.6406C2.8125 17.0289 3.12731 17.3438 3.51562 17.3438H20.4844Z" fill="currentColor"/>
</svg>
