<svg width="24" height="24" viewBox="0 0 24 24" fill="none" xmlns="http://www.w3.org/2000/svg">
<path d="M19.5775 20.2344H20.0775V19.7344V18.3587C20.0775 18.1959 20.2618 18.0991 20.3959 18.1915L23.4121 20.2702C23.5289 20.3507 23.529 20.5242 23.4121 20.6048L20.3959 22.6835L20.3958 22.6836C20.261 22.7765 20.0775 22.6777 20.0775 22.5163V21.1406V20.6406H19.5775H15.4925H15.083L15.0023 21.0421C14.7208 22.4424 13.4804 23.5 12 23.5C10.5196 23.5 9.27918 22.4424 8.99773 21.0421L8.91703 20.6406H8.50753H3.5625C3.45033 20.6406 3.35938 20.5497 3.35938 20.4375V15.4925V15.083L2.95791 15.0023C1.55764 14.7208 0.5 13.4804 0.5 12C0.5 10.3118 1.87429 8.9375 3.5625 8.9375C5.04294 8.9375 6.28332 9.9951 6.56477 11.3954L6.64547 11.7969H7.05497H16.945H17.3545L17.4352 11.3954C17.6772 10.1916 18.6291 9.23969 19.8329 8.99773L20.2344 8.91703V8.50753V4.26562V3.76562H19.7344H15.4925H15.083L15.0023 4.1671C14.7208 5.5674 13.4804 6.625 12 6.625C10.4838 6.625 9.21992 5.51548 8.97952 4.06504L8.89623 3.5625L8.97952 3.05996C9.21992 1.60952 10.4838 0.5 12 0.5C13.4804 0.5 14.7208 1.5576 15.0023 2.9579L15.083 3.35938H15.4925H20.4375C20.5496 3.35938 20.6406 3.45033 20.6406 3.5625V8.50753V8.91703L21.042 8.99773C22.4423 9.27918 23.5 10.5196 23.5 12C23.5 13.6882 22.1257 15.0625 20.4375 15.0625C18.957 15.0625 17.7166 14.0049 17.4352 12.6046L17.3545 12.2031H16.945H7.05497H6.64547L6.56477 12.6046C6.32281 13.8084 5.37087 14.7603 4.16709 15.0023L3.76562 15.083V15.4925V19.7344V20.2344H4.26562H8.50753H8.91703L8.99773 19.8329C9.27918 18.4326 10.5196 17.375 12 17.375C13.4804 17.375 14.7208 18.4326 15.0023 19.8329L15.083 20.2344H15.4925H19.5775ZM8.20251 3.3899L8.45295 3.5625L8.20251 3.7351L5.19403 5.80852L5.19396 5.80857C5.05916 5.90151 4.87564 5.8027 4.87564 5.64127V4.26562V3.76562H4.37564H2.15625C2.04408 3.76562 1.95312 3.67467 1.95312 3.5625C1.95312 3.45033 2.04408 3.35938 2.15625 3.35938H4.37564H4.87564V2.85938V1.48373C4.87564 1.32093 5.05989 1.2241 5.19403 1.31648C5.19404 1.31649 5.19406 1.3165 5.19407 1.31651L8.20251 3.3899ZM5.28189 4.30275V5.25459L6.06563 4.71445L7.13972 3.9742L7.73709 3.5625L7.13972 3.1508L6.06563 2.41055L5.28189 1.87041V2.82225V4.30275ZM20.4837 21.1777V22.1296L21.2675 21.5894L22.3416 20.8492L22.9389 20.4375L22.3416 20.0258L21.2675 19.2856L20.4837 18.7455V19.6973V21.1777ZM9.34375 3.5625C9.34375 5.02758 10.5349 6.21875 12 6.21875C13.4651 6.21875 14.6562 5.02758 14.6562 3.5625C14.6562 2.09742 13.4651 0.90625 12 0.90625C10.5349 0.90625 9.34375 2.09742 9.34375 3.5625ZM23.0938 12C23.0938 10.5349 21.9026 9.34375 20.4375 9.34375C18.9724 9.34375 17.7812 10.5349 17.7812 12C17.7812 13.4651 18.9724 14.6562 20.4375 14.6562C21.9026 14.6562 23.0938 13.4651 23.0938 12ZM3.5625 9.34375C2.09742 9.34375 0.90625 10.5349 0.90625 12C0.90625 13.4651 2.09742 14.6562 3.5625 14.6562C5.02758 14.6562 6.21875 13.4651 6.21875 12C6.21875 10.5349 5.02758 9.34375 3.5625 9.34375ZM9.34375 20.4375C9.34375 21.9026 10.5349 23.0938 12 23.0938C13.4651 23.0938 14.6562 21.9026 14.6562 20.4375C14.6562 18.9724 13.4651 17.7812 12 17.7812C10.5349 17.7812 9.34375 18.9724 9.34375 20.4375Z" stroke="currentColor"/>
</svg>
