<svg width="20" height="21" viewBox="0 0 20 21" fill="none" xmlns="http://www.w3.org/2000/svg">
<path d="M19.4141 15.7941C19.7377 15.7941 20 15.5307 20 15.2059V3.44118C20 1.81941 18.6857 0.5 17.0703 0.5H2.92969C1.31426 0.5 0 1.81941 0 3.44118V15.2059C0 15.5307 0.262344 15.7941 0.585938 15.7941H1.17188V19.3235H0.585938C0.262344 19.3235 0 19.5869 0 19.9118C0 20.2366 0.262344 20.5 0.585938 20.5H5.27344C5.59703 20.5 5.85938 20.2366 5.85938 19.9118C5.85938 19.5869 5.59703 19.3235 5.27344 19.3235H4.6875V15.7941H15.3125V19.3235H14.7266C14.403 19.3235 14.1406 19.5869 14.1406 19.9118C14.1406 20.2366 14.403 20.5 14.7266 20.5H19.4141C19.7377 20.5 20 20.2366 20 19.9118C20 19.5869 19.7377 19.3235 19.4141 19.3235H18.8281V15.7941H19.4141ZM5.85938 1.67647H16.4844V4.02941H14.8828V3.44118C14.8828 3.11631 14.6205 2.85294 14.2969 2.85294H11.9531C11.6295 2.85294 11.3672 3.11631 11.3672 3.44118V4.02941H5.85938V1.67647ZM13.7109 4.02941V5.47929L13.125 5.87145L12.5391 5.47929V4.02941H13.7109ZM5.85938 5.20588H11.3672V5.79412C11.3672 5.99078 11.4651 6.17447 11.6281 6.28357L12.5391 6.89326V7.7549C12.5391 8.07977 12.8014 8.34314 13.125 8.34314C13.4486 8.34314 13.7109 8.07977 13.7109 7.7549V6.89326L14.6219 6.28357C14.7849 6.17447 14.8828 5.99078 14.8828 5.79412V5.20588H16.4844V9.91177H5.85938V5.20588ZM3.51562 19.3235H2.34375V15.7941H3.51562V19.3235ZM9.45312 14.6176H8.28125V13.4412H9.45312V14.6176ZM11.7969 14.6176H10.625V13.4412H11.7969V14.6176ZM14.1406 14.6176H12.9688V13.4412H14.1406V14.6176ZM17.6562 19.3235H16.4844V15.7941H17.6562V19.3235ZM15.3125 14.6176V13.4412H16.4844V14.6176H15.3125ZM17.6562 14.6176V12.8529C17.6562 12.5281 17.3939 12.2647 17.0703 12.2647H7.69531C7.37172 12.2647 7.10938 12.5281 7.10938 12.8529V14.6176H1.17188V3.44118C1.17188 2.46812 1.96043 1.67647 2.92969 1.67647H4.6875V10.5C4.6875 10.8249 4.94984 11.0882 5.27344 11.0882H17.0703C17.3939 11.0882 17.6562 10.8249 17.6562 10.5V1.77725C18.3383 2.02004 18.8281 2.67427 18.8281 3.44118V14.6176H17.6562Z" fill="black"/>
</svg>
