<svg width="16" height="11" viewBox="0 0 16 11" fill="none" xmlns="http://www.w3.org/2000/svg">
<path fill-rule="evenodd" clip-rule="evenodd" d="M8.03602 2.27733C10.2519 2.27742 12.3831 3.12886 13.989 4.65566C14.11 4.77354 14.3032 4.77205 14.4224 4.65233L15.5784 3.48566C15.6387 3.42494 15.6723 3.34269 15.6718 3.25711C15.6713 3.17153 15.6367 3.08967 15.5757 3.02966C11.3606 -1.00989 4.71078 -1.00989 0.495687 3.02966C0.434628 3.08963 0.399984 3.17146 0.399421 3.25704C0.398858 3.34262 0.432422 3.42489 0.492687 3.48566L1.64902 4.65233C1.76805 4.77223 1.96149 4.77372 2.08235 4.65566C3.68851 3.12876 5.81991 2.27732 8.03602 2.27733ZM8.03602 6.07299C9.25351 6.07292 10.4276 6.52545 11.33 7.34266C11.4521 7.45864 11.6444 7.45613 11.7634 7.33699L12.918 6.17033C12.9788 6.10913 13.0126 6.02612 13.0117 5.93985C13.0108 5.85359 12.9754 5.77127 12.9134 5.71133C10.1652 3.15494 5.90922 3.15494 3.16102 5.71133C3.09894 5.77127 3.06352 5.85363 3.06271 5.93992C3.06189 6.02621 3.09575 6.10922 3.15669 6.17033L4.31102 7.33699C4.43001 7.45613 4.62229 7.45864 4.74435 7.34266C5.64623 6.52599 6.81933 6.0735 8.03602 6.07299ZM10.349 8.62681C10.3508 8.71332 10.3168 8.79672 10.255 8.85733L8.25769 10.873C8.19914 10.9322 8.11931 10.9656 8.03602 10.9656C7.95273 10.9656 7.8729 10.9322 7.81435 10.873L5.81669 8.85733C5.75498 8.79668 5.72103 8.71325 5.72286 8.62674C5.72469 8.54023 5.76213 8.45831 5.82635 8.40033C7.10192 7.32144 8.97011 7.32144 10.2457 8.40033C10.3099 8.45836 10.3472 8.54031 10.349 8.62681Z" fill="white"/>
</svg>
