<svg width="18" height="18" viewBox="0 0 18 18" fill="none" xmlns="http://www.w3.org/2000/svg">
<path d="M1.89062 1.34375C1.74558 1.34375 1.60648 1.40137 1.50393 1.50393C1.40137 1.60648 1.34375 1.74558 1.34375 1.89062V6.26562C1.34375 6.41067 1.28613 6.54977 1.18357 6.65232C1.08102 6.75488 0.941915 6.8125 0.796875 6.8125C0.651835 6.8125 0.512735 6.75488 0.410176 6.65232C0.307617 6.54977 0.25 6.41067 0.25 6.26562V1.89062C0.25 1.4555 0.422851 1.0382 0.730528 0.730528C1.0382 0.422851 1.4555 0.25 1.89062 0.25L6.26562 0.25C6.41067 0.25 6.54977 0.307617 6.65232 0.410176C6.75488 0.512735 6.8125 0.651835 6.8125 0.796875C6.8125 0.941915 6.75488 1.08102 6.65232 1.18357C6.54977 1.28613 6.41067 1.34375 6.26562 1.34375H1.89062ZM11.1875 0.796875C11.1875 0.651835 11.2451 0.512735 11.3477 0.410176C11.4502 0.307617 11.5893 0.25 11.7344 0.25L16.1094 0.25C16.5445 0.25 16.9618 0.422851 17.2695 0.730528C17.5771 1.0382 17.75 1.4555 17.75 1.89062V6.26562C17.75 6.41067 17.6924 6.54977 17.5898 6.65232C17.4873 6.75488 17.3482 6.8125 17.2031 6.8125C17.0581 6.8125 16.919 6.75488 16.8164 6.65232C16.7139 6.54977 16.6562 6.41067 16.6562 6.26562V1.89062C16.6562 1.74558 16.5986 1.60648 16.4961 1.50393C16.3935 1.40137 16.2544 1.34375 16.1094 1.34375H11.7344C11.5893 1.34375 11.4502 1.28613 11.3477 1.18357C11.2451 1.08102 11.1875 0.941915 11.1875 0.796875ZM0.796875 11.1875C0.941915 11.1875 1.08102 11.2451 1.18357 11.3477C1.28613 11.4502 1.34375 11.5893 1.34375 11.7344V16.1094C1.34375 16.2544 1.40137 16.3935 1.50393 16.4961C1.60648 16.5986 1.74558 16.6562 1.89062 16.6562H6.26562C6.41067 16.6562 6.54977 16.7139 6.65232 16.8164C6.75488 16.919 6.8125 17.0581 6.8125 17.2031C6.8125 17.3482 6.75488 17.4873 6.65232 17.5898C6.54977 17.6924 6.41067 17.75 6.26562 17.75H1.89062C1.4555 17.75 1.0382 17.5771 0.730528 17.2695C0.422851 16.9618 0.25 16.5445 0.25 16.1094L0.25 11.7344C0.25 11.5893 0.307617 11.4502 0.410176 11.3477C0.512735 11.2451 0.651835 11.1875 0.796875 11.1875ZM17.2031 11.1875C17.3482 11.1875 17.4873 11.2451 17.5898 11.3477C17.6924 11.4502 17.75 11.5893 17.75 11.7344V16.1094C17.75 16.5445 17.5771 16.9618 17.2695 17.2695C16.9618 17.5771 16.5445 17.75 16.1094 17.75H11.7344C11.5893 17.75 11.4502 17.6924 11.3477 17.5898C11.2451 17.4873 11.1875 17.3482 11.1875 17.2031C11.1875 17.0581 11.2451 16.919 11.3477 16.8164C11.4502 16.7139 11.5893 16.6562 11.7344 16.6562H16.1094C16.2544 16.6562 16.3935 16.5986 16.4961 16.4961C16.5986 16.3935 16.6562 16.2544 16.6562 16.1094V11.7344C16.6562 11.5893 16.7139 11.4502 16.8164 11.3477C16.919 11.2451 17.0581 11.1875 17.2031 11.1875Z" fill="#344054"/>
</svg>
