<svg width="44" height="44" viewBox="0 0 44 44" fill="none" xmlns="http://www.w3.org/2000/svg">
<g filter="url(#filter0_d_13438_177493)">
<rect x="2" y="1" width="40" height="40" rx="4" fill="white"/>
<g clip-path="url(#clip0_13438_177493)">
<path d="M14.8906 13.3438C14.7456 13.3438 14.6065 13.4014 14.5039 13.5039C14.4014 13.6065 14.3438 13.7456 14.3438 13.8906V18.2656C14.3438 18.4107 14.2861 18.5498 14.1836 18.6523C14.081 18.7549 13.9419 18.8125 13.7969 18.8125C13.6518 18.8125 13.5127 18.7549 13.4102 18.6523C13.3076 18.5498 13.25 18.4107 13.25 18.2656V13.8906C13.25 13.4555 13.4229 13.0382 13.7305 12.7305C14.0382 12.4229 14.4555 12.25 14.8906 12.25H19.2656C19.4107 12.25 19.5498 12.3076 19.6523 12.4102C19.7549 12.5127 19.8125 12.6518 19.8125 12.7969C19.8125 12.9419 19.7549 13.081 19.6523 13.1836C19.5498 13.2861 19.4107 13.3438 19.2656 13.3438H14.8906ZM24.1875 12.7969C24.1875 12.6518 24.2451 12.5127 24.3477 12.4102C24.4502 12.3076 24.5893 12.25 24.7344 12.25H29.1094C29.5445 12.25 29.9618 12.4229 30.2695 12.7305C30.5771 13.0382 30.75 13.4555 30.75 13.8906V18.2656C30.75 18.4107 30.6924 18.5498 30.5898 18.6523C30.4873 18.7549 30.3482 18.8125 30.2031 18.8125C30.0581 18.8125 29.919 18.7549 29.8164 18.6523C29.7139 18.5498 29.6562 18.4107 29.6562 18.2656V13.8906C29.6562 13.7456 29.5986 13.6065 29.4961 13.5039C29.3935 13.4014 29.2544 13.3438 29.1094 13.3438H24.7344C24.5893 13.3438 24.4502 13.2861 24.3477 13.1836C24.2451 13.081 24.1875 12.9419 24.1875 12.7969ZM13.7969 23.1875C13.9419 23.1875 14.081 23.2451 14.1836 23.3477C14.2861 23.4502 14.3438 23.5893 14.3438 23.7344V28.1094C14.3438 28.2544 14.4014 28.3935 14.5039 28.4961C14.6065 28.5986 14.7456 28.6562 14.8906 28.6562H19.2656C19.4107 28.6562 19.5498 28.7139 19.6523 28.8164C19.7549 28.919 19.8125 29.0581 19.8125 29.2031C19.8125 29.3482 19.7549 29.4873 19.6523 29.5898C19.5498 29.6924 19.4107 29.75 19.2656 29.75H14.8906C14.4555 29.75 14.0382 29.5771 13.7305 29.2695C13.4229 28.9618 13.25 28.5445 13.25 28.1094V23.7344C13.25 23.5893 13.3076 23.4502 13.4102 23.3477C13.5127 23.2451 13.6518 23.1875 13.7969 23.1875ZM30.2031 23.1875C30.3482 23.1875 30.4873 23.2451 30.5898 23.3477C30.6924 23.4502 30.75 23.5893 30.75 23.7344V28.1094C30.75 28.5445 30.5771 28.9618 30.2695 29.2695C29.9618 29.5771 29.5445 29.75 29.1094 29.75H24.7344C24.5893 29.75 24.4502 29.6924 24.3477 29.5898C24.2451 29.4873 24.1875 29.3482 24.1875 29.2031C24.1875 29.0581 24.2451 28.919 24.3477 28.8164C24.4502 28.7139 24.5893 28.6562 24.7344 28.6562H29.1094C29.2544 28.6562 29.3935 28.5986 29.4961 28.4961C29.5986 28.3935 29.6562 28.2544 29.6562 28.1094V23.7344C29.6562 23.5893 29.7139 23.4502 29.8164 23.3477C29.919 23.2451 30.0581 23.1875 30.2031 23.1875Z" fill="#344054"/>
</g>
<rect x="2.5" y="1.5" width="39" height="39" rx="3.5" stroke="#D0D5DD"/>
</g>
<defs>
<filter id="filter0_d_13438_177493" x="0" y="0" width="44" height="44" filterUnits="userSpaceOnUse" color-interpolation-filters="sRGB">
<feFlood flood-opacity="0" result="BackgroundImageFix"/>
<feColorMatrix in="SourceAlpha" type="matrix" values="0 0 0 0 0 0 0 0 0 0 0 0 0 0 0 0 0 0 127 0" result="hardAlpha"/>
<feOffset dy="1"/>
<feGaussianBlur stdDeviation="1"/>
<feComposite in2="hardAlpha" operator="out"/>
<feColorMatrix type="matrix" values="0 0 0 0 0.0627451 0 0 0 0 0.0941176 0 0 0 0 0.156863 0 0 0 0.05 0"/>
<feBlend mode="normal" in2="BackgroundImageFix" result="effect1_dropShadow_13438_177493"/>
<feBlend mode="normal" in="SourceGraphic" in2="effect1_dropShadow_13438_177493" result="shape"/>
</filter>
<clipPath id="clip0_13438_177493">
<rect width="17.5" height="17.5" fill="white" transform="translate(13.25 12.25)"/>
</clipPath>
</defs>
</svg>
